<svg xmlns="http://www.w3.org/2000/svg" xmlns:svg="http://www.w3.org/2000/svg" id="svg1472" width="606.084" height="299.408" version="1.1" viewBox="0 0 454.563 224.556"><metadata id="metadata1478"/><text id="text53" x="-69.12" y="655.304" font-family="Arial" font-size="10.08" font-weight="bold" xml:space="preserve"><tspan id="tspan51" x="2.88 9.36 14.642 20.882 23.762 29.044 31.92 37.444 42.968 45.851 48.482 54.722 57.602 66.483 72.007 74.881 78.241 85.438 90.962 96.486 102.01 105.37 108.004 111.364 117.362 120.244 127.925 134.166 139.686 145.206 148.566 151.449 156.969 162.967 169.207 172.083 179.043 185.283 189.123 194.643 198.004 200.886 206.886 213.126 215.767 222.006 225.127 228.007 234.72 240.72 243.603 246.242 251.762 254.645 258.006 263.526 269.765 272.399 278.64 284.879 290.403 295.927 298.567 301.44 308.4 314.639 320.163 325.687 329.527 335.051 340.575 343.458 350.178 355.702 361.226 367.467 370.826 376.35 379.23 382.113 388.833 394.357 397.717 403.24 406.601 412.125 414.719 421.439 427.439 433.678 439.202 444.726" y="7.304">Table 25. Time (Days) to Onset and Duration of Solicited Local Adverse Events, Safety Subset</tspan></text><text id="text57" x="-69.12" y="655.304" font-family="Arial" font-size="6.48" font-weight="bold" xml:space="preserve"><tspan id="tspan55" x="448.08" y="3.704">a</tspan></text><text id="text63" x="-69.12" y="655.304" font-family="Arial" font-size="10.08" font-weight="bold" xml:space="preserve"><tspan id="tspan59" x="451.68 454.563" y="7.304">, </tspan><tspan id="tspan61" x="2.878 9.598 12.958 19.198 25.438 30.718 33.601 39.125 44.649 50.172 55.696" y="18.825">Study 3001</tspan></text><g id="g193" data-name="P" transform="translate(-69.12,-136.69594)"><clipPath id="cp6716"><path id="path65" d="m 69.84,610.8 h 191.28 v 23.03999 H 69.84 Z" transform="matrix(1,0,0,-1,0,792)"/></clipPath><g id="g72" clip-path="url(#cp6716)"><text id="text70" font-family="Arial" font-size="10.08" font-weight="bold" transform="translate(0,792)" xml:space="preserve"><tspan id="tspan68" x="72 78.96 85.2 90.724 96.247 100.088 105.612 111.136 114.018 121.216 126.739 132.5 138.024 141.384 144.264 150.503" y="-612.96">Adverse Reaction</tspan></text></g><clipPath id="cp6717"><path id="path74" d="m 69.84,610.8 h 191.28 v 23.03999 H 69.84 Z" transform="matrix(1,0,0,-1,0,792)"/></clipPath><clipPath id="cp6718"><path id="path85" d="m 261.12,610.8 h 112.32 v 23.03999 H 261.12 Z" transform="matrix(1,0,0,-1,0,792)"/></clipPath><g id="g92" clip-path="url(#cp6718)"><text id="text90" font-family="Arial" font-size="10.08" font-weight="bold" transform="translate(0,792)" xml:space="preserve"><tspan id="tspan88" x="307.44 314.4 320.64 326.164 331.687 334.568 341.765 349.685 356.406 361.929 364.809" y="-624.48">Ad26.COV2.S</tspan></text></g><clipPath id="cp6719"><path id="path94" d="m 261.12,610.8 h 112.32 v 23.03999 H 261.12 Z" transform="matrix(1,0,0,-1,0,792)"/></clipPath><clipPath id="cp6720"><path id="path105" d="m 261.12,610.8 h 112.32 v 23.03999 H 261.12 Z" transform="matrix(1,0,0,-1,0,792)"/></clipPath><clipPath id="cp6721"><path id="path114" d="m 261.12,610.8 h 112.32 v 23.03999 H 261.12 Z" transform="matrix(1,0,0,-1,0,792)"/></clipPath><g id="g121" clip-path="url(#cp6721)"><text id="text119" font-family="Arial" font-size="10.08" font-weight="bold" transform="translate(0,792)" xml:space="preserve"><tspan id="tspan117" x="336 343.197 349.197 354.721 360.244 365.768" y="-612.96">N=3356</tspan></text></g><clipPath id="cp6722"><path id="path123" d="m 261.12,610.8 h 112.32 v 23.03999 H 261.12 Z" transform="matrix(1,0,0,-1,0,792)"/></clipPath><clipPath id="cp6723"><path id="path134" d="M 373.44,610.8 H 486 v 23.03999 H 373.44 Z" transform="matrix(1,0,0,-1,0,792)"/></clipPath><g id="g141" clip-path="url(#cp6723)"><text id="text139" font-family="Arial" font-size="10.08" font-weight="bold" transform="translate(0,792)" xml:space="preserve"><tspan id="tspan137" x="445.44 452.16 455.04 460.564 466.088 471.612 477.852" y="-624.48">Placebo</tspan></text></g><clipPath id="cp6724"><path id="path143" d="M 373.44,610.8 H 486 v 23.03999 H 373.44 Z" transform="matrix(1,0,0,-1,0,792)"/></clipPath><clipPath id="cp6725"><path id="path154" d="M 373.44,610.8 H 486 v 23.03999 H 373.44 Z" transform="matrix(1,0,0,-1,0,792)"/></clipPath><clipPath id="cp6726"><path id="path163" d="M 373.44,610.8 H 486 v 23.03999 H 373.44 Z" transform="matrix(1,0,0,-1,0,792)"/></clipPath><g id="g170" clip-path="url(#cp6726)"><text id="text168" font-family="Arial" font-size="10.08" font-weight="bold" transform="translate(0,792)" xml:space="preserve"><tspan id="tspan166" x="448.56 455.757 461.757 467.281 472.804 478.328" y="-612.96">N=3380</tspan></text></g><clipPath id="cp6727"><path id="path172" d="M 373.44,610.8 H 486 v 23.03999 H 373.44 Z" transform="matrix(1,0,0,-1,0,792)"/></clipPath><path id="path183" d="m 69.84,633.84 h 191.28 v 0.48 H 69.84 Z" transform="matrix(1,0,0,-1,0,792)"/><path id="path185" d="m 261.12,633.84 h 0.48099 v 0.48 H 261.12 Z" transform="matrix(1,0,0,-1,0,792)"/><path id="path187" d="m 261.6,633.84 h 111.839 v 0.48 H 261.6 Z" transform="matrix(1,0,0,-1,0,792)"/><path id="path189" d="m 373.44,633.84 h 0.481 v 0.48 h -0.481 z" transform="matrix(1,0,0,-1,0,792)"/><path id="path191" d="M 373.92,633.84 H 486 v 0.48 H 373.92 Z" transform="matrix(1,0,0,-1,0,792)"/></g><g id="g283" data-name="P" transform="translate(-69.12,-136.69594)"><clipPath id="cp6728"><path id="path195" d="m 69.84,598.56 h 191.28 v 11.52 H 69.84 Z" transform="matrix(1,0,0,-1,0,792)"/></clipPath><g id="g202" clip-path="url(#cp6728)"><text id="text200" font-family="ArialMT" font-size="10.08" transform="translate(0,792)" xml:space="preserve"><tspan id="tspan198" x="72 78.72 84.244 86.644 92.168 95.048 97.931" y="-600.72">Pain, n</tspan></text></g><clipPath id="cp6729"><path id="path204" d="m 69.84,598.56 h 191.28 v 11.52 H 69.84 Z" transform="matrix(1,0,0,-1,0,792)"/></clipPath><clipPath id="cp6730"><path id="path213" d="m 69.84,598.56 h 191.28 v 11.52 H 69.84 Z" transform="matrix(1,0,0,-1,0,792)"/></clipPath><g id="g220" clip-path="url(#cp6730)"><text id="text218" font-family="ArialMT" font-size="10.08" transform="translate(0,792)" xml:space="preserve"><tspan id="tspan216" x="106.08 109.44 118.32" y="-600.72">(%)</tspan></text></g><clipPath id="cp6731"><path id="path222" d="m 69.84,598.56 h 191.28 v 11.52 H 69.84 Z" transform="matrix(1,0,0,-1,0,792)"/></clipPath><clipPath id="cp6732"><path id="path233" d="m 261.12,598.56 h 112.32 v 11.52 H 261.12 Z" transform="matrix(1,0,0,-1,0,792)"/></clipPath><g id="g240" clip-path="url(#cp6732)"><text id="text238" font-family="ArialMT" font-size="10.08" transform="translate(0,792)" xml:space="preserve"><tspan id="tspan236" x="311.28 316.804 322.328 327.851 333.375 336.258 339.618 345.142 350.666 353.545 359.069 367.95" y="-600.72">1632 (48.6%)</tspan></text></g><clipPath id="cp6733"><path id="path242" d="m 261.12,598.56 h 112.32 v 11.52 H 261.12 Z" transform="matrix(1,0,0,-1,0,792)"/></clipPath><clipPath id="cp6734"><path id="path253" d="M 373.44,598.56 H 486 v 11.52 H 373.44 Z" transform="matrix(1,0,0,-1,0,792)"/></clipPath><g id="g260" clip-path="url(#cp6734)"><text id="text258" font-family="ArialMT" font-size="10.08" transform="translate(0,792)" xml:space="preserve"><tspan id="tspan256" x="429.36 434.884 440.408 445.931 448.814 452.175 457.699 463.223 466.103 471.626 480.507" y="-600.72">564 (16.7%)</tspan></text></g><clipPath id="cp6735"><path id="path262" d="M 373.44,598.56 H 486 v 11.52 H 373.44 Z" transform="matrix(1,0,0,-1,0,792)"/></clipPath><path id="path273" d="m 69.84,610.08 h 191.28 v 0.48 H 69.84 Z" transform="matrix(1,0,0,-1,0,792)"/><path id="path275" d="m 261.12,610.08 h 0.48099 v 0.48 H 261.12 Z" transform="matrix(1,0,0,-1,0,792)"/><path id="path277" d="m 261.6,610.08 h 111.839 v 0.48 H 261.6 Z" transform="matrix(1,0,0,-1,0,792)"/><path id="path279" d="m 373.44,610.08 h 0.481 v 0.48 h -0.481 z" transform="matrix(1,0,0,-1,0,792)"/><path id="path281" d="M 373.92,610.08 H 486 v 0.48 H 373.92 Z" transform="matrix(1,0,0,-1,0,792)"/></g><g id="g661" data-name="P" transform="translate(-69.12,-136.69594)"><clipPath id="cp6736"><path id="path285" d="m 69.84,586.8 h 191.28 v 11.52 H 69.84 Z" transform="matrix(1,0,0,-1,0,792)"/></clipPath><g id="g292" clip-path="url(#cp6736)"><text id="text290" font-family="ArialMT" font-size="10.08" transform="translate(0,792)" xml:space="preserve"><tspan id="tspan288" x="82.8 91.2 96.724 102.247 104.646 110.17 115.694 118.577 121.217 123.374 132.014 137.293 140.176 143.056 148.58 151.463 156.987 162.511 167.31 172.834 175.713 178.596 181.716 190.116 192.516 198.04 200.68 203.32 211.96 217.24 222.52" y="-588.96">Median time to onset (min, max)</tspan></text></g><clipPath id="cp6737"><path id="path294" d="m 69.84,586.8 h 191.28 v 11.52 H 69.84 Z" transform="matrix(1,0,0,-1,0,792)"/></clipPath><clipPath id="cp6738"><path id="path305" d="m 261.12,586.8 h 112.32 v 11.52 H 261.12 Z" transform="matrix(1,0,0,-1,0,792)"/></clipPath><g id="g312" clip-path="url(#cp6738)"><text id="text310" font-family="ArialMT" font-size="10.08" transform="translate(0,792)" xml:space="preserve"><tspan id="tspan308" x="331.2 336.724 339.604 345.128 348.01 351.37" y="-588.96">2.0 (1</tspan></text></g><clipPath id="cp6739"><path id="path314" d="m 261.12,586.8 h 112.32 v 11.52 H 261.12 Z" transform="matrix(1,0,0,-1,0,792)"/></clipPath><g id="g321" clip-path="url(#cp6739)"><text id="text319" font-family="ArialMT" font-size="10.08" transform="translate(0,792)" xml:space="preserve"><tspan id="tspan317" x="356.88" y="-588.96">,</tspan></text></g><clipPath id="cp6740"><path id="path323" d="m 261.12,586.8 h 112.32 v 11.52 H 261.12 Z" transform="matrix(1,0,0,-1,0,792)"/></clipPath><clipPath id="cp6741"><path id="path332" d="m 261.12,586.8 h 112.32 v 11.52 H 261.12 Z" transform="matrix(1,0,0,-1,0,792)"/></clipPath><g id="g339" clip-path="url(#cp6741)"><text id="text337" font-family="ArialMT" font-size="10.08" transform="translate(0,792)" xml:space="preserve"><tspan id="tspan335" x="362.64 368.164" y="-588.96">8)</tspan></text></g><clipPath id="cp6742"><path id="path341" d="m 261.12,586.8 h 112.32 v 11.52 H 261.12 Z" transform="matrix(1,0,0,-1,0,792)"/></clipPath><clipPath id="cp6743"><path id="path352" d="M 373.44,586.8 H 486 v 11.52 H 373.44 Z" transform="matrix(1,0,0,-1,0,792)"/></clipPath><g id="g359" clip-path="url(#cp6743)"><text id="text357" font-family="ArialMT" font-size="10.08" transform="translate(0,792)" xml:space="preserve"><tspan id="tspan355" x="443.76 449.284 452.164 457.688 460.57 463.93" y="-588.96">2.0 (1</tspan></text></g><clipPath id="cp6744"><path id="path361" d="M 373.44,586.8 H 486 v 11.52 H 373.44 Z" transform="matrix(1,0,0,-1,0,792)"/></clipPath><g id="g368" clip-path="url(#cp6744)"><text id="text366" font-family="ArialMT" font-size="10.08" transform="translate(0,792)" xml:space="preserve"><tspan id="tspan364" x="469.44" y="-588.96">,</tspan></text></g><clipPath id="cp6745"><path id="path370" d="M 373.44,586.8 H 486 v 11.52 H 373.44 Z" transform="matrix(1,0,0,-1,0,792)"/></clipPath><clipPath id="cp6746"><path id="path379" d="M 373.44,586.8 H 486 v 11.52 H 373.44 Z" transform="matrix(1,0,0,-1,0,792)"/></clipPath><g id="g386" clip-path="url(#cp6746)"><text id="text384" font-family="ArialMT" font-size="10.08" transform="translate(0,792)" xml:space="preserve"><tspan id="tspan382" x="475.2 480.724" y="-588.96">8)</tspan></text></g><clipPath id="cp6747"><path id="path388" d="M 373.44,586.8 H 486 v 11.52 H 373.44 Z" transform="matrix(1,0,0,-1,0,792)"/></clipPath><clipPath id="cp6748"><path id="path399" d="m 69.84,575.28 h 191.28 v 11.28008 H 69.84 Z" transform="matrix(1,0,0,-1,0,792)"/></clipPath><g id="g406" clip-path="url(#cp6748)"><text id="text404" font-family="ArialMT" font-size="10.08" transform="translate(0,792)" xml:space="preserve"><tspan id="tspan402" x="82.8 91.2 96.724 102.247 104.646 110.17 115.694 118.577 124.101 129.625 132.984 138.508 141.148 143.547 149.071 154.595 157.478 160.597 168.997 171.397 176.921 179.561 182.201 190.841 196.121 201.401" y="-577.44">Median duration (min, max)</tspan></text></g><clipPath id="cp6749"><path id="path408" d="m 69.84,575.28 h 191.28 v 11.28008 H 69.84 Z" transform="matrix(1,0,0,-1,0,792)"/></clipPath><clipPath id="cp6750"><path id="path419" d="m 261.12,575.28 h 112.32 v 11.28008 H 261.12 Z" transform="matrix(1,0,0,-1,0,792)"/></clipPath><g id="g426" clip-path="url(#cp6750)"><text id="text424" font-family="ArialMT" font-size="10.08" transform="translate(0,792)" xml:space="preserve"><tspan id="tspan422" x="325.68 331.204 334.084 339.608 342.49 345.85" y="-577.44">2.0 (1</tspan></text></g><clipPath id="cp6751"><path id="path428" d="m 261.12,575.28 h 112.32 v 11.28008 H 261.12 Z" transform="matrix(1,0,0,-1,0,792)"/></clipPath><g id="g435" clip-path="url(#cp6751)"><text id="text433" font-family="ArialMT" font-size="10.08" transform="translate(0,792)" xml:space="preserve"><tspan id="tspan431" x="351.36" y="-577.44">,</tspan></text></g><clipPath id="cp6752"><path id="path437" d="m 261.12,575.28 h 112.32 v 11.28008 H 261.12 Z" transform="matrix(1,0,0,-1,0,792)"/></clipPath><clipPath id="cp6753"><path id="path446" d="m 261.12,575.28 h 112.32 v 11.28008 H 261.12 Z" transform="matrix(1,0,0,-1,0,792)"/></clipPath><g id="g453" clip-path="url(#cp6753)"><text id="text451" font-family="ArialMT" font-size="10.08" transform="translate(0,792)" xml:space="preserve"><tspan id="tspan449" x="357.12 362.644 368.168" y="-577.44">67)</tspan></text></g><clipPath id="cp6754"><path id="path455" d="m 261.12,575.28 h 112.32 v 11.28008 H 261.12 Z" transform="matrix(1,0,0,-1,0,792)"/></clipPath><clipPath id="cp6755"><path id="path466" d="M 373.44,575.28 H 486 v 11.28008 H 373.44 Z" transform="matrix(1,0,0,-1,0,792)"/></clipPath><g id="g473" clip-path="url(#cp6755)"><text id="text471" font-family="ArialMT" font-size="10.08" transform="translate(0,792)" xml:space="preserve"><tspan id="tspan469" x="438.24 443.764 446.644 452.168 455.05 458.41" y="-577.44">2.0 (1</tspan></text></g><clipPath id="cp6756"><path id="path475" d="M 373.44,575.28 H 486 v 11.28008 H 373.44 Z" transform="matrix(1,0,0,-1,0,792)"/></clipPath><g id="g482" clip-path="url(#cp6756)"><text id="text480" font-family="ArialMT" font-size="10.08" transform="translate(0,792)" xml:space="preserve"><tspan id="tspan478" x="463.92" y="-577.44">,</tspan></text></g><clipPath id="cp6757"><path id="path484" d="M 373.44,575.28 H 486 v 11.28008 H 373.44 Z" transform="matrix(1,0,0,-1,0,792)"/></clipPath><clipPath id="cp6758"><path id="path493" d="M 373.44,575.28 H 486 v 11.28008 H 373.44 Z" transform="matrix(1,0,0,-1,0,792)"/></clipPath><g id="g500" clip-path="url(#cp6758)"><text id="text498" font-family="ArialMT" font-size="10.08" transform="translate(0,792)" xml:space="preserve"><tspan id="tspan496" x="469.68 475.204 480.728" y="-577.44">67)</tspan></text></g><clipPath id="cp6759"><path id="path502" d="M 373.44,575.28 H 486 v 11.28008 H 373.44 Z" transform="matrix(1,0,0,-1,0,792)"/></clipPath><clipPath id="cp6760"><path id="path513" d="m 69.84,563.52 h 191.28 v 11.281 H 69.84 Z" transform="matrix(1,0,0,-1,0,792)"/></clipPath><g id="g520" clip-path="url(#cp6760)"><text id="text518" font-family="ArialMT" font-size="10.08" transform="translate(0,792)" xml:space="preserve"><tspan id="tspan516" x="82.8 88.8 94.323 97.206 102.73 108.254 113.294 118.094 120.977 126.501 132.025 135.384 140.908 143.789 146.188 151.712" y="-565.68">&gt;7 days duration</tspan></text></g><clipPath id="cp6761"><path id="path522" d="m 69.84,563.52 h 191.28 v 11.281 H 69.84 Z" transform="matrix(1,0,0,-1,0,792)"/></clipPath><clipPath id="cp6762"><path id="path533" d="m 261.12,563.52 h 112.32 v 11.281 H 261.12 Z" transform="matrix(1,0,0,-1,0,792)"/></clipPath><g id="g540" clip-path="url(#cp6762)"><text id="text538" font-family="ArialMT" font-size="10.08" transform="translate(0,792)" xml:space="preserve"><tspan id="tspan536" x="327.84 333.364 338.888 341.771 345.131 350.655 353.535 359.059 367.939" y="-565.68">38 (2.3%)</tspan></text></g><clipPath id="cp6763"><path id="path542" d="m 261.12,563.52 h 112.32 v 11.281 H 261.12 Z" transform="matrix(1,0,0,-1,0,792)"/></clipPath><clipPath id="cp6764"><path id="path553" d="M 373.44,563.52 H 486 v 11.281 H 373.44 Z" transform="matrix(1,0,0,-1,0,792)"/></clipPath><g id="g560" clip-path="url(#cp6764)"><text id="text558" font-family="ArialMT" font-size="10.08" transform="translate(0,792)" xml:space="preserve"><tspan id="tspan556" x="440.4 445.924 451.448 454.331 457.691 463.215 466.095 471.619 480.499" y="-565.68">14 (2.1%)</tspan></text></g><clipPath id="cp6765"><path id="path562" d="M 373.44,563.52 H 486 v 11.281 H 373.44 Z" transform="matrix(1,0,0,-1,0,792)"/></clipPath><clipPath id="cp6766"><path id="path573" d="m 69.84,551.28 h 191.28 v 11.28106 H 69.84 Z" transform="matrix(1,0,0,-1,0,792)"/></clipPath><g id="g580" clip-path="url(#cp6766)"><text id="text578" font-family="ArialMT" font-size="10.08" transform="translate(0,792)" xml:space="preserve"><tspan id="tspan576" x="72 78.723 82.08 87.12 90 95.52 100.8 109.44 114.96 117.6 120.483" y="-553.44">Erythema, n</tspan></text></g><clipPath id="cp6767"><path id="path582" d="m 69.84,551.28 h 191.28 v 11.28106 H 69.84 Z" transform="matrix(1,0,0,-1,0,792)"/></clipPath><clipPath id="cp6768"><path id="path591" d="m 69.84,551.28 h 191.28 v 11.28106 H 69.84 Z" transform="matrix(1,0,0,-1,0,792)"/></clipPath><g id="g598" clip-path="url(#cp6768)"><text id="text596" font-family="ArialMT" font-size="10.08" transform="translate(0,792)" xml:space="preserve"><tspan id="tspan594" x="128.88 132.24 141.12" y="-553.44">(%)</tspan></text></g><clipPath id="cp6769"><path id="path600" d="m 69.84,551.28 h 191.28 v 11.28106 H 69.84 Z" transform="matrix(1,0,0,-1,0,792)"/></clipPath><clipPath id="cp6770"><path id="path611" d="m 261.12,551.28 h 112.32 v 11.28106 H 261.12 Z" transform="matrix(1,0,0,-1,0,792)"/></clipPath><g id="g618" clip-path="url(#cp6770)"><text id="text616" font-family="ArialMT" font-size="10.08" transform="translate(0,792)" xml:space="preserve"><tspan id="tspan614" x="322.32 327.844 333.368 338.892 341.774 345.135 350.659 353.539 359.063 367.943" y="-553.44">245 (7.3%)</tspan></text></g><clipPath id="cp6771"><path id="path620" d="m 261.12,551.28 h 112.32 v 11.28106 H 261.12 Z" transform="matrix(1,0,0,-1,0,792)"/></clipPath><clipPath id="cp6772"><path id="path631" d="M 373.44,551.28 H 486 v 11.28106 H 373.44 Z" transform="matrix(1,0,0,-1,0,792)"/></clipPath><g id="g638" clip-path="url(#cp6772)"><text id="text636" font-family="ArialMT" font-size="10.08" transform="translate(0,792)" xml:space="preserve"><tspan id="tspan634" x="434.88 440.404 445.928 451.452 454.334 457.695 463.219 466.099 471.623 480.503" y="-553.44">131 (3.9%)</tspan></text></g><clipPath id="cp6773"><path id="path640" d="M 373.44,551.28 H 486 v 11.28106 H 373.44 Z" transform="matrix(1,0,0,-1,0,792)"/></clipPath><path id="path651" d="m 69.84,562.8 h 191.28 v 0.481 H 69.84 Z" transform="matrix(1,0,0,-1,0,792)"/><path id="path653" d="m 261.12,562.8 h 0.48099 v 0.481 H 261.12 Z" transform="matrix(1,0,0,-1,0,792)"/><path id="path655" d="m 261.6,562.8 h 111.839 v 0.481 H 261.6 Z" transform="matrix(1,0,0,-1,0,792)"/><path id="path657" d="m 373.44,562.8 h 0.481 v 0.481 h -0.481 z" transform="matrix(1,0,0,-1,0,792)"/><path id="path659" d="M 373.92,562.8 H 486 v 0.481 H 373.92 Z" transform="matrix(1,0,0,-1,0,792)"/></g><g id="g1048" data-name="P" transform="translate(-69.12,-136.69594)"><clipPath id="cp6774"><path id="path663" d="m 69.84,539.52 h 191.28 v 11.28007 H 69.84 Z" transform="matrix(1,0,0,-1,0,792)"/></clipPath><g id="g670" clip-path="url(#cp6774)"><text id="text668" font-family="ArialMT" font-size="10.08" transform="translate(0,792)" xml:space="preserve"><tspan id="tspan666" x="82.8 91.2 96.724 102.247 104.646 110.17 115.694 118.577 121.217 123.374 132.014 137.293 140.176 143.056 148.58 151.463 156.987 162.511 167.31 172.834 175.713 178.596 181.716 190.116 192.516 198.04 200.68 203.32 211.96 217.24 222.52" y="-541.68">Median time to onset (min, max)</tspan></text></g><clipPath id="cp6775"><path id="path672" d="m 69.84,539.52 h 191.28 v 11.28007 H 69.84 Z" transform="matrix(1,0,0,-1,0,792)"/></clipPath><clipPath id="cp6776"><path id="path683" d="m 261.12,539.52 h 112.32 v 11.28007 H 261.12 Z" transform="matrix(1,0,0,-1,0,792)"/></clipPath><g id="g690" clip-path="url(#cp6776)"><text id="text688" font-family="ArialMT" font-size="10.08" transform="translate(0,792)" xml:space="preserve"><tspan id="tspan686" x="331.2 336.724 339.604 345.128 348.01 351.37" y="-541.68">2.0 (1</tspan></text></g><clipPath id="cp6777"><path id="path692" d="m 261.12,539.52 h 112.32 v 11.28007 H 261.12 Z" transform="matrix(1,0,0,-1,0,792)"/></clipPath><g id="g699" clip-path="url(#cp6777)"><text id="text697" font-family="ArialMT" font-size="10.08" transform="translate(0,792)" xml:space="preserve"><tspan id="tspan695" x="356.88" y="-541.68">,</tspan></text></g><clipPath id="cp6778"><path id="path701" d="m 261.12,539.52 h 112.32 v 11.28007 H 261.12 Z" transform="matrix(1,0,0,-1,0,792)"/></clipPath><clipPath id="cp6779"><path id="path710" d="m 261.12,539.52 h 112.32 v 11.28007 H 261.12 Z" transform="matrix(1,0,0,-1,0,792)"/></clipPath><g id="g717" clip-path="url(#cp6779)"><text id="text715" font-family="ArialMT" font-size="10.08" transform="translate(0,792)" xml:space="preserve"><tspan id="tspan713" x="362.64 368.164" y="-541.68">7)</tspan></text></g><clipPath id="cp6780"><path id="path719" d="m 261.12,539.52 h 112.32 v 11.28007 H 261.12 Z" transform="matrix(1,0,0,-1,0,792)"/></clipPath><clipPath id="cp6781"><path id="path730" d="M 373.44,539.52 H 486 v 11.28007 H 373.44 Z" transform="matrix(1,0,0,-1,0,792)"/></clipPath><g id="g737" clip-path="url(#cp6781)"><text id="text735" font-family="ArialMT" font-size="10.08" transform="translate(0,792)" xml:space="preserve"><tspan id="tspan733" x="443.76 449.284 452.164 457.688 460.57 463.93" y="-541.68">1.0 (1</tspan></text></g><clipPath id="cp6782"><path id="path739" d="M 373.44,539.52 H 486 v 11.28007 H 373.44 Z" transform="matrix(1,0,0,-1,0,792)"/></clipPath><g id="g746" clip-path="url(#cp6782)"><text id="text744" font-family="ArialMT" font-size="10.08" transform="translate(0,792)" xml:space="preserve"><tspan id="tspan742" x="469.44" y="-541.68">,</tspan></text></g><clipPath id="cp6783"><path id="path748" d="M 373.44,539.52 H 486 v 11.28007 H 373.44 Z" transform="matrix(1,0,0,-1,0,792)"/></clipPath><clipPath id="cp6784"><path id="path757" d="M 373.44,539.52 H 486 v 11.28007 H 373.44 Z" transform="matrix(1,0,0,-1,0,792)"/></clipPath><g id="g764" clip-path="url(#cp6784)"><text id="text762" font-family="ArialMT" font-size="10.08" transform="translate(0,792)" xml:space="preserve"><tspan id="tspan760" x="475.2 480.724" y="-541.68">8)</tspan></text></g><clipPath id="cp6785"><path id="path766" d="M 373.44,539.52 H 486 v 11.28007 H 373.44 Z" transform="matrix(1,0,0,-1,0,792)"/></clipPath><clipPath id="cp6786"><path id="path777" d="m 69.84,527.76 h 191.28 v 11.52 H 69.84 Z" transform="matrix(1,0,0,-1,0,792)"/></clipPath><g id="g784" clip-path="url(#cp6786)"><text id="text782" font-family="ArialMT" font-size="10.08" transform="translate(0,792)" xml:space="preserve"><tspan id="tspan780" x="82.8 91.2 96.724 102.247 104.646 110.17 115.694 118.577 124.101 129.625 132.984 138.508 141.148 143.547 149.071 154.595 157.478 160.597 168.997 171.397 176.921 179.561 182.201 190.841 196.121 201.401" y="-529.92">Median duration (min, max)</tspan></text></g><clipPath id="cp6787"><path id="path786" d="m 69.84,527.76 h 191.28 v 11.52 H 69.84 Z" transform="matrix(1,0,0,-1,0,792)"/></clipPath><clipPath id="cp6788"><path id="path797" d="m 261.12,527.76 h 112.32 v 11.52 H 261.12 Z" transform="matrix(1,0,0,-1,0,792)"/></clipPath><g id="g804" clip-path="url(#cp6788)"><text id="text802" font-family="ArialMT" font-size="10.08" transform="translate(0,792)" xml:space="preserve"><tspan id="tspan800" x="331.2 336.724 339.604 345.128 348.01 351.37" y="-529.92">2.0 (1</tspan></text></g><clipPath id="cp6789"><path id="path806" d="m 261.12,527.76 h 112.32 v 11.52 H 261.12 Z" transform="matrix(1,0,0,-1,0,792)"/></clipPath><g id="g813" clip-path="url(#cp6789)"><text id="text811" font-family="ArialMT" font-size="10.08" transform="translate(0,792)" xml:space="preserve"><tspan id="tspan809" x="356.88" y="-529.92">,</tspan></text></g><clipPath id="cp6790"><path id="path815" d="m 261.12,527.76 h 112.32 v 11.52 H 261.12 Z" transform="matrix(1,0,0,-1,0,792)"/></clipPath><clipPath id="cp6791"><path id="path824" d="m 261.12,527.76 h 112.32 v 11.52 H 261.12 Z" transform="matrix(1,0,0,-1,0,792)"/></clipPath><g id="g831" clip-path="url(#cp6791)"><text id="text829" font-family="ArialMT" font-size="10.08" transform="translate(0,792)" xml:space="preserve"><tspan id="tspan827" x="362.64 368.164" y="-529.92">9)</tspan></text></g><clipPath id="cp6792"><path id="path833" d="m 261.12,527.76 h 112.32 v 11.52 H 261.12 Z" transform="matrix(1,0,0,-1,0,792)"/></clipPath><clipPath id="cp6793"><path id="path844" d="M 373.44,527.76 H 486 v 11.52 H 373.44 Z" transform="matrix(1,0,0,-1,0,792)"/></clipPath><g id="g851" clip-path="url(#cp6793)"><text id="text849" font-family="ArialMT" font-size="10.08" transform="translate(0,792)" xml:space="preserve"><tspan id="tspan847" x="438.24 443.764 446.644 452.168 455.05 458.41" y="-529.92">2.0 (1</tspan></text></g><clipPath id="cp6794"><path id="path853" d="M 373.44,527.76 H 486 v 11.52 H 373.44 Z" transform="matrix(1,0,0,-1,0,792)"/></clipPath><g id="g860" clip-path="url(#cp6794)"><text id="text858" font-family="ArialMT" font-size="10.08" transform="translate(0,792)" xml:space="preserve"><tspan id="tspan856" x="463.92" y="-529.92">,</tspan></text></g><clipPath id="cp6795"><path id="path862" d="M 373.44,527.76 H 486 v 11.52 H 373.44 Z" transform="matrix(1,0,0,-1,0,792)"/></clipPath><clipPath id="cp6796"><path id="path871" d="M 373.44,527.76 H 486 v 11.52 H 373.44 Z" transform="matrix(1,0,0,-1,0,792)"/></clipPath><g id="g878" clip-path="url(#cp6796)"><text id="text876" font-family="ArialMT" font-size="10.08" transform="translate(0,792)" xml:space="preserve"><tspan id="tspan874" x="469.68 475.204 480.728" y="-529.92">19)</tspan></text></g><clipPath id="cp6797"><path id="path880" d="M 373.44,527.76 H 486 v 11.52 H 373.44 Z" transform="matrix(1,0,0,-1,0,792)"/></clipPath><clipPath id="cp6798"><path id="path891" d="m 69.84,516 h 191.28 v 11.52 H 69.84 Z" transform="matrix(1,0,0,-1,0,792)"/></clipPath><g id="g898" clip-path="url(#cp6798)"><text id="text896" font-family="ArialMT" font-size="10.08" transform="translate(0,792)" xml:space="preserve"><tspan id="tspan894" x="82.8 88.8 94.323 97.206 102.73 108.254 113.294 118.094 120.977 126.501 132.025 135.384 140.908 143.789 146.188 151.712" y="-518.16">&gt;7 days duration</tspan></text></g><clipPath id="cp6799"><path id="path900" d="m 69.84,516 h 191.28 v 11.52 H 69.84 Z" transform="matrix(1,0,0,-1,0,792)"/></clipPath><clipPath id="cp6800"><path id="path911" d="m 261.12,516 h 112.32 v 11.52 H 261.12 Z" transform="matrix(1,0,0,-1,0,792)"/></clipPath><g id="g918" clip-path="url(#cp6800)"><text id="text916" font-family="ArialMT" font-size="10.08" transform="translate(0,792)" xml:space="preserve"><tspan id="tspan914" x="327.84 333.364 338.888 341.771 345.131 350.655 353.535 359.059 367.939" y="-518.16">13 (0.8%)</tspan></text></g><clipPath id="cp6801"><path id="path920" d="m 261.12,516 h 112.32 v 11.52 H 261.12 Z" transform="matrix(1,0,0,-1,0,792)"/></clipPath><clipPath id="cp6802"><path id="path931" d="M 373.44,516 H 486 v 11.52 H 373.44 Z" transform="matrix(1,0,0,-1,0,792)"/></clipPath><g id="g938" clip-path="url(#cp6802)"><text id="text936" font-family="ArialMT" font-size="10.08" transform="translate(0,792)" xml:space="preserve"><tspan id="tspan934" x="446.16 451.684 454.567 457.927 463.451 466.331 471.855 480.735" y="-518.16">4 (0.6%)</tspan></text></g><clipPath id="cp6803"><path id="path940" d="M 373.44,516 H 486 v 11.52 H 373.44 Z" transform="matrix(1,0,0,-1,0,792)"/></clipPath><clipPath id="cp6804"><path id="path951" d="m 69.84,503.76 h 191.28 v 11.52 H 69.84 Z" transform="matrix(1,0,0,-1,0,792)"/></clipPath><g id="g958" clip-path="url(#cp6804)"><text id="text956" font-family="ArialMT" font-size="10.08" transform="translate(0,792)" xml:space="preserve"><tspan id="tspan954" x="72 78.72 85.68 91.203 93.603 96.004 98.404 103.927 109.451 112.092 114.975" y="-505.92">Swelling, n</tspan></text></g><clipPath id="cp6805"><path id="path960" d="m 69.84,503.76 h 191.28 v 11.52 H 69.84 Z" transform="matrix(1,0,0,-1,0,792)"/></clipPath><clipPath id="cp6806"><path id="path969" d="m 69.84,503.76 h 191.28 v 11.52 H 69.84 Z" transform="matrix(1,0,0,-1,0,792)"/></clipPath><g id="g976" clip-path="url(#cp6806)"><text id="text974" font-family="ArialMT" font-size="10.08" transform="translate(0,792)" xml:space="preserve"><tspan id="tspan972" x="123.36 126.72 135.6" y="-505.92">(%)</tspan></text></g><clipPath id="cp6807"><path id="path978" d="m 69.84,503.76 h 191.28 v 11.52 H 69.84 Z" transform="matrix(1,0,0,-1,0,792)"/></clipPath><clipPath id="cp6808"><path id="path989" d="m 261.12,503.76 h 112.32 v 11.52 H 261.12 Z" transform="matrix(1,0,0,-1,0,792)"/></clipPath><g id="g996" clip-path="url(#cp6808)"><text id="text994" font-family="ArialMT" font-size="10.08" transform="translate(0,792)" xml:space="preserve"><tspan id="tspan992" x="322.32 327.844 333.368 338.892" y="-505.92">178</tspan></text></g><clipPath id="cp6809"><path id="path998" d="m 261.12,503.76 h 112.32 v 11.52 H 261.12 Z" transform="matrix(1,0,0,-1,0,792)"/></clipPath><g id="g1005" clip-path="url(#cp6809)"><text id="text1003" font-family="ArialMT" font-size="10.08" transform="translate(0,792)" xml:space="preserve"><tspan id="tspan1001" x="341.76 345.12 350.644 353.524 359.048 367.929" y="-505.92">(5.3%)</tspan></text></g><clipPath id="cp6810"><path id="path1007" d="m 261.12,503.76 h 112.32 v 11.52 H 261.12 Z" transform="matrix(1,0,0,-1,0,792)"/></clipPath><clipPath id="cp6811"><path id="path1018" d="M 373.44,503.76 H 486 v 11.52 H 373.44 Z" transform="matrix(1,0,0,-1,0,792)"/></clipPath><g id="g1025" clip-path="url(#cp6811)"><text id="text1023" font-family="ArialMT" font-size="10.08" transform="translate(0,792)" xml:space="preserve"><tspan id="tspan1021" x="440.4 445.924 451.448 454.331 457.691 463.215 466.095 471.619 480.499" y="-505.92">53 (1.6%)</tspan></text></g><clipPath id="cp6812"><path id="path1027" d="M 373.44,503.76 H 486 v 11.52 H 373.44 Z" transform="matrix(1,0,0,-1,0,792)"/></clipPath><path id="path1038" d="m 69.84,515.28 h 191.28 v 0.48107 H 69.84 Z" transform="matrix(1,0,0,-1,0,792)"/><path id="path1040" d="m 261.12,515.28 h 0.48099 v 0.48107 H 261.12 Z" transform="matrix(1,0,0,-1,0,792)"/><path id="path1042" d="m 261.6,515.28 h 111.839 v 0.48107 H 261.6 Z" transform="matrix(1,0,0,-1,0,792)"/><path id="path1044" d="m 373.44,515.28 h 0.481 v 0.48107 h -0.481 z" transform="matrix(1,0,0,-1,0,792)"/><path id="path1046" d="M 373.92,515.28 H 486 v 0.48107 H 373.92 Z" transform="matrix(1,0,0,-1,0,792)"/></g><g id="g1348" data-name="P" transform="translate(-69.12,-136.69594)"><clipPath id="cp6813"><path id="path1050" d="m 69.84,492 h 191.28 v 11.52 H 69.84 Z" transform="matrix(1,0,0,-1,0,792)"/></clipPath><g id="g1057" clip-path="url(#cp6813)"><text id="text1055" font-family="ArialMT" font-size="10.08" transform="translate(0,792)" xml:space="preserve"><tspan id="tspan1053" x="82.8 91.2 96.724 102.247 104.646 110.17 115.694 118.577 121.217 123.374 132.014 137.293 140.176 143.056 148.58 151.463 156.987 162.511 167.31 172.834 175.713 178.596 181.716 190.116 192.516 198.04 200.68 203.32 211.96 217.24 222.52" y="-494.16">Median time to onset (min, max)</tspan></text></g><clipPath id="cp6814"><path id="path1059" d="m 69.84,492 h 191.28 v 11.52 H 69.84 Z" transform="matrix(1,0,0,-1,0,792)"/></clipPath><clipPath id="cp6815"><path id="path1070" d="m 261.12,492 h 112.32 v 11.52 H 261.12 Z" transform="matrix(1,0,0,-1,0,792)"/></clipPath><g id="g1077" clip-path="url(#cp6815)"><text id="text1075" font-family="ArialMT" font-size="10.08" transform="translate(0,792)" xml:space="preserve"><tspan id="tspan1073" x="331.2 336.724 339.604 345.128 348.01 351.37" y="-494.16">2.0 (1</tspan></text></g><clipPath id="cp6816"><path id="path1079" d="m 261.12,492 h 112.32 v 11.52 H 261.12 Z" transform="matrix(1,0,0,-1,0,792)"/></clipPath><g id="g1086" clip-path="url(#cp6816)"><text id="text1084" font-family="ArialMT" font-size="10.08" transform="translate(0,792)" xml:space="preserve"><tspan id="tspan1082" x="356.88" y="-494.16">,</tspan></text></g><clipPath id="cp6817"><path id="path1088" d="m 261.12,492 h 112.32 v 11.52 H 261.12 Z" transform="matrix(1,0,0,-1,0,792)"/></clipPath><clipPath id="cp6818"><path id="path1097" d="m 261.12,492 h 112.32 v 11.52 H 261.12 Z" transform="matrix(1,0,0,-1,0,792)"/></clipPath><g id="g1104" clip-path="url(#cp6818)"><text id="text1102" font-family="ArialMT" font-size="10.08" transform="translate(0,792)" xml:space="preserve"><tspan id="tspan1100" x="362.64 368.164" y="-494.16">8)</tspan></text></g><clipPath id="cp6819"><path id="path1106" d="m 261.12,492 h 112.32 v 11.52 H 261.12 Z" transform="matrix(1,0,0,-1,0,792)"/></clipPath><clipPath id="cp6820"><path id="path1117" d="M 373.44,492 H 486 v 11.52 H 373.44 Z" transform="matrix(1,0,0,-1,0,792)"/></clipPath><g id="g1124" clip-path="url(#cp6820)"><text id="text1122" font-family="ArialMT" font-size="10.08" transform="translate(0,792)" xml:space="preserve"><tspan id="tspan1120" x="443.76 449.284 452.164 457.688 460.57 463.93" y="-494.16">1.0 (1</tspan></text></g><clipPath id="cp6821"><path id="path1126" d="M 373.44,492 H 486 v 11.52 H 373.44 Z" transform="matrix(1,0,0,-1,0,792)"/></clipPath><g id="g1133" clip-path="url(#cp6821)"><text id="text1131" font-family="ArialMT" font-size="10.08" transform="translate(0,792)" xml:space="preserve"><tspan id="tspan1129" x="469.44" y="-494.16">,</tspan></text></g><clipPath id="cp6822"><path id="path1135" d="M 373.44,492 H 486 v 11.52 H 373.44 Z" transform="matrix(1,0,0,-1,0,792)"/></clipPath><clipPath id="cp6823"><path id="path1144" d="M 373.44,492 H 486 v 11.52 H 373.44 Z" transform="matrix(1,0,0,-1,0,792)"/></clipPath><g id="g1151" clip-path="url(#cp6823)"><text id="text1149" font-family="ArialMT" font-size="10.08" transform="translate(0,792)" xml:space="preserve"><tspan id="tspan1147" x="475.2 480.724" y="-494.16">8)</tspan></text></g><clipPath id="cp6824"><path id="path1153" d="M 373.44,492 H 486 v 11.52 H 373.44 Z" transform="matrix(1,0,0,-1,0,792)"/></clipPath><clipPath id="cp6825"><path id="path1164" d="m 69.84,480.24 h 191.28 v 11.51999 H 69.84 Z" transform="matrix(1,0,0,-1,0,792)"/></clipPath><g id="g1171" clip-path="url(#cp6825)"><text id="text1169" font-family="ArialMT" font-size="10.08" transform="translate(0,792)" xml:space="preserve"><tspan id="tspan1167" x="82.8 91.2 96.724 102.247 104.646 110.17 115.694 118.577 124.101 129.625 132.984 138.508 141.148 143.547 149.071 154.595 157.478 160.597 168.997 171.397 176.921 179.561 182.201 190.841 196.121 201.401" y="-482.4">Median duration (min, max)</tspan></text></g><clipPath id="cp6826"><path id="path1173" d="m 69.84,480.24 h 191.28 v 11.51999 H 69.84 Z" transform="matrix(1,0,0,-1,0,792)"/></clipPath><clipPath id="cp6827"><path id="path1184" d="m 261.12,480.24 h 112.32 v 11.51999 H 261.12 Z" transform="matrix(1,0,0,-1,0,792)"/></clipPath><g id="g1191" clip-path="url(#cp6827)"><text id="text1189" font-family="ArialMT" font-size="10.08" transform="translate(0,792)" xml:space="preserve"><tspan id="tspan1187" x="325.68 331.204 334.084 339.608 342.49 345.85" y="-482.4">3.0 (1</tspan></text></g><clipPath id="cp6828"><path id="path1193" d="m 261.12,480.24 h 112.32 v 11.51999 H 261.12 Z" transform="matrix(1,0,0,-1,0,792)"/></clipPath><g id="g1200" clip-path="url(#cp6828)"><text id="text1198" font-family="ArialMT" font-size="10.08" transform="translate(0,792)" xml:space="preserve"><tspan id="tspan1196" x="351.36" y="-482.4">,</tspan></text></g><clipPath id="cp6829"><path id="path1202" d="m 261.12,480.24 h 112.32 v 11.51999 H 261.12 Z" transform="matrix(1,0,0,-1,0,792)"/></clipPath><clipPath id="cp6830"><path id="path1211" d="m 261.12,480.24 h 112.32 v 11.51999 H 261.12 Z" transform="matrix(1,0,0,-1,0,792)"/></clipPath><g id="g1218" clip-path="url(#cp6830)"><text id="text1216" font-family="ArialMT" font-size="10.08" transform="translate(0,792)" xml:space="preserve"><tspan id="tspan1214" x="357.12 362.644 368.168" y="-482.4">14)</tspan></text></g><clipPath id="cp6831"><path id="path1220" d="m 261.12,480.24 h 112.32 v 11.51999 H 261.12 Z" transform="matrix(1,0,0,-1,0,792)"/></clipPath><clipPath id="cp6832"><path id="path1231" d="M 373.44,480.24 H 486 v 11.51999 H 373.44 Z" transform="matrix(1,0,0,-1,0,792)"/></clipPath><g id="g1238" clip-path="url(#cp6832)"><text id="text1236" font-family="ArialMT" font-size="10.08" transform="translate(0,792)" xml:space="preserve"><tspan id="tspan1234" x="438.24 443.764 446.644 452.168 455.05 458.41" y="-482.4">1.0 (1</tspan></text></g><clipPath id="cp6833"><path id="path1240" d="M 373.44,480.24 H 486 v 11.51999 H 373.44 Z" transform="matrix(1,0,0,-1,0,792)"/></clipPath><g id="g1247" clip-path="url(#cp6833)"><text id="text1245" font-family="ArialMT" font-size="10.08" transform="translate(0,792)" xml:space="preserve"><tspan id="tspan1243" x="463.92" y="-482.4">,</tspan></text></g><clipPath id="cp6834"><path id="path1249" d="M 373.44,480.24 H 486 v 11.51999 H 373.44 Z" transform="matrix(1,0,0,-1,0,792)"/></clipPath><clipPath id="cp6835"><path id="path1258" d="M 373.44,480.24 H 486 v 11.51999 H 373.44 Z" transform="matrix(1,0,0,-1,0,792)"/></clipPath><g id="g1265" clip-path="url(#cp6835)"><text id="text1263" font-family="ArialMT" font-size="10.08" transform="translate(0,792)" xml:space="preserve"><tspan id="tspan1261" x="469.68 475.204 480.728" y="-482.4">19)</tspan></text></g><clipPath id="cp6836"><path id="path1267" d="M 373.44,480.24 H 486 v 11.51999 H 373.44 Z" transform="matrix(1,0,0,-1,0,792)"/></clipPath><clipPath id="cp6837"><path id="path1278" d="M 69.84,468.48 H 261.12 V 480 H 69.84 Z" transform="matrix(1,0,0,-1,0,792)"/></clipPath><g id="g1285" clip-path="url(#cp6837)"><text id="text1283" font-family="ArialMT" font-size="10.08" transform="translate(0,792)" xml:space="preserve"><tspan id="tspan1281" x="82.8 88.8 94.323 97.206 102.73 108.254 113.294 118.094 120.977 126.501 132.025 135.384 140.908 143.789 146.188 151.712" y="-470.64">&gt;7 days duration</tspan></text></g><clipPath id="cp6838"><path id="path1287" d="M 69.84,468.48 H 261.12 V 480 H 69.84 Z" transform="matrix(1,0,0,-1,0,792)"/></clipPath><clipPath id="cp6839"><path id="path1298" d="M 261.12,468.48 H 373.44 V 480 H 261.12 Z" transform="matrix(1,0,0,-1,0,792)"/></clipPath><g id="g1305" clip-path="url(#cp6839)"><text id="text1303" font-family="ArialMT" font-size="10.08" transform="translate(0,792)" xml:space="preserve"><tspan id="tspan1301" x="333.6 339.124 342.007 345.367 350.891 353.771 359.295 368.175" y="-470.64">9 (0.5%)</tspan></text></g><clipPath id="cp6840"><path id="path1307" d="M 261.12,468.48 H 373.44 V 480 H 261.12 Z" transform="matrix(1,0,0,-1,0,792)"/></clipPath><clipPath id="cp6841"><path id="path1318" d="M 373.44,468.48 H 486 V 480 H 373.44 Z" transform="matrix(1,0,0,-1,0,792)"/></clipPath><g id="g1325" clip-path="url(#cp6841)"><text id="text1323" font-family="ArialMT" font-size="10.08" transform="translate(0,792)" xml:space="preserve"><tspan id="tspan1321" x="446.16 451.684 454.567 457.927 463.451 466.331 471.855 480.735" y="-470.64">2 (0.3%)</tspan></text></g><clipPath id="cp6842"><path id="path1327" d="M 373.44,468.48 H 486 V 480 H 373.44 Z" transform="matrix(1,0,0,-1,0,792)"/></clipPath><path id="path1338" d="m 69.12,467.76 h 192 v 0.481 h -192 z" transform="matrix(1,0,0,-1,0,792)"/><path id="path1340" d="m 260.4,467.76 h 0.48099 v 0.481 H 260.4 Z" transform="matrix(1,0,0,-1,0,792)"/><path id="path1342" d="m 260.88,467.76 h 112.559 v 0.481 H 260.88 Z" transform="matrix(1,0,0,-1,0,792)"/><path id="path1344" d="m 372.72,467.76 h 0.481 v 0.481 h -0.481 z" transform="matrix(1,0,0,-1,0,792)"/><path id="path1346" d="M 373.2,467.76 H 486 v 0.481 H 373.2 Z" transform="matrix(1,0,0,-1,0,792)"/></g><text id="text1360" x="-69.12" y="655.304" font-family="ArialMT" font-size="7.92" xml:space="preserve"><tspan id="tspan1358" x="2.88 8.4 12.48 16.796 19.436 23.756 28.073 30.233 32.398 37.918 42.478 46.794 51.11 55.43 59.51 62.39 64.552 69.593 73.909 78.225 80.145 84.462 86.624 91.664 96.947 101.747 107.267 112.55 117.832 124.073 128.633 132.953 139.193 144.953 149.512 154.081" y="194.984">Source: Sponsor Table TSFAESOLLOC25</tspan></text><text id="text1364" x="-69.12" y="655.304" font-family="ArialMT" font-size="5.04" xml:space="preserve"><tspan id="tspan1362" x="2.88" y="201.224">a</tspan></text><text id="text1372" x="-69.12" y="655.304" font-family="ArialMT" font-size="7.92" xml:space="preserve"><tspan id="tspan1366" x="5.76 7.922 13.442 17.522 19.922 24.238 26.638 30.478 32.64 36.721 41.037 45.354 49.673 53.99 56.163 58.325 60.725 66.005 70.565 74.885 79.205 83.283 85.443 87.843 91.922 94.321 96.721 101.521 106.081 107.761 109.449 112.086 117.606 122.167 126.483 128.403 132.003 136.324 138.003 142.083 144.245 149.765 154.081 156.241 158.403 161.044 165.123 167.764 170.171 174.492 179.054 183.373 185.29 188.889 193.21 194.89 198.969 201.37 205.449 207.849 210.011 214.332 218.411 220.328 222.008 226.094 227.773 230.173 234.49 238.806 241.206 245.765 250.082 254.398 256.798 261.114 265.431 269.751 274.068 275.747 277.428 281.508 283.427 285.828 290.144 294.461 296.621 302.141 307.421 311.501 313.69" y="204.344">Safety subset: Subset of Full-Analysis Set for analysis of solicited and unsolicited AEs </tspan><tspan id="tspan1368" x="2.893 7.209 9.372 13.933 16.096 20.416 24.978 31.698 36.26 40.34 42.976 45.138 49.217 51.617 53.779 58.341 62.42 65.3 67.461 69.141 73.22 75.137 79.699 84.018 88.339 90.498 94.583 96.745 102.265 103.945 106.345 110.668 112.585 116.665 121.225 125.304 129.623 131.303 133.704 135.623 139.702 144.027 145.944 148.824 153.386 157.465 161.546 163.945 165.862 170.182 174.744" y="213.468">n = number of participants with specified reaction </tspan><tspan id="tspan1370" x="2.901 8.659 10.821 15.383 17.783 22.099 26.658 33.139 37.699 42.015 44.663 46.825 50.904 53.304 55.466 60.028 63.867 68.429 72.509 76.829 81.149 85.711 87.629 92.191 96.511 99.15 101.551 103.231 107.31 108.99 113.552 117.872 122.434 124.592 128.67 130.833 136.353 140.912 145.231 147.148 151.228 155.545 160.105 166.825 168.505 170.665 173.064 177.381 181.948 184.11 188.427 192.986 196.83 198.747 203.306 207.623 210.022 214.103 216.02 218.66 222.739 225.619 227.536 229.698 234.258 238.576 240.738 245.055 248.895 253.212 257.771 259.932 262.099 264.261 268.821 272.901 275.54 279.861 284.177 288.494 290.894 295.211 299.771 304.087 308.177 310.339 314.656 317.536 321.617 323.78 328.339 332.418 336.738 341.058 345.377 347.54 351.856 356.418 358.335 362.651 364.811 370.811 373.216" y="222.829">N = number of exposed participants who submitted any data for the event, percentages are based on n/N.</tspan></text></svg>