<svg xmlns="http://www.w3.org/2000/svg" xmlns:svg="http://www.w3.org/2000/svg" id="svg2278" width="567.361" height="426.134" version="1.1" viewBox="0 0 425.521 319.6"><metadata id="metadata2284"/><text id="text37" x="-69.12" y="717.948" font-family="Arial" font-size="10.08" font-weight="bold" xml:space="preserve"><tspan id="tspan35" x="2.87 9.35 14.632 20.872 23.752 29.034 31.91 37.434 42.958 45.841 48.472 54.712 57.592 66.473 71.997 74.871 78.231 85.428 90.952 96.476 102 105.36 107.994 111.355 117.353 120.235 127.916 134.157 139.677 145.197 148.557 151.44 156.96 162.958 169.198 172.073 179.033 185.273 189.113 194.637 197.997 200.876 206.877 213.117 215.757 221.996 225.117 228 234.72 240.721 243.601 246.241 251.764 254.644 258.004 263.528 269.768 272.651 279.61 285.851 291.375 296.899 300.739 306.263 311.787 314.67 321.39 326.914 332.438 338.677 342.038 347.562 350.442 353.081 359.802 365.326 368.685 374.209 377.569 383.093 385.976 392.456 398.695 404.936 410.46 415.984" y="7.304">Table 27. Time (Days) to Onset and Duration of Solicited Adverse Events, Safety Subset</tspan></text><text id="text41" x="-69.12" y="717.948" font-family="Arial" font-size="6.48" font-weight="bold" xml:space="preserve"><tspan id="tspan39" x="419.28" y="3.708">a</tspan></text><text id="text47" x="-69.12" y="717.948" font-family="Arial" font-size="10.08" font-weight="bold" xml:space="preserve"><tspan id="tspan43" x="422.88 425.521" y="7.308">, </tspan><tspan id="tspan45" x="2.877 9.6 12.957 19.197 25.437 30.718 33.6 39.124 44.648 50.172 55.696" y="18.83">Study 3001</tspan></text><g id="g166" data-name="P" transform="translate(-69.12,-74.051589)"><clipPath id="cp7013"><path id="path49" d="m 69.84,673.44 h 189.12 v 23.04 H 69.84 Z" transform="matrix(1,0,0,-1,0,792)"/></clipPath><g id="g56" clip-path="url(#cp7013)"><text id="text54" font-family="Arial" font-size="10.08" font-weight="bold" transform="translate(0,792)" xml:space="preserve"><tspan id="tspan52" x="72 78.96 85.2 90.724 96.247 100.088 105.612 111.136 114.018 121.216 126.739 132.5 138.024 141.384 144.264 150.503" y="-675.6">Adverse Reaction</tspan></text></g><clipPath id="cp7014"><path id="path58" d="m 69.84,673.44 h 189.12 v 23.04 H 69.84 Z" transform="matrix(1,0,0,-1,0,792)"/></clipPath><clipPath id="cp7015"><path id="path69" d="m 258.96,673.44 h 115.681 v 23.04 H 258.96 Z" transform="matrix(1,0,0,-1,0,792)"/></clipPath><g id="g76" clip-path="url(#cp7015)"><text id="text74" font-family="Arial" font-size="10.08" font-weight="bold" transform="translate(0,792)" xml:space="preserve"><tspan id="tspan72" x="308.64 315.6 321.84 327.364 332.887 335.768 342.965 350.885 357.606 363.129 366.009" y="-687.12">Ad26.COV2.S</tspan></text></g><clipPath id="cp7016"><path id="path78" d="m 258.96,673.44 h 115.681 v 23.04 H 258.96 Z" transform="matrix(1,0,0,-1,0,792)"/></clipPath><clipPath id="cp7017"><path id="path87" d="m 258.96,673.44 h 115.681 v 23.04 H 258.96 Z" transform="matrix(1,0,0,-1,0,792)"/></clipPath><g id="g94" clip-path="url(#cp7017)"><text id="text92" font-family="Arial" font-size="10.08" font-weight="bold" transform="translate(0,792)" xml:space="preserve"><tspan id="tspan90" x="337.44 344.637 350.637 356.161 361.684 367.208" y="-675.6">N=3356</tspan></text></g><clipPath id="cp7018"><path id="path96" d="m 258.96,673.44 h 115.681 v 23.04 H 258.96 Z" transform="matrix(1,0,0,-1,0,792)"/></clipPath><clipPath id="cp7019"><path id="path107" d="m 374.64,673.44 h 115.92 v 23.04 H 374.64 Z" transform="matrix(1,0,0,-1,0,792)"/></clipPath><g id="g114" clip-path="url(#cp7019)"><text id="text112" font-family="Arial" font-size="10.08" font-weight="bold" transform="translate(0,792)" xml:space="preserve"><tspan id="tspan110" x="450 456.72 459.6 465.124 470.648 476.172 482.412" y="-687.12">Placebo</tspan></text></g><clipPath id="cp7020"><path id="path116" d="m 374.64,673.44 h 115.92 v 23.04 H 374.64 Z" transform="matrix(1,0,0,-1,0,792)"/></clipPath><clipPath id="cp7021"><path id="path127" d="m 374.64,673.44 h 115.92 v 23.04 H 374.64 Z" transform="matrix(1,0,0,-1,0,792)"/></clipPath><clipPath id="cp7022"><path id="path136" d="m 374.64,673.44 h 115.92 v 23.04 H 374.64 Z" transform="matrix(1,0,0,-1,0,792)"/></clipPath><g id="g143" clip-path="url(#cp7022)"><text id="text141" font-family="Arial" font-size="10.08" font-weight="bold" transform="translate(0,792)" xml:space="preserve"><tspan id="tspan139" x="453.12 460.317 466.317 471.841 477.364 482.888" y="-675.6">N=3380</tspan></text></g><clipPath id="cp7023"><path id="path145" d="m 374.64,673.44 h 115.92 v 23.04 H 374.64 Z" transform="matrix(1,0,0,-1,0,792)"/></clipPath><path id="path156" d="m 69.84,696.48 h 189.12 v 0.47999 H 69.84 Z" transform="matrix(1,0,0,-1,0,792)"/><path id="path158" d="m 258.96,696.48 h 0.48099 v 0.47999 H 258.96 Z" transform="matrix(1,0,0,-1,0,792)"/><path id="path160" d="m 259.44,696.48 h 115.2 v 0.47999 h -115.2 z" transform="matrix(1,0,0,-1,0,792)"/><path id="path162" d="m 374.64,696.48 h 0.48004 v 0.47999 H 374.64 Z" transform="matrix(1,0,0,-1,0,792)"/><path id="path164" d="m 375.12,696.48 h 115.44 v 0.47999 H 375.12 Z" transform="matrix(1,0,0,-1,0,792)"/></g><g id="g265" data-name="P" transform="translate(-69.12,-74.051589)"><clipPath id="cp7024"><path id="path168" d="m 69.84,661.2 h 189.12 v 11.52006 H 69.84 Z" transform="matrix(1,0,0,-1,0,792)"/></clipPath><g id="g175" clip-path="url(#cp7024)"><text id="text173" font-family="ArialMT" font-size="10.08" transform="translate(0,792)" xml:space="preserve"><tspan id="tspan171" x="72 78.241 83.764 86.404 88.804 94.328 99.852 105.376 108.256 111.139" y="-663.36">Fatigue, n</tspan></text></g><clipPath id="cp7025"><path id="path177" d="m 69.84,661.2 h 189.12 v 11.52006 H 69.84 Z" transform="matrix(1,0,0,-1,0,792)"/></clipPath><clipPath id="cp7026"><path id="path186" d="m 69.84,661.2 h 189.12 v 11.52006 H 69.84 Z" transform="matrix(1,0,0,-1,0,792)"/></clipPath><g id="g193" clip-path="url(#cp7026)"><text id="text191" font-family="ArialMT" font-size="10.08" transform="translate(0,792)" xml:space="preserve"><tspan id="tspan189" x="119.52 122.88 131.76" y="-663.36">(%)</tspan></text></g><clipPath id="cp7027"><path id="path195" d="m 69.84,661.2 h 189.12 v 11.52006 H 69.84 Z" transform="matrix(1,0,0,-1,0,792)"/></clipPath><clipPath id="cp7028"><path id="path206" d="m 258.96,661.2 h 115.681 v 11.52006 H 258.96 Z" transform="matrix(1,0,0,-1,0,792)"/></clipPath><g id="g213" clip-path="url(#cp7028)"><text id="text211" font-family="ArialMT" font-size="10.08" transform="translate(0,792)" xml:space="preserve"><tspan id="tspan209" x="312.72 318.244 323.768 329.291 334.815" y="-663.36">1283</tspan></text></g><clipPath id="cp7029"><path id="path215" d="m 258.96,661.2 h 115.681 v 11.52006 H 258.96 Z" transform="matrix(1,0,0,-1,0,792)"/></clipPath><g id="g222" clip-path="url(#cp7029)"><text id="text220" font-family="ArialMT" font-size="10.08" transform="translate(0,792)" xml:space="preserve"><tspan id="tspan218" x="337.68 341.04 346.564 352.087 354.967 360.491 369.372" y="-663.36">(38.2%)</tspan></text></g><clipPath id="cp7030"><path id="path224" d="m 258.96,661.2 h 115.681 v 11.52006 H 258.96 Z" transform="matrix(1,0,0,-1,0,792)"/></clipPath><clipPath id="cp7031"><path id="path235" d="m 374.64,661.2 h 115.92 v 11.52006 H 374.64 Z" transform="matrix(1,0,0,-1,0,792)"/></clipPath><g id="g242" clip-path="url(#cp7031)"><text id="text240" font-family="ArialMT" font-size="10.08" transform="translate(0,792)" xml:space="preserve"><tspan id="tspan238" x="433.92 439.444 444.968 450.492 453.374 456.735 462.259 467.783 470.663 476.186 485.067" y="-663.36">728 (21.5%)</tspan></text></g><clipPath id="cp7032"><path id="path244" d="m 374.64,661.2 h 115.92 v 11.52006 H 374.64 Z" transform="matrix(1,0,0,-1,0,792)"/></clipPath><path id="path255" d="m 69.84,672.72 h 189.12 v 0.47998 H 69.84 Z" transform="matrix(1,0,0,-1,0,792)"/><path id="path257" d="m 258.96,672.72 h 0.48099 v 0.47998 H 258.96 Z" transform="matrix(1,0,0,-1,0,792)"/><path id="path259" d="m 259.44,672.72 h 115.2 v 0.47998 h -115.2 z" transform="matrix(1,0,0,-1,0,792)"/><path id="path261" d="m 374.64,672.72 h 0.48004 v 0.47998 H 374.64 Z" transform="matrix(1,0,0,-1,0,792)"/><path id="path263" d="m 375.12,672.72 h 115.44 v 0.47998 H 375.12 Z" transform="matrix(1,0,0,-1,0,792)"/></g><g id="g661" data-name="P" transform="translate(-69.12,-74.051589)"><clipPath id="cp7033"><path id="path267" d="m 69.84,649.44 h 189.12 v 11.52 H 69.84 Z" transform="matrix(1,0,0,-1,0,792)"/></clipPath><g id="g274" clip-path="url(#cp7033)"><text id="text272" font-family="ArialMT" font-size="10.08" transform="translate(0,792)" xml:space="preserve"><tspan id="tspan270" x="82.8 91.2 96.724 102.247 104.646 110.17 115.694 118.577 121.217 123.374 132.014 137.293 140.176 143.056 148.58" y="-651.6">Median time to</tspan></text></g><clipPath id="cp7034"><path id="path276" d="m 69.84,649.44 h 189.12 v 11.52 H 69.84 Z" transform="matrix(1,0,0,-1,0,792)"/></clipPath><g id="g283" clip-path="url(#cp7034)"><text id="text281" font-family="ArialMT" font-size="10.08" transform="translate(0,792)" xml:space="preserve"><tspan id="tspan279" x="151.44 156.964 162.488 167.288 172.812 175.691 178.572 181.692 190.092 192.492 198.016 200.656 203.297 211.936 217.216 222.497" y="-651.6">onset (min, max)</tspan></text></g><clipPath id="cp7035"><path id="path285" d="m 69.84,649.44 h 189.12 v 11.52 H 69.84 Z" transform="matrix(1,0,0,-1,0,792)"/></clipPath><clipPath id="cp7036"><path id="path296" d="m 258.96,649.44 h 115.681 v 11.52 H 258.96 Z" transform="matrix(1,0,0,-1,0,792)"/></clipPath><g id="g303" clip-path="url(#cp7036)"><text id="text301" font-family="ArialMT" font-size="10.08" transform="translate(0,792)" xml:space="preserve"><tspan id="tspan299" x="332.64 338.164 341.044 346.568 349.45 352.81" y="-651.6">2.0 (1</tspan></text></g><clipPath id="cp7037"><path id="path305" d="m 258.96,649.44 h 115.681 v 11.52 H 258.96 Z" transform="matrix(1,0,0,-1,0,792)"/></clipPath><g id="g312" clip-path="url(#cp7037)"><text id="text310" font-family="ArialMT" font-size="10.08" transform="translate(0,792)" xml:space="preserve"><tspan id="tspan308" x="358.32" y="-651.6">,</tspan></text></g><clipPath id="cp7038"><path id="path314" d="m 258.96,649.44 h 115.681 v 11.52 H 258.96 Z" transform="matrix(1,0,0,-1,0,792)"/></clipPath><clipPath id="cp7039"><path id="path323" d="m 258.96,649.44 h 115.681 v 11.52 H 258.96 Z" transform="matrix(1,0,0,-1,0,792)"/></clipPath><g id="g330" clip-path="url(#cp7039)"><text id="text328" font-family="ArialMT" font-size="10.08" transform="translate(0,792)" xml:space="preserve"><tspan id="tspan326" x="364.08 369.604" y="-651.6">8)</tspan></text></g><clipPath id="cp7040"><path id="path332" d="m 258.96,649.44 h 115.681 v 11.52 H 258.96 Z" transform="matrix(1,0,0,-1,0,792)"/></clipPath><clipPath id="cp7041"><path id="path343" d="m 374.64,649.44 h 115.92 v 11.52 H 374.64 Z" transform="matrix(1,0,0,-1,0,792)"/></clipPath><g id="g350" clip-path="url(#cp7041)"><text id="text348" font-family="ArialMT" font-size="10.08" transform="translate(0,792)" xml:space="preserve"><tspan id="tspan346" x="448.32 453.844 456.724 462.248 465.13 468.49" y="-651.6">2.0 (1</tspan></text></g><clipPath id="cp7042"><path id="path352" d="m 374.64,649.44 h 115.92 v 11.52 H 374.64 Z" transform="matrix(1,0,0,-1,0,792)"/></clipPath><g id="g359" clip-path="url(#cp7042)"><text id="text357" font-family="ArialMT" font-size="10.08" transform="translate(0,792)" xml:space="preserve"><tspan id="tspan355" x="474" y="-651.6">,</tspan></text></g><clipPath id="cp7043"><path id="path361" d="m 374.64,649.44 h 115.92 v 11.52 H 374.64 Z" transform="matrix(1,0,0,-1,0,792)"/></clipPath><clipPath id="cp7044"><path id="path370" d="m 374.64,649.44 h 115.92 v 11.52 H 374.64 Z" transform="matrix(1,0,0,-1,0,792)"/></clipPath><g id="g377" clip-path="url(#cp7044)"><text id="text375" font-family="ArialMT" font-size="10.08" transform="translate(0,792)" xml:space="preserve"><tspan id="tspan373" x="479.76 485.284" y="-651.6">8)</tspan></text></g><clipPath id="cp7045"><path id="path379" d="m 374.64,649.44 h 115.92 v 11.52 H 374.64 Z" transform="matrix(1,0,0,-1,0,792)"/></clipPath><clipPath id="cp7046"><path id="path390" d="M 69.84,637.68 H 258.96 V 649.2 H 69.84 Z" transform="matrix(1,0,0,-1,0,792)"/></clipPath><g id="g397" clip-path="url(#cp7046)"><text id="text395" font-family="ArialMT" font-size="10.08" transform="translate(0,792)" xml:space="preserve"><tspan id="tspan393" x="82.8 91.2 96.724 102.247 104.646 110.17 115.694 118.577 124.101 129.625 132.984 138.508 141.148 143.547 149.071 154.595 157.478 160.597 168.997 171.397 176.921 179.561 182.201 190.841 196.121 201.401" y="-639.84">Median duration (min, max)</tspan></text></g><clipPath id="cp7047"><path id="path399" d="M 69.84,637.68 H 258.96 V 649.2 H 69.84 Z" transform="matrix(1,0,0,-1,0,792)"/></clipPath><clipPath id="cp7048"><path id="path410" d="M 258.96,637.68 H 374.641 V 649.2 H 258.96 Z" transform="matrix(1,0,0,-1,0,792)"/></clipPath><g id="g417" clip-path="url(#cp7048)"><text id="text415" font-family="ArialMT" font-size="10.08" transform="translate(0,792)" xml:space="preserve"><tspan id="tspan413" x="321.6 327.124 330.004 335.528 338.41 341.77" y="-639.84">2.0 (1</tspan></text></g><clipPath id="cp7049"><path id="path419" d="M 258.96,637.68 H 374.641 V 649.2 H 258.96 Z" transform="matrix(1,0,0,-1,0,792)"/></clipPath><g id="g426" clip-path="url(#cp7049)"><text id="text424" font-family="ArialMT" font-size="10.08" transform="translate(0,792)" xml:space="preserve"><tspan id="tspan422" x="347.28" y="-639.84">,</tspan></text></g><clipPath id="cp7050"><path id="path428" d="M 258.96,637.68 H 374.641 V 649.2 H 258.96 Z" transform="matrix(1,0,0,-1,0,792)"/></clipPath><clipPath id="cp7051"><path id="path437" d="M 258.96,637.68 H 374.641 V 649.2 H 258.96 Z" transform="matrix(1,0,0,-1,0,792)"/></clipPath><g id="g444" clip-path="url(#cp7051)"><text id="text442" font-family="ArialMT" font-size="10.08" transform="translate(0,792)" xml:space="preserve"><tspan id="tspan440" x="353.04 358.564 364.088 369.612" y="-639.84">113)</tspan></text></g><clipPath id="cp7052"><path id="path446" d="M 258.96,637.68 H 374.641 V 649.2 H 258.96 Z" transform="matrix(1,0,0,-1,0,792)"/></clipPath><clipPath id="cp7053"><path id="path457" d="M 374.64,637.68 H 490.56 V 649.2 H 374.64 Z" transform="matrix(1,0,0,-1,0,792)"/></clipPath><g id="g464" clip-path="url(#cp7053)"><text id="text462" font-family="ArialMT" font-size="10.08" transform="translate(0,792)" xml:space="preserve"><tspan id="tspan460" x="437.28 442.804 445.684 451.208 454.09" y="-639.84">2.0 (</tspan></text></g><clipPath id="cp7054"><path id="path466" d="M 374.64,637.68 H 490.56 V 649.2 H 374.64 Z" transform="matrix(1,0,0,-1,0,792)"/></clipPath><g id="g473" clip-path="url(#cp7054)"><text id="text471" font-family="ArialMT" font-size="10.08" transform="translate(0,792)" xml:space="preserve"><tspan id="tspan469" x="457.44" y="-639.84">1</tspan></text></g><clipPath id="cp7055"><path id="path475" d="M 374.64,637.68 H 490.56 V 649.2 H 374.64 Z" transform="matrix(1,0,0,-1,0,792)"/></clipPath><g id="g482" clip-path="url(#cp7055)"><text id="text480" font-family="ArialMT" font-size="10.08" transform="translate(0,792)" xml:space="preserve"><tspan id="tspan478" x="462.96" y="-639.84">,</tspan></text></g><clipPath id="cp7056"><path id="path484" d="M 374.64,637.68 H 490.56 V 649.2 H 374.64 Z" transform="matrix(1,0,0,-1,0,792)"/></clipPath><clipPath id="cp7057"><path id="path493" d="M 374.64,637.68 H 490.56 V 649.2 H 374.64 Z" transform="matrix(1,0,0,-1,0,792)"/></clipPath><g id="g500" clip-path="url(#cp7057)"><text id="text498" font-family="ArialMT" font-size="10.08" transform="translate(0,792)" xml:space="preserve"><tspan id="tspan496" x="468.72 474.244 479.768 485.291" y="-639.84">110)</tspan></text></g><clipPath id="cp7058"><path id="path502" d="M 374.64,637.68 H 490.56 V 649.2 H 374.64 Z" transform="matrix(1,0,0,-1,0,792)"/></clipPath><clipPath id="cp7059"><path id="path513" d="m 69.84,625.92 h 189.12 v 11.52 H 69.84 Z" transform="matrix(1,0,0,-1,0,792)"/></clipPath><g id="g520" clip-path="url(#cp7059)"><text id="text518" font-family="ArialMT" font-size="10.08" transform="translate(0,792)" xml:space="preserve"><tspan id="tspan516" x="82.8 88.8 94.323 97.206 102.73 108.254 113.294 118.094 120.977 126.501 132.025 135.384 140.908 143.789 146.188 151.712" y="-628.08">&gt;7 days duration</tspan></text></g><clipPath id="cp7060"><path id="path522" d="m 69.84,625.92 h 189.12 v 11.52 H 69.84 Z" transform="matrix(1,0,0,-1,0,792)"/></clipPath><clipPath id="cp7061"><path id="path533" d="m 258.96,625.92 h 115.681 v 11.52 H 258.96 Z" transform="matrix(1,0,0,-1,0,792)"/></clipPath><g id="g540" clip-path="url(#cp7061)"><text id="text538" font-family="ArialMT" font-size="10.08" transform="translate(0,792)" xml:space="preserve"><tspan id="tspan536" x="329.28 334.804 340.328 343.211 346.571 352.095 354.975 360.499 369.379" y="-628.08">29 (1.6%)</tspan></text></g><clipPath id="cp7062"><path id="path542" d="m 258.96,625.92 h 115.681 v 11.52 H 258.96 Z" transform="matrix(1,0,0,-1,0,792)"/></clipPath><clipPath id="cp7063"><path id="path553" d="m 374.64,625.92 h 115.92 v 11.52 H 374.64 Z" transform="matrix(1,0,0,-1,0,792)"/></clipPath><g id="g560" clip-path="url(#cp7063)"><text id="text558" font-family="ArialMT" font-size="10.08" transform="translate(0,792)" xml:space="preserve"><tspan id="tspan556" x="444.96 450.484 456.008 458.891 462.251 467.775 470.655 476.179 485.059" y="-628.08">25 (2.1%)</tspan></text></g><clipPath id="cp7064"><path id="path562" d="m 374.64,625.92 h 115.92 v 11.52 H 374.64 Z" transform="matrix(1,0,0,-1,0,792)"/></clipPath><clipPath id="cp7065"><path id="path573" d="M 69.84,613.68 H 258.96 V 625.2 H 69.84 Z" transform="matrix(1,0,0,-1,0,792)"/></clipPath><g id="g580" clip-path="url(#cp7065)"><text id="text578" font-family="ArialMT" font-size="10.08" transform="translate(0,792)" xml:space="preserve"><tspan id="tspan576" x="72 79.197 84.721 90.245 95.769 101.292 106.332 111.856 117.38 120.26 123.143" y="-615.84">Headache, n</tspan></text></g><clipPath id="cp7066"><path id="path582" d="M 69.84,613.68 H 258.96 V 625.2 H 69.84 Z" transform="matrix(1,0,0,-1,0,792)"/></clipPath><clipPath id="cp7067"><path id="path591" d="M 69.84,613.68 H 258.96 V 625.2 H 69.84 Z" transform="matrix(1,0,0,-1,0,792)"/></clipPath><g id="g598" clip-path="url(#cp7067)"><text id="text596" font-family="ArialMT" font-size="10.08" transform="translate(0,792)" xml:space="preserve"><tspan id="tspan594" x="131.52 134.88 143.76" y="-615.84">(%)</tspan></text></g><clipPath id="cp7068"><path id="path600" d="M 69.84,613.68 H 258.96 V 625.2 H 69.84 Z" transform="matrix(1,0,0,-1,0,792)"/></clipPath><clipPath id="cp7069"><path id="path611" d="M 258.96,613.68 H 374.641 V 625.2 H 258.96 Z" transform="matrix(1,0,0,-1,0,792)"/></clipPath><g id="g618" clip-path="url(#cp7069)"><text id="text616" font-family="ArialMT" font-size="10.08" transform="translate(0,792)" xml:space="preserve"><tspan id="tspan614" x="312.72 318.244 323.768 329.291 334.815 337.698 341.058 346.582 352.106 354.985 360.509 369.39" y="-615.84">1306 (38.9%)</tspan></text></g><clipPath id="cp7070"><path id="path620" d="M 258.96,613.68 H 374.641 V 625.2 H 258.96 Z" transform="matrix(1,0,0,-1,0,792)"/></clipPath><clipPath id="cp7071"><path id="path631" d="M 374.64,613.68 H 490.56 V 625.2 H 374.64 Z" transform="matrix(1,0,0,-1,0,792)"/></clipPath><g id="g638" clip-path="url(#cp7071)"><text id="text636" font-family="ArialMT" font-size="10.08" transform="translate(0,792)" xml:space="preserve"><tspan id="tspan634" x="433.92 439.444 444.968 450.492 453.374 456.735 462.259 467.783 470.663 476.186 485.067" y="-615.84">802 (23.7%)</tspan></text></g><clipPath id="cp7072"><path id="path640" d="M 374.64,613.68 H 490.56 V 625.2 H 374.64 Z" transform="matrix(1,0,0,-1,0,792)"/></clipPath><path id="path651" d="m 69.84,625.2 h 189.12 v 0.48 H 69.84 Z" transform="matrix(1,0,0,-1,0,792)"/><path id="path653" d="m 258.96,625.2 h 0.48099 v 0.48 H 258.96 Z" transform="matrix(1,0,0,-1,0,792)"/><path id="path655" d="m 259.44,625.2 h 115.2 v 0.48 h -115.2 z" transform="matrix(1,0,0,-1,0,792)"/><path id="path657" d="m 374.64,625.2 h 0.48004 v 0.48 H 374.64 Z" transform="matrix(1,0,0,-1,0,792)"/><path id="path659" d="m 375.12,625.2 h 115.44 v 0.48 H 375.12 Z" transform="matrix(1,0,0,-1,0,792)"/></g><g id="g1057" data-name="P" transform="translate(-69.12,-74.051589)"><clipPath id="cp7073"><path id="path663" d="m 69.84,601.92 h 189.12 v 11.52 H 69.84 Z" transform="matrix(1,0,0,-1,0,792)"/></clipPath><g id="g670" clip-path="url(#cp7073)"><text id="text668" font-family="ArialMT" font-size="10.08" transform="translate(0,792)" xml:space="preserve"><tspan id="tspan666" x="82.8 91.2 96.724 102.247 104.646 110.17 115.694 118.577 121.217 123.374 132.014 137.293 140.176 143.056 148.58 151.463 156.987 162.511 167.31 172.834 175.713 178.596 181.716 190.116 192.516 198.04 200.68 203.32 211.96 217.24 222.52" y="-604.08">Median time to onset (min, max)</tspan></text></g><clipPath id="cp7074"><path id="path672" d="m 69.84,601.92 h 189.12 v 11.52 H 69.84 Z" transform="matrix(1,0,0,-1,0,792)"/></clipPath><clipPath id="cp7075"><path id="path683" d="m 258.96,601.92 h 115.681 v 11.52 H 258.96 Z" transform="matrix(1,0,0,-1,0,792)"/></clipPath><g id="g690" clip-path="url(#cp7075)"><text id="text688" font-family="ArialMT" font-size="10.08" transform="translate(0,792)" xml:space="preserve"><tspan id="tspan686" x="332.64 338.164 341.044 346.568 349.45 352.81" y="-604.08">2.0 (1</tspan></text></g><clipPath id="cp7076"><path id="path692" d="m 258.96,601.92 h 115.681 v 11.52 H 258.96 Z" transform="matrix(1,0,0,-1,0,792)"/></clipPath><g id="g699" clip-path="url(#cp7076)"><text id="text697" font-family="ArialMT" font-size="10.08" transform="translate(0,792)" xml:space="preserve"><tspan id="tspan695" x="358.32" y="-604.08">,</tspan></text></g><clipPath id="cp7077"><path id="path701" d="m 258.96,601.92 h 115.681 v 11.52 H 258.96 Z" transform="matrix(1,0,0,-1,0,792)"/></clipPath><clipPath id="cp7078"><path id="path710" d="m 258.96,601.92 h 115.681 v 11.52 H 258.96 Z" transform="matrix(1,0,0,-1,0,792)"/></clipPath><g id="g717" clip-path="url(#cp7078)"><text id="text715" font-family="ArialMT" font-size="10.08" transform="translate(0,792)" xml:space="preserve"><tspan id="tspan713" x="364.08 369.604" y="-604.08">8)</tspan></text></g><clipPath id="cp7079"><path id="path719" d="m 258.96,601.92 h 115.681 v 11.52 H 258.96 Z" transform="matrix(1,0,0,-1,0,792)"/></clipPath><clipPath id="cp7080"><path id="path730" d="m 374.64,601.92 h 115.92 v 11.52 H 374.64 Z" transform="matrix(1,0,0,-1,0,792)"/></clipPath><g id="g737" clip-path="url(#cp7080)"><text id="text735" font-family="ArialMT" font-size="10.08" transform="translate(0,792)" xml:space="preserve"><tspan id="tspan733" x="448.32 453.844 456.724 462.248 465.13 468.49" y="-604.08">2.0 (1</tspan></text></g><clipPath id="cp7081"><path id="path739" d="m 374.64,601.92 h 115.92 v 11.52 H 374.64 Z" transform="matrix(1,0,0,-1,0,792)"/></clipPath><g id="g746" clip-path="url(#cp7081)"><text id="text744" font-family="ArialMT" font-size="10.08" transform="translate(0,792)" xml:space="preserve"><tspan id="tspan742" x="474" y="-604.08">,</tspan></text></g><clipPath id="cp7082"><path id="path748" d="m 374.64,601.92 h 115.92 v 11.52 H 374.64 Z" transform="matrix(1,0,0,-1,0,792)"/></clipPath><clipPath id="cp7083"><path id="path757" d="m 374.64,601.92 h 115.92 v 11.52 H 374.64 Z" transform="matrix(1,0,0,-1,0,792)"/></clipPath><g id="g764" clip-path="url(#cp7083)"><text id="text762" font-family="ArialMT" font-size="10.08" transform="translate(0,792)" xml:space="preserve"><tspan id="tspan760" x="479.76 485.284" y="-604.08">8)</tspan></text></g><clipPath id="cp7084"><path id="path766" d="m 374.64,601.92 h 115.92 v 11.52 H 374.64 Z" transform="matrix(1,0,0,-1,0,792)"/></clipPath><clipPath id="cp7085"><path id="path777" d="m 69.84,590.16 h 189.12 v 11.52 H 69.84 Z" transform="matrix(1,0,0,-1,0,792)"/></clipPath><g id="g784" clip-path="url(#cp7085)"><text id="text782" font-family="ArialMT" font-size="10.08" transform="translate(0,792)" xml:space="preserve"><tspan id="tspan780" x="82.8 91.2 96.724 102.247 104.646 110.17 115.694 118.577 124.101 129.625 132.984 138.508 141.148 143.547 149.071 154.595 157.478 160.597 168.997 171.397 176.921 179.561" y="-592.32">Median duration (min,</tspan></text></g><clipPath id="cp7086"><path id="path786" d="m 69.84,590.16 h 189.12 v 11.52 H 69.84 Z" transform="matrix(1,0,0,-1,0,792)"/></clipPath><g id="g793" clip-path="url(#cp7086)"><text id="text791" font-family="ArialMT" font-size="10.08" transform="translate(0,792)" xml:space="preserve"><tspan id="tspan789" x="182.16 190.799 196.078 201.36" y="-592.32">max)</tspan></text></g><clipPath id="cp7087"><path id="path795" d="m 69.84,590.16 h 189.12 v 11.52 H 69.84 Z" transform="matrix(1,0,0,-1,0,792)"/></clipPath><clipPath id="cp7088"><path id="path806" d="m 258.96,590.16 h 115.681 v 11.52 H 258.96 Z" transform="matrix(1,0,0,-1,0,792)"/></clipPath><g id="g813" clip-path="url(#cp7088)"><text id="text811" font-family="ArialMT" font-size="10.08" transform="translate(0,792)" xml:space="preserve"><tspan id="tspan809" x="327.12 332.644 335.524 341.048 343.93 347.29" y="-592.32">2.0 (1</tspan></text></g><clipPath id="cp7089"><path id="path815" d="m 258.96,590.16 h 115.681 v 11.52 H 258.96 Z" transform="matrix(1,0,0,-1,0,792)"/></clipPath><g id="g822" clip-path="url(#cp7089)"><text id="text820" font-family="ArialMT" font-size="10.08" transform="translate(0,792)" xml:space="preserve"><tspan id="tspan818" x="352.8" y="-592.32">,</tspan></text></g><clipPath id="cp7090"><path id="path824" d="m 258.96,590.16 h 115.681 v 11.52 H 258.96 Z" transform="matrix(1,0,0,-1,0,792)"/></clipPath><clipPath id="cp7091"><path id="path833" d="m 258.96,590.16 h 115.681 v 11.52 H 258.96 Z" transform="matrix(1,0,0,-1,0,792)"/></clipPath><g id="g840" clip-path="url(#cp7091)"><text id="text838" font-family="ArialMT" font-size="10.08" transform="translate(0,792)" xml:space="preserve"><tspan id="tspan836" x="358.56 364.084 369.608" y="-592.32">68)</tspan></text></g><clipPath id="cp7092"><path id="path842" d="m 258.96,590.16 h 115.681 v 11.52 H 258.96 Z" transform="matrix(1,0,0,-1,0,792)"/></clipPath><clipPath id="cp7093"><path id="path853" d="m 374.64,590.16 h 115.92 v 11.52 H 374.64 Z" transform="matrix(1,0,0,-1,0,792)"/></clipPath><g id="g860" clip-path="url(#cp7093)"><text id="text858" font-family="ArialMT" font-size="10.08" transform="translate(0,792)" xml:space="preserve"><tspan id="tspan856" x="442.8 448.324 451.204 456.728 459.61 462.97" y="-592.32">1.0 (1</tspan></text></g><clipPath id="cp7094"><path id="path862" d="m 374.64,590.16 h 115.92 v 11.52 H 374.64 Z" transform="matrix(1,0,0,-1,0,792)"/></clipPath><g id="g869" clip-path="url(#cp7094)"><text id="text867" font-family="ArialMT" font-size="10.08" transform="translate(0,792)" xml:space="preserve"><tspan id="tspan865" x="468.48" y="-592.32">,</tspan></text></g><clipPath id="cp7095"><path id="path871" d="m 374.64,590.16 h 115.92 v 11.52 H 374.64 Z" transform="matrix(1,0,0,-1,0,792)"/></clipPath><clipPath id="cp7096"><path id="path880" d="m 374.64,590.16 h 115.92 v 11.52 H 374.64 Z" transform="matrix(1,0,0,-1,0,792)"/></clipPath><g id="g887" clip-path="url(#cp7096)"><text id="text885" font-family="ArialMT" font-size="10.08" transform="translate(0,792)" xml:space="preserve"><tspan id="tspan883" x="474.24 479.764 485.288" y="-592.32">62)</tspan></text></g><clipPath id="cp7097"><path id="path889" d="m 374.64,590.16 h 115.92 v 11.52 H 374.64 Z" transform="matrix(1,0,0,-1,0,792)"/></clipPath><clipPath id="cp7098"><path id="path900" d="m 69.84,578.4 h 189.12 v 11.52007 H 69.84 Z" transform="matrix(1,0,0,-1,0,792)"/></clipPath><g id="g907" clip-path="url(#cp7098)"><text id="text905" font-family="ArialMT" font-size="10.08" transform="translate(0,792)" xml:space="preserve"><tspan id="tspan903" x="82.8 88.8 94.323 97.206 102.73 108.254 113.294 118.094 120.977 126.501 132.025 135.384 140.908 143.789 146.188 151.712" y="-580.56">&gt;7 days duration</tspan></text></g><clipPath id="cp7099"><path id="path909" d="m 69.84,578.4 h 189.12 v 11.52007 H 69.84 Z" transform="matrix(1,0,0,-1,0,792)"/></clipPath><clipPath id="cp7100"><path id="path920" d="m 258.96,578.4 h 115.681 v 11.52007 H 258.96 Z" transform="matrix(1,0,0,-1,0,792)"/></clipPath><g id="g927" clip-path="url(#cp7100)"><text id="text925" font-family="ArialMT" font-size="10.08" transform="translate(0,792)" xml:space="preserve"><tspan id="tspan923" x="329.28 334.804 340.328 343.211 346.571 352.095 354.975 360.499 369.379" y="-580.56">13 (0.7%)</tspan></text></g><clipPath id="cp7101"><path id="path929" d="m 258.96,578.4 h 115.681 v 11.52007 H 258.96 Z" transform="matrix(1,0,0,-1,0,792)"/></clipPath><clipPath id="cp7102"><path id="path940" d="m 374.64,578.4 h 115.92 v 11.52007 H 374.64 Z" transform="matrix(1,0,0,-1,0,792)"/></clipPath><g id="g947" clip-path="url(#cp7102)"><text id="text945" font-family="ArialMT" font-size="10.08" transform="translate(0,792)" xml:space="preserve"><tspan id="tspan943" x="450.72 456.244 459.127 462.487 468.011 470.891 476.415 485.295" y="-580.56">8 (0.7%)</tspan></text></g><clipPath id="cp7103"><path id="path949" d="m 374.64,578.4 h 115.92 v 11.52007 H 374.64 Z" transform="matrix(1,0,0,-1,0,792)"/></clipPath><clipPath id="cp7104"><path id="path960" d="m 69.84,566.16 h 189.12 v 11.52 H 69.84 Z" transform="matrix(1,0,0,-1,0,792)"/></clipPath><g id="g967" clip-path="url(#cp7104)"><text id="text965" font-family="ArialMT" font-size="10.08" transform="translate(0,792)" xml:space="preserve"><tspan id="tspan963" x="72 80.4 85.44 90.964 93.364 98.643 101.044 106.567 109.448 112.331" y="-568.32">Myalgia, n</tspan></text></g><clipPath id="cp7105"><path id="path969" d="m 69.84,566.16 h 189.12 v 11.52 H 69.84 Z" transform="matrix(1,0,0,-1,0,792)"/></clipPath><clipPath id="cp7106"><path id="path978" d="m 69.84,566.16 h 189.12 v 11.52 H 69.84 Z" transform="matrix(1,0,0,-1,0,792)"/></clipPath><g id="g985" clip-path="url(#cp7106)"><text id="text983" font-family="ArialMT" font-size="10.08" transform="translate(0,792)" xml:space="preserve"><tspan id="tspan981" x="120.48 123.84 132.72" y="-568.32">(%)</tspan></text></g><clipPath id="cp7107"><path id="path987" d="m 69.84,566.16 h 189.12 v 11.52 H 69.84 Z" transform="matrix(1,0,0,-1,0,792)"/></clipPath><clipPath id="cp7108"><path id="path998" d="m 258.96,566.16 h 115.681 v 11.52 H 258.96 Z" transform="matrix(1,0,0,-1,0,792)"/></clipPath><g id="g1005" clip-path="url(#cp7108)"><text id="text1003" font-family="ArialMT" font-size="10.08" transform="translate(0,792)" xml:space="preserve"><tspan id="tspan1001" x="312.72 318.244 323.768 329.291 334.815 337.698 341.058 346.582 352.106 354.985" y="-568.32">1113 (33.2</tspan></text></g><clipPath id="cp7109"><path id="path1007" d="m 258.96,566.16 h 115.681 v 11.52 H 258.96 Z" transform="matrix(1,0,0,-1,0,792)"/></clipPath><g id="g1014" clip-path="url(#cp7109)"><text id="text1012" font-family="ArialMT" font-size="10.08" transform="translate(0,792)" xml:space="preserve"><tspan id="tspan1010" x="360.48 369.361" y="-568.32">%)</tspan></text></g><clipPath id="cp7110"><path id="path1016" d="m 258.96,566.16 h 115.681 v 11.52 H 258.96 Z" transform="matrix(1,0,0,-1,0,792)"/></clipPath><clipPath id="cp7111"><path id="path1027" d="m 374.64,566.16 h 115.92 v 11.52 H 374.64 Z" transform="matrix(1,0,0,-1,0,792)"/></clipPath><g id="g1034" clip-path="url(#cp7111)"><text id="text1032" font-family="ArialMT" font-size="10.08" transform="translate(0,792)" xml:space="preserve"><tspan id="tspan1030" x="433.92 439.444 444.968 450.492 453.374 456.735 462.259 467.783 470.663 476.186 485.067" y="-568.32">430 (12.7%)</tspan></text></g><clipPath id="cp7112"><path id="path1036" d="m 374.64,566.16 h 115.92 v 11.52 H 374.64 Z" transform="matrix(1,0,0,-1,0,792)"/></clipPath><path id="path1047" d="m 69.84,577.68 h 189.12 v 0.48 H 69.84 Z" transform="matrix(1,0,0,-1,0,792)"/><path id="path1049" d="m 258.96,577.68 h 0.48099 v 0.48 H 258.96 Z" transform="matrix(1,0,0,-1,0,792)"/><path id="path1051" d="m 259.44,577.68 h 115.2 v 0.48 h -115.2 z" transform="matrix(1,0,0,-1,0,792)"/><path id="path1053" d="m 374.64,577.68 h 0.48004 v 0.48 H 374.64 Z" transform="matrix(1,0,0,-1,0,792)"/><path id="path1055" d="m 375.12,577.68 h 115.44 v 0.48 H 375.12 Z" transform="matrix(1,0,0,-1,0,792)"/></g><g id="g1444" data-name="P" transform="translate(-69.12,-74.051589)"><clipPath id="cp7113"><path id="path1059" d="m 69.84,554.4 h 189.12 v 11.52007 H 69.84 Z" transform="matrix(1,0,0,-1,0,792)"/></clipPath><g id="g1066" clip-path="url(#cp7113)"><text id="text1064" font-family="ArialMT" font-size="10.08" transform="translate(0,792)" xml:space="preserve"><tspan id="tspan1062" x="82.8 91.2 96.724 102.247 104.646 110.17 115.694 118.577 121.217 123.374 132.014 137.293 140.176 143.056 148.58 151.463 156.987 162.511 167.31 172.834 175.713 178.596 181.716 190.116 192.516 198.04 200.68 203.32 211.96 217.24 222.52" y="-556.56">Median time to onset (min, max)</tspan></text></g><clipPath id="cp7114"><path id="path1068" d="m 69.84,554.4 h 189.12 v 11.52007 H 69.84 Z" transform="matrix(1,0,0,-1,0,792)"/></clipPath><clipPath id="cp7115"><path id="path1079" d="m 258.96,554.4 h 115.681 v 11.52007 H 258.96 Z" transform="matrix(1,0,0,-1,0,792)"/></clipPath><g id="g1086" clip-path="url(#cp7115)"><text id="text1084" font-family="ArialMT" font-size="10.08" transform="translate(0,792)" xml:space="preserve"><tspan id="tspan1082" x="332.64 338.164 341.044 346.568 349.45 352.81" y="-556.56">2.0 (1</tspan></text></g><clipPath id="cp7116"><path id="path1088" d="m 258.96,554.4 h 115.681 v 11.52007 H 258.96 Z" transform="matrix(1,0,0,-1,0,792)"/></clipPath><g id="g1095" clip-path="url(#cp7116)"><text id="text1093" font-family="ArialMT" font-size="10.08" transform="translate(0,792)" xml:space="preserve"><tspan id="tspan1091" x="358.32" y="-556.56">,</tspan></text></g><clipPath id="cp7117"><path id="path1097" d="m 258.96,554.4 h 115.681 v 11.52007 H 258.96 Z" transform="matrix(1,0,0,-1,0,792)"/></clipPath><clipPath id="cp7118"><path id="path1106" d="m 258.96,554.4 h 115.681 v 11.52007 H 258.96 Z" transform="matrix(1,0,0,-1,0,792)"/></clipPath><g id="g1113" clip-path="url(#cp7118)"><text id="text1111" font-family="ArialMT" font-size="10.08" transform="translate(0,792)" xml:space="preserve"><tspan id="tspan1109" x="364.08 369.604" y="-556.56">8)</tspan></text></g><clipPath id="cp7119"><path id="path1115" d="m 258.96,554.4 h 115.681 v 11.52007 H 258.96 Z" transform="matrix(1,0,0,-1,0,792)"/></clipPath><clipPath id="cp7120"><path id="path1126" d="m 374.64,554.4 h 115.92 v 11.52007 H 374.64 Z" transform="matrix(1,0,0,-1,0,792)"/></clipPath><g id="g1133" clip-path="url(#cp7120)"><text id="text1131" font-family="ArialMT" font-size="10.08" transform="translate(0,792)" xml:space="preserve"><tspan id="tspan1129" x="448.32 453.844 456.724 462.248 465.13 468.49" y="-556.56">2.0 (1</tspan></text></g><clipPath id="cp7121"><path id="path1135" d="m 374.64,554.4 h 115.92 v 11.52007 H 374.64 Z" transform="matrix(1,0,0,-1,0,792)"/></clipPath><g id="g1142" clip-path="url(#cp7121)"><text id="text1140" font-family="ArialMT" font-size="10.08" transform="translate(0,792)" xml:space="preserve"><tspan id="tspan1138" x="474" y="-556.56">,</tspan></text></g><clipPath id="cp7122"><path id="path1144" d="m 374.64,554.4 h 115.92 v 11.52007 H 374.64 Z" transform="matrix(1,0,0,-1,0,792)"/></clipPath><clipPath id="cp7123"><path id="path1153" d="m 374.64,554.4 h 115.92 v 11.52007 H 374.64 Z" transform="matrix(1,0,0,-1,0,792)"/></clipPath><g id="g1160" clip-path="url(#cp7123)"><text id="text1158" font-family="ArialMT" font-size="10.08" transform="translate(0,792)" xml:space="preserve"><tspan id="tspan1156" x="479.76 485.284" y="-556.56">8)</tspan></text></g><clipPath id="cp7124"><path id="path1162" d="m 374.64,554.4 h 115.92 v 11.52007 H 374.64 Z" transform="matrix(1,0,0,-1,0,792)"/></clipPath><clipPath id="cp7125"><path id="path1173" d="m 69.84,542.88 h 189.12 v 11.28006 H 69.84 Z" transform="matrix(1,0,0,-1,0,792)"/></clipPath><g id="g1180" clip-path="url(#cp7125)"><text id="text1178" font-family="ArialMT" font-size="10.08" transform="translate(0,792)" xml:space="preserve"><tspan id="tspan1176" x="82.8 91.2 96.724 102.247 104.646 110.17 115.694 118.577 124.101 129.625 132.984 138.508 141.148 143.547 149.071 154.595 157.478 160.597 168.997 171.397 176.921 179.561 182.201 190.841 196.121 201.401" y="-545.04">Median duration (min, max)</tspan></text></g><clipPath id="cp7126"><path id="path1182" d="m 69.84,542.88 h 189.12 v 11.28006 H 69.84 Z" transform="matrix(1,0,0,-1,0,792)"/></clipPath><clipPath id="cp7127"><path id="path1193" d="m 258.96,542.88 h 115.681 v 11.28006 H 258.96 Z" transform="matrix(1,0,0,-1,0,792)"/></clipPath><g id="g1200" clip-path="url(#cp7127)"><text id="text1198" font-family="ArialMT" font-size="10.08" transform="translate(0,792)" xml:space="preserve"><tspan id="tspan1196" x="327.12 332.644 335.524 341.048 343.93 347.29" y="-545.04">2.0 (1</tspan></text></g><clipPath id="cp7128"><path id="path1202" d="m 258.96,542.88 h 115.681 v 11.28006 H 258.96 Z" transform="matrix(1,0,0,-1,0,792)"/></clipPath><g id="g1209" clip-path="url(#cp7128)"><text id="text1207" font-family="ArialMT" font-size="10.08" transform="translate(0,792)" xml:space="preserve"><tspan id="tspan1205" x="352.8" y="-545.04">,</tspan></text></g><clipPath id="cp7129"><path id="path1211" d="m 258.96,542.88 h 115.681 v 11.28006 H 258.96 Z" transform="matrix(1,0,0,-1,0,792)"/></clipPath><clipPath id="cp7130"><path id="path1220" d="m 258.96,542.88 h 115.681 v 11.28006 H 258.96 Z" transform="matrix(1,0,0,-1,0,792)"/></clipPath><g id="g1227" clip-path="url(#cp7130)"><text id="text1225" font-family="ArialMT" font-size="10.08" transform="translate(0,792)" xml:space="preserve"><tspan id="tspan1223" x="358.56 364.084 369.608" y="-545.04">32)</tspan></text></g><clipPath id="cp7131"><path id="path1229" d="m 258.96,542.88 h 115.681 v 11.28006 H 258.96 Z" transform="matrix(1,0,0,-1,0,792)"/></clipPath><clipPath id="cp7132"><path id="path1240" d="m 374.64,542.88 h 115.92 v 11.28006 H 374.64 Z" transform="matrix(1,0,0,-1,0,792)"/></clipPath><g id="g1247" clip-path="url(#cp7132)"><text id="text1245" font-family="ArialMT" font-size="10.08" transform="translate(0,792)" xml:space="preserve"><tspan id="tspan1243" x="442.8 448.324 451.204 456.728 459.61 462.97" y="-545.04">2.0 (1</tspan></text></g><clipPath id="cp7133"><path id="path1249" d="m 374.64,542.88 h 115.92 v 11.28006 H 374.64 Z" transform="matrix(1,0,0,-1,0,792)"/></clipPath><g id="g1256" clip-path="url(#cp7133)"><text id="text1254" font-family="ArialMT" font-size="10.08" transform="translate(0,792)" xml:space="preserve"><tspan id="tspan1252" x="468.48" y="-545.04">,</tspan></text></g><clipPath id="cp7134"><path id="path1258" d="m 374.64,542.88 h 115.92 v 11.28006 H 374.64 Z" transform="matrix(1,0,0,-1,0,792)"/></clipPath><clipPath id="cp7135"><path id="path1267" d="m 374.64,542.88 h 115.92 v 11.28006 H 374.64 Z" transform="matrix(1,0,0,-1,0,792)"/></clipPath><g id="g1274" clip-path="url(#cp7135)"><text id="text1272" font-family="ArialMT" font-size="10.08" transform="translate(0,792)" xml:space="preserve"><tspan id="tspan1270" x="474.24 479.764 485.288" y="-545.04">44)</tspan></text></g><clipPath id="cp7136"><path id="path1276" d="m 374.64,542.88 h 115.92 v 11.28006 H 374.64 Z" transform="matrix(1,0,0,-1,0,792)"/></clipPath><clipPath id="cp7137"><path id="path1287" d="m 69.84,531.12 h 189.12 v 11.281 H 69.84 Z" transform="matrix(1,0,0,-1,0,792)"/></clipPath><g id="g1294" clip-path="url(#cp7137)"><text id="text1292" font-family="ArialMT" font-size="10.08" transform="translate(0,792)" xml:space="preserve"><tspan id="tspan1290" x="82.8 88.8 94.323 97.206 102.73 108.254 113.294 118.094 120.977 126.501 132.025 135.384 140.908 143.789 146.188 151.712" y="-533.28">&gt;7 days duration</tspan></text></g><clipPath id="cp7138"><path id="path1296" d="m 69.84,531.12 h 189.12 v 11.281 H 69.84 Z" transform="matrix(1,0,0,-1,0,792)"/></clipPath><clipPath id="cp7139"><path id="path1307" d="m 258.96,531.12 h 115.681 v 11.281 H 258.96 Z" transform="matrix(1,0,0,-1,0,792)"/></clipPath><g id="g1314" clip-path="url(#cp7139)"><text id="text1312" font-family="ArialMT" font-size="10.08" transform="translate(0,792)" xml:space="preserve"><tspan id="tspan1310" x="329.28 334.804 340.328 343.211 346.571 352.095 354.975 360.499 369.379" y="-533.28">20 (1.1%)</tspan></text></g><clipPath id="cp7140"><path id="path1316" d="m 258.96,531.12 h 115.681 v 11.281 H 258.96 Z" transform="matrix(1,0,0,-1,0,792)"/></clipPath><clipPath id="cp7141"><path id="path1327" d="m 374.64,531.12 h 115.92 v 11.281 H 374.64 Z" transform="matrix(1,0,0,-1,0,792)"/></clipPath><g id="g1334" clip-path="url(#cp7141)"><text id="text1332" font-family="ArialMT" font-size="10.08" transform="translate(0,792)" xml:space="preserve"><tspan id="tspan1330" x="444.96 450.484 456.008" y="-533.28">15</tspan></text></g><clipPath id="cp7142"><path id="path1336" d="m 374.64,531.12 h 115.92 v 11.281 H 374.64 Z" transform="matrix(1,0,0,-1,0,792)"/></clipPath><g id="g1343" clip-path="url(#cp7142)"><text id="text1341" font-family="ArialMT" font-size="10.08" transform="translate(0,792)" xml:space="preserve"><tspan id="tspan1339" x="458.88 462.24 467.764 470.644 476.168 485.049" y="-533.28">(1.3%)</tspan></text></g><clipPath id="cp7143"><path id="path1345" d="m 374.64,531.12 h 115.92 v 11.281 H 374.64 Z" transform="matrix(1,0,0,-1,0,792)"/></clipPath><clipPath id="cp7144"><path id="path1356" d="m 69.84,518.88 h 189.12 v 11.281 H 69.84 Z" transform="matrix(1,0,0,-1,0,792)"/></clipPath><g id="g1363" clip-path="url(#cp7144)"><text id="text1361" font-family="ArialMT" font-size="10.08" transform="translate(0,792)" xml:space="preserve"><tspan id="tspan1359" x="72 79.197 84.721 90.245 95.045 100.805 106.328 109.209 112.092" y="-521.04">Nausea, n</tspan></text></g><clipPath id="cp7145"><path id="path1365" d="m 69.84,518.88 h 189.12 v 11.281 H 69.84 Z" transform="matrix(1,0,0,-1,0,792)"/></clipPath><clipPath id="cp7146"><path id="path1374" d="m 69.84,518.88 h 189.12 v 11.281 H 69.84 Z" transform="matrix(1,0,0,-1,0,792)"/></clipPath><g id="g1381" clip-path="url(#cp7146)"><text id="text1379" font-family="ArialMT" font-size="10.08" transform="translate(0,792)" xml:space="preserve"><tspan id="tspan1377" x="120.48 123.84 132.72" y="-521.04">(%)</tspan></text></g><clipPath id="cp7147"><path id="path1383" d="m 69.84,518.88 h 189.12 v 11.281 H 69.84 Z" transform="matrix(1,0,0,-1,0,792)"/></clipPath><clipPath id="cp7148"><path id="path1394" d="m 258.96,518.88 h 115.681 v 11.281 H 258.96 Z" transform="matrix(1,0,0,-1,0,792)"/></clipPath><g id="g1401" clip-path="url(#cp7148)"><text id="text1399" font-family="ArialMT" font-size="10.08" transform="translate(0,792)" xml:space="preserve"><tspan id="tspan1397" x="318.24 323.764 329.288 334.811 337.694 341.055 346.579 352.103 354.983 360.506 369.387" y="-521.04">477 (14.2%)</tspan></text></g><clipPath id="cp7149"><path id="path1403" d="m 258.96,518.88 h 115.681 v 11.281 H 258.96 Z" transform="matrix(1,0,0,-1,0,792)"/></clipPath><clipPath id="cp7150"><path id="path1414" d="m 374.64,518.88 h 115.92 v 11.281 H 374.64 Z" transform="matrix(1,0,0,-1,0,792)"/></clipPath><g id="g1421" clip-path="url(#cp7150)"><text id="text1419" font-family="ArialMT" font-size="10.08" transform="translate(0,792)" xml:space="preserve"><tspan id="tspan1417" x="439.44 444.964 450.488 456.012 458.894 462.255 467.779 470.659 476.183 485.063" y="-521.04">327 (9.7%)</tspan></text></g><clipPath id="cp7151"><path id="path1423" d="m 374.64,518.88 h 115.92 v 11.281 H 374.64 Z" transform="matrix(1,0,0,-1,0,792)"/></clipPath><path id="path1434" d="m 69.84,530.4 h 189.12 v 0.48107 H 69.84 Z" transform="matrix(1,0,0,-1,0,792)"/><path id="path1436" d="m 258.96,530.4 h 0.48099 v 0.48107 H 258.96 Z" transform="matrix(1,0,0,-1,0,792)"/><path id="path1438" d="m 259.44,530.4 h 115.2 v 0.48107 h -115.2 z" transform="matrix(1,0,0,-1,0,792)"/><path id="path1440" d="m 374.64,530.4 h 0.48004 v 0.48107 H 374.64 Z" transform="matrix(1,0,0,-1,0,792)"/><path id="path1442" d="m 375.12,530.4 h 115.44 v 0.48107 H 375.12 Z" transform="matrix(1,0,0,-1,0,792)"/></g><g id="g1831" data-name="P" transform="translate(-69.12,-74.051589)"><clipPath id="cp7152"><path id="path1446" d="M 69.84,507.12 H 258.96 V 518.4 H 69.84 Z" transform="matrix(1,0,0,-1,0,792)"/></clipPath><g id="g1453" clip-path="url(#cp7152)"><text id="text1451" font-family="ArialMT" font-size="10.08" transform="translate(0,792)" xml:space="preserve"><tspan id="tspan1449" x="82.8 91.2 96.724 102.247 104.646 110.17 115.694 118.577 121.217 123.374 132.014 137.293 140.176 143.056 148.58 151.463 156.987 162.511 167.31 172.834 175.713 178.596 181.716 190.116 192.516 198.04 200.68 203.32 211.96 217.24 222.52" y="-509.28">Median time to onset (min, max)</tspan></text></g><clipPath id="cp7153"><path id="path1455" d="M 69.84,507.12 H 258.96 V 518.4 H 69.84 Z" transform="matrix(1,0,0,-1,0,792)"/></clipPath><clipPath id="cp7154"><path id="path1466" d="M 258.96,507.12 H 374.641 V 518.4 H 258.96 Z" transform="matrix(1,0,0,-1,0,792)"/></clipPath><g id="g1473" clip-path="url(#cp7154)"><text id="text1471" font-family="ArialMT" font-size="10.08" transform="translate(0,792)" xml:space="preserve"><tspan id="tspan1469" x="332.64 338.164 341.044 346.568 349.45 352.81" y="-509.28">2.0 (1</tspan></text></g><clipPath id="cp7155"><path id="path1475" d="M 258.96,507.12 H 374.641 V 518.4 H 258.96 Z" transform="matrix(1,0,0,-1,0,792)"/></clipPath><g id="g1482" clip-path="url(#cp7155)"><text id="text1480" font-family="ArialMT" font-size="10.08" transform="translate(0,792)" xml:space="preserve"><tspan id="tspan1478" x="358.32" y="-509.28">,</tspan></text></g><clipPath id="cp7156"><path id="path1484" d="M 258.96,507.12 H 374.641 V 518.4 H 258.96 Z" transform="matrix(1,0,0,-1,0,792)"/></clipPath><clipPath id="cp7157"><path id="path1493" d="M 258.96,507.12 H 374.641 V 518.4 H 258.96 Z" transform="matrix(1,0,0,-1,0,792)"/></clipPath><g id="g1500" clip-path="url(#cp7157)"><text id="text1498" font-family="ArialMT" font-size="10.08" transform="translate(0,792)" xml:space="preserve"><tspan id="tspan1496" x="364.08 369.604" y="-509.28">8)</tspan></text></g><clipPath id="cp7158"><path id="path1502" d="M 258.96,507.12 H 374.641 V 518.4 H 258.96 Z" transform="matrix(1,0,0,-1,0,792)"/></clipPath><clipPath id="cp7159"><path id="path1513" d="M 374.64,507.12 H 490.56 V 518.4 H 374.64 Z" transform="matrix(1,0,0,-1,0,792)"/></clipPath><g id="g1520" clip-path="url(#cp7159)"><text id="text1518" font-family="ArialMT" font-size="10.08" transform="translate(0,792)" xml:space="preserve"><tspan id="tspan1516" x="448.32 453.844 456.724 462.248 465.13 468.49" y="-509.28">3.0 (1</tspan></text></g><clipPath id="cp7160"><path id="path1522" d="M 374.64,507.12 H 490.56 V 518.4 H 374.64 Z" transform="matrix(1,0,0,-1,0,792)"/></clipPath><g id="g1529" clip-path="url(#cp7160)"><text id="text1527" font-family="ArialMT" font-size="10.08" transform="translate(0,792)" xml:space="preserve"><tspan id="tspan1525" x="474" y="-509.28">,</tspan></text></g><clipPath id="cp7161"><path id="path1531" d="M 374.64,507.12 H 490.56 V 518.4 H 374.64 Z" transform="matrix(1,0,0,-1,0,792)"/></clipPath><clipPath id="cp7162"><path id="path1540" d="M 374.64,507.12 H 490.56 V 518.4 H 374.64 Z" transform="matrix(1,0,0,-1,0,792)"/></clipPath><g id="g1547" clip-path="url(#cp7162)"><text id="text1545" font-family="ArialMT" font-size="10.08" transform="translate(0,792)" xml:space="preserve"><tspan id="tspan1543" x="479.76 485.284" y="-509.28">8)</tspan></text></g><clipPath id="cp7163"><path id="path1549" d="M 374.64,507.12 H 490.56 V 518.4 H 374.64 Z" transform="matrix(1,0,0,-1,0,792)"/></clipPath><clipPath id="cp7164"><path id="path1560" d="m 69.84,495.36 h 189.12 v 11.51998 H 69.84 Z" transform="matrix(1,0,0,-1,0,792)"/></clipPath><g id="g1567" clip-path="url(#cp7164)"><text id="text1565" font-family="ArialMT" font-size="10.08" transform="translate(0,792)" xml:space="preserve"><tspan id="tspan1563" x="82.8 91.2 96.724 102.247 104.646 110.17 115.694 118.577 124.101 129.625 132.984 138.508 141.148 143.547 149.071 154.595 157.478 160.597 168.997 171.397 176.921 179.561 182.201 190.841 196.121 201.401" y="-497.52">Median duration (min, max)</tspan></text></g><clipPath id="cp7165"><path id="path1569" d="m 69.84,495.36 h 189.12 v 11.51998 H 69.84 Z" transform="matrix(1,0,0,-1,0,792)"/></clipPath><clipPath id="cp7166"><path id="path1580" d="m 258.96,495.36 h 115.681 v 11.51998 H 258.96 Z" transform="matrix(1,0,0,-1,0,792)"/></clipPath><g id="g1587" clip-path="url(#cp7166)"><text id="text1585" font-family="ArialMT" font-size="10.08" transform="translate(0,792)" xml:space="preserve"><tspan id="tspan1583" x="327.12 332.644 335.524 341.048 343.93 347.29" y="-497.52">1.0 (1</tspan></text></g><clipPath id="cp7167"><path id="path1589" d="m 258.96,495.36 h 115.681 v 11.51998 H 258.96 Z" transform="matrix(1,0,0,-1,0,792)"/></clipPath><g id="g1596" clip-path="url(#cp7167)"><text id="text1594" font-family="ArialMT" font-size="10.08" transform="translate(0,792)" xml:space="preserve"><tspan id="tspan1592" x="352.8" y="-497.52">,</tspan></text></g><clipPath id="cp7168"><path id="path1598" d="m 258.96,495.36 h 115.681 v 11.51998 H 258.96 Z" transform="matrix(1,0,0,-1,0,792)"/></clipPath><clipPath id="cp7169"><path id="path1607" d="m 258.96,495.36 h 115.681 v 11.51998 H 258.96 Z" transform="matrix(1,0,0,-1,0,792)"/></clipPath><g id="g1614" clip-path="url(#cp7169)"><text id="text1612" font-family="ArialMT" font-size="10.08" transform="translate(0,792)" xml:space="preserve"><tspan id="tspan1610" x="358.56 364.084 369.608" y="-497.52">15)</tspan></text></g><clipPath id="cp7170"><path id="path1616" d="m 258.96,495.36 h 115.681 v 11.51998 H 258.96 Z" transform="matrix(1,0,0,-1,0,792)"/></clipPath><clipPath id="cp7171"><path id="path1627" d="m 374.64,495.36 h 115.92 v 11.51998 H 374.64 Z" transform="matrix(1,0,0,-1,0,792)"/></clipPath><g id="g1634" clip-path="url(#cp7171)"><text id="text1632" font-family="ArialMT" font-size="10.08" transform="translate(0,792)" xml:space="preserve"><tspan id="tspan1630" x="448.32 453.844 456.724 462.248" y="-497.52">1.0</tspan></text></g><clipPath id="cp7172"><path id="path1636" d="m 374.64,495.36 h 115.92 v 11.51998 H 374.64 Z" transform="matrix(1,0,0,-1,0,792)"/></clipPath><g id="g1643" clip-path="url(#cp7172)"><text id="text1641" font-family="ArialMT" font-size="10.08" transform="translate(0,792)" xml:space="preserve"><tspan id="tspan1639" x="465.12 468.477" y="-497.52">(1</tspan></text></g><clipPath id="cp7173"><path id="path1645" d="m 374.64,495.36 h 115.92 v 11.51998 H 374.64 Z" transform="matrix(1,0,0,-1,0,792)"/></clipPath><g id="g1652" clip-path="url(#cp7173)"><text id="text1650" font-family="ArialMT" font-size="10.08" transform="translate(0,792)" xml:space="preserve"><tspan id="tspan1648" x="474" y="-497.52">,</tspan></text></g><clipPath id="cp7174"><path id="path1654" d="m 374.64,495.36 h 115.92 v 11.51998 H 374.64 Z" transform="matrix(1,0,0,-1,0,792)"/></clipPath><clipPath id="cp7175"><path id="path1663" d="m 374.64,495.36 h 115.92 v 11.51998 H 374.64 Z" transform="matrix(1,0,0,-1,0,792)"/></clipPath><g id="g1670" clip-path="url(#cp7175)"><text id="text1668" font-family="ArialMT" font-size="10.08" transform="translate(0,792)" xml:space="preserve"><tspan id="tspan1666" x="479.76 485.284" y="-497.52">8)</tspan></text></g><clipPath id="cp7176"><path id="path1672" d="m 374.64,495.36 h 115.92 v 11.51998 H 374.64 Z" transform="matrix(1,0,0,-1,0,792)"/></clipPath><clipPath id="cp7177"><path id="path1683" d="m 69.84,483.6 h 189.12 v 11.52 H 69.84 Z" transform="matrix(1,0,0,-1,0,792)"/></clipPath><g id="g1690" clip-path="url(#cp7177)"><text id="text1688" font-family="ArialMT" font-size="10.08" transform="translate(0,792)" xml:space="preserve"><tspan id="tspan1686" x="82.8 88.8 94.323 97.206 102.73 108.254 113.294 118.094 120.977 126.501 132.025 135.384 140.908 143.789 146.188 151.712" y="-485.76">&gt;7 days duration</tspan></text></g><clipPath id="cp7178"><path id="path1692" d="m 69.84,483.6 h 189.12 v 11.52 H 69.84 Z" transform="matrix(1,0,0,-1,0,792)"/></clipPath><clipPath id="cp7179"><path id="path1703" d="m 258.96,483.6 h 115.681 v 11.52 H 258.96 Z" transform="matrix(1,0,0,-1,0,792)"/></clipPath><g id="g1710" clip-path="url(#cp7179)"><text id="text1708" font-family="ArialMT" font-size="10.08" transform="translate(0,792)" xml:space="preserve"><tspan id="tspan1706" x="335.04 340.564 343.447 346.807 352.331 355.211 360.735 369.615" y="-485.76">5 (0.3%)</tspan></text></g><clipPath id="cp7180"><path id="path1712" d="m 258.96,483.6 h 115.681 v 11.52 H 258.96 Z" transform="matrix(1,0,0,-1,0,792)"/></clipPath><clipPath id="cp7181"><path id="path1723" d="m 374.64,483.6 h 115.92 v 11.52 H 374.64 Z" transform="matrix(1,0,0,-1,0,792)"/></clipPath><g id="g1730" clip-path="url(#cp7181)"><text id="text1728" font-family="ArialMT" font-size="10.08" transform="translate(0,792)" xml:space="preserve"><tspan id="tspan1726" x="450.72 456.244 459.127 462.487 468.011 470.891 476.415 485.295" y="-485.76">4 (0.3%)</tspan></text></g><clipPath id="cp7182"><path id="path1732" d="m 374.64,483.6 h 115.92 v 11.52 H 374.64 Z" transform="matrix(1,0,0,-1,0,792)"/></clipPath><clipPath id="cp7183"><path id="path1743" d="m 69.84,471.36 h 189.12 v 11.51998 H 69.84 Z" transform="matrix(1,0,0,-1,0,792)"/></clipPath><g id="g1750" clip-path="url(#cp7183)"><text id="text1748" font-family="ArialMT" font-size="10.08" transform="translate(0,792)" xml:space="preserve"><tspan id="tspan1746" x="72 78.241 83.522 89.042 94.324 97.684 100.564 103.447" y="-473.52">Fever, n</tspan></text></g><clipPath id="cp7184"><path id="path1752" d="m 69.84,471.36 h 189.12 v 11.51998 H 69.84 Z" transform="matrix(1,0,0,-1,0,792)"/></clipPath><clipPath id="cp7185"><path id="path1761" d="m 69.84,471.36 h 189.12 v 11.51998 H 69.84 Z" transform="matrix(1,0,0,-1,0,792)"/></clipPath><g id="g1768" clip-path="url(#cp7185)"><text id="text1766" font-family="ArialMT" font-size="10.08" transform="translate(0,792)" xml:space="preserve"><tspan id="tspan1764" x="111.6 114.96 123.84" y="-473.52">(%)</tspan></text></g><clipPath id="cp7186"><path id="path1770" d="m 69.84,471.36 h 189.12 v 11.51998 H 69.84 Z" transform="matrix(1,0,0,-1,0,792)"/></clipPath><clipPath id="cp7187"><path id="path1781" d="m 258.96,471.36 h 115.681 v 11.51998 H 258.96 Z" transform="matrix(1,0,0,-1,0,792)"/></clipPath><g id="g1788" clip-path="url(#cp7187)"><text id="text1786" font-family="ArialMT" font-size="10.08" transform="translate(0,792)" xml:space="preserve"><tspan id="tspan1784" x="323.76 329.284 334.808 340.332 343.214 346.575 352.099 354.979 360.503 369.383" y="-473.52">302 (9.0%)</tspan></text></g><clipPath id="cp7188"><path id="path1790" d="m 258.96,471.36 h 115.681 v 11.51998 H 258.96 Z" transform="matrix(1,0,0,-1,0,792)"/></clipPath><clipPath id="cp7189"><path id="path1801" d="m 374.64,471.36 h 115.92 v 11.51998 H 374.64 Z" transform="matrix(1,0,0,-1,0,792)"/></clipPath><g id="g1808" clip-path="url(#cp7189)"><text id="text1806" font-family="ArialMT" font-size="10.08" transform="translate(0,792)" xml:space="preserve"><tspan id="tspan1804" x="444.96 450.484 456.008 458.891 462.251 467.775 470.655 476.179 485.059" y="-473.52">20 (0.6%)</tspan></text></g><clipPath id="cp7190"><path id="path1810" d="m 374.64,471.36 h 115.92 v 11.51998 H 374.64 Z" transform="matrix(1,0,0,-1,0,792)"/></clipPath><path id="path1821" d="m 69.84,482.88 h 189.12 v 0.481 H 69.84 Z" transform="matrix(1,0,0,-1,0,792)"/><path id="path1823" d="m 258.96,482.88 h 0.48099 v 0.481 H 258.96 Z" transform="matrix(1,0,0,-1,0,792)"/><path id="path1825" d="m 259.44,482.88 h 115.2 v 0.481 h -115.2 z" transform="matrix(1,0,0,-1,0,792)"/><path id="path1827" d="m 374.64,482.88 h 0.48004 v 0.481 H 374.64 Z" transform="matrix(1,0,0,-1,0,792)"/><path id="path1829" d="m 375.12,482.88 h 115.44 v 0.481 H 375.12 Z" transform="matrix(1,0,0,-1,0,792)"/></g><g id="g2140" data-name="P" transform="translate(-69.12,-74.051589)"><clipPath id="cp7191"><path id="path1833" d="m 69.84,459.6 h 189.12 v 11.52 H 69.84 Z" transform="matrix(1,0,0,-1,0,792)"/></clipPath><g id="g1840" clip-path="url(#cp7191)"><text id="text1838" font-family="ArialMT" font-size="10.08" transform="translate(0,792)" xml:space="preserve"><tspan id="tspan1836" x="82.8 91.2 96.724 102.247 104.646 110.17 115.694 118.577 121.217 123.374 132.014 137.293 140.176 143.056 148.58 151.463 156.987 162.511 167.31 172.834 175.713 178.596 181.716 190.116 192.516 198.04 200.68" y="-461.76">Median time to onset (min,</tspan></text></g><clipPath id="cp7192"><path id="path1842" d="m 69.84,459.6 h 189.12 v 11.52 H 69.84 Z" transform="matrix(1,0,0,-1,0,792)"/></clipPath><g id="g1849" clip-path="url(#cp7192)"><text id="text1847" font-family="ArialMT" font-size="10.08" transform="translate(0,792)" xml:space="preserve"><tspan id="tspan1845" x="203.28 211.919 217.198 222.48" y="-461.76">max)</tspan></text></g><clipPath id="cp7193"><path id="path1851" d="m 69.84,459.6 h 189.12 v 11.52 H 69.84 Z" transform="matrix(1,0,0,-1,0,792)"/></clipPath><clipPath id="cp7194"><path id="path1862" d="m 258.96,459.6 h 115.681 v 11.52 H 258.96 Z" transform="matrix(1,0,0,-1,0,792)"/></clipPath><g id="g1869" clip-path="url(#cp7194)"><text id="text1867" font-family="ArialMT" font-size="10.08" transform="translate(0,792)" xml:space="preserve"><tspan id="tspan1865" x="332.64 338.164 341.044 346.568 349.45 352.81" y="-461.76">2.0 (1</tspan></text></g><clipPath id="cp7195"><path id="path1871" d="m 258.96,459.6 h 115.681 v 11.52 H 258.96 Z" transform="matrix(1,0,0,-1,0,792)"/></clipPath><g id="g1878" clip-path="url(#cp7195)"><text id="text1876" font-family="ArialMT" font-size="10.08" transform="translate(0,792)" xml:space="preserve"><tspan id="tspan1874" x="358.32" y="-461.76">,</tspan></text></g><clipPath id="cp7196"><path id="path1880" d="m 258.96,459.6 h 115.681 v 11.52 H 258.96 Z" transform="matrix(1,0,0,-1,0,792)"/></clipPath><clipPath id="cp7197"><path id="path1889" d="m 258.96,459.6 h 115.681 v 11.52 H 258.96 Z" transform="matrix(1,0,0,-1,0,792)"/></clipPath><g id="g1896" clip-path="url(#cp7197)"><text id="text1894" font-family="ArialMT" font-size="10.08" transform="translate(0,792)" xml:space="preserve"><tspan id="tspan1892" x="364.08 369.604" y="-461.76">8)</tspan></text></g><clipPath id="cp7198"><path id="path1898" d="m 258.96,459.6 h 115.681 v 11.52 H 258.96 Z" transform="matrix(1,0,0,-1,0,792)"/></clipPath><clipPath id="cp7199"><path id="path1909" d="m 374.64,459.6 h 115.92 v 11.52 H 374.64 Z" transform="matrix(1,0,0,-1,0,792)"/></clipPath><g id="g1916" clip-path="url(#cp7199)"><text id="text1914" font-family="ArialMT" font-size="10.08" transform="translate(0,792)" xml:space="preserve"><tspan id="tspan1912" x="448.32 453.844 456.724 462.248 465.13 468.49" y="-461.76">2.0 (1</tspan></text></g><clipPath id="cp7200"><path id="path1918" d="m 374.64,459.6 h 115.92 v 11.52 H 374.64 Z" transform="matrix(1,0,0,-1,0,792)"/></clipPath><g id="g1925" clip-path="url(#cp7200)"><text id="text1923" font-family="ArialMT" font-size="10.08" transform="translate(0,792)" xml:space="preserve"><tspan id="tspan1921" x="474" y="-461.76">,</tspan></text></g><clipPath id="cp7201"><path id="path1927" d="m 374.64,459.6 h 115.92 v 11.52 H 374.64 Z" transform="matrix(1,0,0,-1,0,792)"/></clipPath><clipPath id="cp7202"><path id="path1936" d="m 374.64,459.6 h 115.92 v 11.52 H 374.64 Z" transform="matrix(1,0,0,-1,0,792)"/></clipPath><g id="g1943" clip-path="url(#cp7202)"><text id="text1941" font-family="ArialMT" font-size="10.08" transform="translate(0,792)" xml:space="preserve"><tspan id="tspan1939" x="479.76 485.284" y="-461.76">5)</tspan></text></g><clipPath id="cp7203"><path id="path1945" d="m 374.64,459.6 h 115.92 v 11.52 H 374.64 Z" transform="matrix(1,0,0,-1,0,792)"/></clipPath><clipPath id="cp7204"><path id="path1956" d="m 69.84,447.84 h 189.12 v 11.52 H 69.84 Z" transform="matrix(1,0,0,-1,0,792)"/></clipPath><g id="g1963" clip-path="url(#cp7204)"><text id="text1961" font-family="ArialMT" font-size="10.08" transform="translate(0,792)" xml:space="preserve"><tspan id="tspan1959" x="82.8 91.2 96.724 102.247 104.646 110.17 115.694 118.577 124.101 129.625 132.984 138.508 141.148 143.547 149.071 154.595 157.478 160.597 168.997 171.397 176.921 179.561 182.201 190.841 196.121 201.401" y="-450">Median duration (min, max)</tspan></text></g><clipPath id="cp7205"><path id="path1965" d="m 69.84,447.84 h 189.12 v 11.52 H 69.84 Z" transform="matrix(1,0,0,-1,0,792)"/></clipPath><clipPath id="cp7206"><path id="path1976" d="m 258.96,447.84 h 115.681 v 11.52 H 258.96 Z" transform="matrix(1,0,0,-1,0,792)"/></clipPath><g id="g1983" clip-path="url(#cp7206)"><text id="text1981" font-family="ArialMT" font-size="10.08" transform="translate(0,792)" xml:space="preserve"><tspan id="tspan1979" x="332.64 338.164 341.044 346.568 349.45 352.81" y="-450">1.0 (1</tspan></text></g><clipPath id="cp7207"><path id="path1985" d="m 258.96,447.84 h 115.681 v 11.52 H 258.96 Z" transform="matrix(1,0,0,-1,0,792)"/></clipPath><g id="g1992" clip-path="url(#cp7207)"><text id="text1990" font-family="ArialMT" font-size="10.08" transform="translate(0,792)" xml:space="preserve"><tspan id="tspan1988" x="358.32" y="-450">,</tspan></text></g><clipPath id="cp7208"><path id="path1994" d="m 258.96,447.84 h 115.681 v 11.52 H 258.96 Z" transform="matrix(1,0,0,-1,0,792)"/></clipPath><clipPath id="cp7209"><path id="path2003" d="m 258.96,447.84 h 115.681 v 11.52 H 258.96 Z" transform="matrix(1,0,0,-1,0,792)"/></clipPath><g id="g2010" clip-path="url(#cp7209)"><text id="text2008" font-family="ArialMT" font-size="10.08" transform="translate(0,792)" xml:space="preserve"><tspan id="tspan2006" x="364.08 369.604" y="-450">7)</tspan></text></g><clipPath id="cp7210"><path id="path2012" d="m 258.96,447.84 h 115.681 v 11.52 H 258.96 Z" transform="matrix(1,0,0,-1,0,792)"/></clipPath><clipPath id="cp7211"><path id="path2023" d="m 374.64,447.84 h 115.92 v 11.52 H 374.64 Z" transform="matrix(1,0,0,-1,0,792)"/></clipPath><g id="g2030" clip-path="url(#cp7211)"><text id="text2028" font-family="ArialMT" font-size="10.08" transform="translate(0,792)" xml:space="preserve"><tspan id="tspan2026" x="448.32 453.844 456.724 462.248 465.13 468.49" y="-450">1.0 (1</tspan></text></g><clipPath id="cp7212"><path id="path2032" d="m 374.64,447.84 h 115.92 v 11.52 H 374.64 Z" transform="matrix(1,0,0,-1,0,792)"/></clipPath><g id="g2039" clip-path="url(#cp7212)"><text id="text2037" font-family="ArialMT" font-size="10.08" transform="translate(0,792)" xml:space="preserve"><tspan id="tspan2035" x="474" y="-450">,</tspan></text></g><clipPath id="cp7213"><path id="path2041" d="m 374.64,447.84 h 115.92 v 11.52 H 374.64 Z" transform="matrix(1,0,0,-1,0,792)"/></clipPath><clipPath id="cp7214"><path id="path2050" d="m 374.64,447.84 h 115.92 v 11.52 H 374.64 Z" transform="matrix(1,0,0,-1,0,792)"/></clipPath><g id="g2057" clip-path="url(#cp7214)"><text id="text2055" font-family="ArialMT" font-size="10.08" transform="translate(0,792)" xml:space="preserve"><tspan id="tspan2053" x="479.76 485.284" y="-450">3)</tspan></text></g><clipPath id="cp7215"><path id="path2059" d="m 374.64,447.84 h 115.92 v 11.52 H 374.64 Z" transform="matrix(1,0,0,-1,0,792)"/></clipPath><clipPath id="cp7216"><path id="path2070" d="m 69.84,436.08 h 189.12 v 11.51999 H 69.84 Z" transform="matrix(1,0,0,-1,0,792)"/></clipPath><g id="g2077" clip-path="url(#cp7216)"><text id="text2075" font-family="ArialMT" font-size="10.08" transform="translate(0,792)" xml:space="preserve"><tspan id="tspan2073" x="82.8 88.8 94.323 97.206 102.73 108.254 113.294 118.094 120.977 126.501 132.025 135.384 140.908 143.789 146.188 151.712" y="-438.24">&gt;7 days duration</tspan></text></g><clipPath id="cp7217"><path id="path2079" d="m 69.84,436.08 h 189.12 v 11.51999 H 69.84 Z" transform="matrix(1,0,0,-1,0,792)"/></clipPath><clipPath id="cp7218"><path id="path2090" d="m 258.96,436.08 h 115.681 v 11.51999 H 258.96 Z" transform="matrix(1,0,0,-1,0,792)"/></clipPath><g id="g2097" clip-path="url(#cp7218)"><text id="text2095" font-family="ArialMT" font-size="10.08" transform="translate(0,792)" xml:space="preserve"><tspan id="tspan2093" x="367.2" y="-438.24">0</tspan></text></g><clipPath id="cp7219"><path id="path2099" d="m 258.96,436.08 h 115.681 v 11.51999 H 258.96 Z" transform="matrix(1,0,0,-1,0,792)"/></clipPath><clipPath id="cp7220"><path id="path2110" d="m 374.64,436.08 h 115.92 v 11.51999 H 374.64 Z" transform="matrix(1,0,0,-1,0,792)"/></clipPath><g id="g2117" clip-path="url(#cp7220)"><text id="text2115" font-family="ArialMT" font-size="10.08" transform="translate(0,792)" xml:space="preserve"><tspan id="tspan2113" x="482.88" y="-438.24">0</tspan></text></g><clipPath id="cp7221"><path id="path2119" d="m 374.64,436.08 h 115.92 v 11.51999 H 374.64 Z" transform="matrix(1,0,0,-1,0,792)"/></clipPath><path id="path2130" d="m 69.12,435.36 h 189.84 v 0.48098 H 69.12 Z" transform="matrix(1,0,0,-1,0,792)"/><path id="path2132" d="m 258.24,435.36 h 0.48099 v 0.48098 H 258.24 Z" transform="matrix(1,0,0,-1,0,792)"/><path id="path2134" d="m 258.72,435.36 h 115.92 v 0.48098 H 258.72 Z" transform="matrix(1,0,0,-1,0,792)"/><path id="path2136" d="m 373.92,435.36 h 0.48003 v 0.48098 H 373.92 Z" transform="matrix(1,0,0,-1,0,792)"/><path id="path2138" d="m 374.4,435.36 h 116.16 v 0.48098 H 374.4 Z" transform="matrix(1,0,0,-1,0,792)"/></g><text id="text2170" x="-69.12" y="717.948" font-family="ArialMT" font-size="7.92" xml:space="preserve"><tspan id="tspan2168" x="2.88 8.4 12.48 16.796 19.436 23.756 28.073 30.233 32.398 37.918 42.478 46.794 51.11 55.43 59.51 62.39 64.552 69.593 73.909 78.225 80.145 84.462 86.624 91.664 96.947 101.747 107.267 112.55 117.832 124.073 128.392 133.912 139.195 144.478 149.038 153.598" y="290.028">Source: Sponsor Table TSFAESOLSYS25</tspan></text><text id="text2174" x="-69.12" y="717.948" font-family="ArialMT" font-size="5.04" xml:space="preserve"><tspan id="tspan2172" x="2.88" y="296.268">a</tspan></text><text id="text2182" x="-69.12" y="717.948" font-family="ArialMT" font-size="7.92" xml:space="preserve"><tspan id="tspan2176" x="5.76 7.922 13.442 17.522 19.922 24.238 26.638 30.478 32.64 36.721 41.037 45.354 49.673 53.99 56.163 58.325 60.725 66.005 70.565 74.885 79.205 83.283 85.443 87.843 91.922 94.321 96.721 101.521 106.081 107.761 109.449 112.086 117.606 122.167 126.483 128.403 132.003 136.324 138.003 142.083 144.245 149.765 154.081 156.241 158.403 161.044 165.123 167.764 170.163 174.48 179.039 183.356 185.276 188.875 193.196 194.875 198.956 201.356 205.436 207.836 209.998 214.318 218.398 220.318 221.998 226.077 227.756 230.156 234.476 238.806 241.206 245.766 250.082 254.399 256.799 261.115 265.431 269.752 274.068 275.749 277.429 281.508 283.429 285.829 290.145 294.461 296.624 302.144 307.424 311.504 313.666" y="299.388">Safety subset: Subset of Full-Analysis Set for analysis of solicited and unsolicited AEs </tspan><tspan id="tspan2178" x="2.885 7.201 9.364 13.926 16.088 20.408 24.97 31.69 36.252 40.332 42.968 45.13 49.209 51.609 53.771 58.333 62.413 65.292 67.453 69.133 73.212 75.129 79.691 84.01 88.331 90.491 94.575 96.737 102.257 103.937 106.337 110.66 112.577 116.657 121.217 125.296 129.615 131.295 133.696 135.616 139.694 144.019 145.936 148.816 153.378 157.457 161.538 163.937 165.854 170.174 174.736" y="308.512">n = number of participants with specified reaction </tspan><tspan id="tspan2180" x="2.893 8.651 10.813 15.375 17.775 22.091 26.651 33.131 37.691 42.007 44.655 46.817 50.896 53.296 55.458 60.02 63.86 68.421 72.501 76.821 81.141 85.703 87.621 92.183 96.503 99.142 101.543 103.223 107.302 108.982 113.544 117.864 122.426 124.584 128.663 130.825 136.345 140.904 145.223 147.14 151.22 155.537 160.097 166.817 168.497 170.657 173.057 177.373 181.94 184.103 188.419 192.978 196.822 198.739 203.298 207.615 210.014 214.096 216.012 218.652 222.731 225.611 227.528 229.69 234.25 238.568 240.73 245.047 248.887 253.204 257.763 259.924 262.091 264.253 268.813 272.893 275.533 279.853 284.169 288.486 290.886 295.203 299.763 304.079 308.169 310.331 314.648 317.528 321.61 323.772 328.331 332.41 336.73 341.05 345.37 347.532 351.848 356.41 358.327 362.643 364.803 370.803 373.208" y="317.874">N = number of exposed participants who submitted any data for the event, percentages are based on n/N.</tspan></text></svg>