<svg xmlns="http://www.w3.org/2000/svg" xmlns:svg="http://www.w3.org/2000/svg" id="svg1574" width="630.72" height="301.963" version="1.1" viewBox="0 0 473.04 226.472"><metadata id="metadata1580"/><text id="text149" x="-69.12" y="345.704" font-family="Arial" font-size="10.08" font-weight="bold" xml:space="preserve"><tspan id="tspan145" x="2.88 9.36 14.642 20.882 23.762 29.044 31.92 37.444 42.968 45.851 48.482 54.722 58.563 64.087 70.326 76.567 81.847 88.086 93.61 99.134 102.007 108.006 111.367 114.25 120.729 126.97 129.61 132.49 138.013 140.893 144.253 149.777 155.777 158.66 164.66 170.901 176.424 181.948 184.828 187.711 194.671 200.911 206.435 211.958 215.799 221.323 226.847 229.729 236.927 242.45 247.974 253.498 256.859 259.739 265.978 272.219 277.499 280.381 289.742 292.622 295.741 301.981 304.621 310.861 313.744 319.268 322.151 329.351 334.871 340.391 345.911 348.552 354.792 360.79 363.669 366.31 372.551 380.232 383.112 389.109 395.284 398.167 404.888 410.411 415.935 421.459 424.099 430.339 435.862 439.222 441.862 448.101 454.091 456.974" y="7.304">Table 24. Frequency of Solicited Local Adverse Reactions Within 7 Days Following Vaccination, </tspan><tspan id="tspan147" x="2.89 9.61 15.134 18.494 24.018 27.378 32.902 35.785 42.504 48.505 54.745 60.268 65.792" y="18.826">Safety Subset</tspan></text><text id="text153" x="-69.12" y="345.704" font-family="Arial" font-size="6.48" font-weight="bold" xml:space="preserve"><tspan id="tspan151" x="69.12" y="15.224">a</tspan></text><text id="text157" x="-69.12" y="345.704" font-family="Arial" font-size="10.08" font-weight="bold" xml:space="preserve"><tspan id="tspan155" x="72.72 75.6 78.483 84.963 88.323 94.322 100.563 106.087 108.97 114.494 120.017 125.541" y="18.824">, Study 3001</tspan></text><g id="g572" data-name="P" transform="translate(-69.12,-446.29585)"><text id="text167" font-family="Arial" font-size="10.08" font-weight="bold" transform="translate(0,792)" xml:space="preserve"><tspan id="tspan165" x="72 78.96 85.2 90.724 96.247 100.088 105.612 111.136" y="-291.84">Adverse</tspan></text><clipPath id="cp6593"><path id="path169" d="m 69.84,278.4 h 87.36 v 45.841 H 69.84 Z" transform="matrix(1,0,0,-1,0,792)"/></clipPath><g id="g176" clip-path="url(#cp6593)"><text id="text174" font-family="Arial" font-size="10.08" font-weight="bold" transform="translate(0,792)" xml:space="preserve"><tspan id="tspan172" x="72 79.197 84.721 90.245 95.769 99.129 102.009 108.249" y="-280.56">Reaction</tspan></text></g><clipPath id="cp6594"><path id="path178" d="m 69.84,278.4 h 87.36 v 45.841 H 69.84 Z" transform="matrix(1,0,0,-1,0,792)"/></clipPath><clipPath id="cp6595"><path id="path189" d="m 157.2,278.4 h 96.24 v 45.841 H 157.2 Z" transform="matrix(1,0,0,-1,0,792)"/></clipPath><g id="g196" clip-path="url(#cp6595)"><text id="text194" font-family="Arial" font-size="10.08" font-weight="bold" transform="translate(0,792)" xml:space="preserve"><tspan id="tspan192" x="195.84 201.364" y="-314.88">18</tspan></text></g><clipPath id="cp6596"><path id="path198" d="m 157.2,278.4 h 96.24 v 45.841 H 157.2 Z" transform="matrix(1,0,0,-1,0,792)"/></clipPath><g id="g205" clip-path="url(#cp6596)"><text id="text203" font-family="Arial" font-size="10.08" font-weight="bold" transform="translate(0,792)" xml:space="preserve"><tspan id="tspan201" x="206.88" y="-314.88">-</tspan></text></g><clipPath id="cp6597"><path id="path207" d="m 157.2,278.4 h 96.24 v 45.841 H 157.2 Z" transform="matrix(1,0,0,-1,0,792)"/></clipPath><g id="g214" clip-path="url(#cp6597)"><text id="text212" font-family="Arial" font-size="10.08" font-weight="bold" transform="translate(0,792)" xml:space="preserve"><tspan id="tspan210" x="210.24 215.764 221.288" y="-314.88">59</tspan></text></g><clipPath id="cp6598"><path id="path216" d="m 157.2,278.4 h 96.24 v 45.841 H 157.2 Z" transform="matrix(1,0,0,-1,0,792)"/></clipPath><g id="g223" clip-path="url(#cp6598)"><text id="text221" font-family="Arial" font-size="10.08" font-weight="bold" transform="translate(0,792)" xml:space="preserve"><tspan id="tspan219" x="224.16" y="-314.88">Y</tspan></text></g><clipPath id="cp6599"><path id="path225" d="m 157.2,278.4 h 96.24 v 45.841 H 157.2 Z" transform="matrix(1,0,0,-1,0,792)"/></clipPath><g id="g232" clip-path="url(#cp6599)"><text id="text230" font-family="Arial" font-size="10.08" font-weight="bold" transform="translate(0,792)" xml:space="preserve"><tspan id="tspan228" x="230.88 236.404 241.928 245.768 251.292" y="-314.88">ears</tspan></text></g><text id="text236" font-family="Arial" font-size="10.08" font-weight="bold" transform="translate(0,792)" xml:space="preserve"><tspan id="tspan234" x="187.44 194.4 200.64 206.164 211.687 214.568 221.765 229.685 236.406 241.929 244.809" y="-303.36">Ad26.COV2.S</tspan></text><clipPath id="cp6600"><path id="path238" d="m 157.2,278.4 h 96.24 v 45.841 H 157.2 Z" transform="matrix(1,0,0,-1,0,792)"/></clipPath><text id="text251" font-family="Arial" font-size="10.08" font-weight="bold" transform="translate(0,792)" xml:space="preserve"><tspan id="tspan249" x="216 223.197 229.197 234.721 240.244 245.768" y="-291.84">N=2036</tspan></text><clipPath id="cp6601"><path id="path253" d="m 157.2,278.4 h 96.24 v 45.841 H 157.2 Z" transform="matrix(1,0,0,-1,0,792)"/></clipPath><clipPath id="cp6602"><path id="path264" d="m 157.2,278.4 h 96.24 v 45.841 H 157.2 Z" transform="matrix(1,0,0,-1,0,792)"/></clipPath><g id="g271" clip-path="url(#cp6602)"><text id="text269" font-family="Arial" font-size="10.08" font-weight="bold" transform="translate(0,792)" xml:space="preserve"><tspan id="tspan267" x="226.8 233.04 235.922 239.282 247.679" y="-280.56">n (%)</tspan></text></g><clipPath id="cp6603"><path id="path273" d="m 157.2,278.4 h 96.24 v 45.841 H 157.2 Z" transform="matrix(1,0,0,-1,0,792)"/></clipPath><clipPath id="cp6604"><path id="path284" d="m 253.44,278.4 h 96.24 v 45.841 h -96.24 z" transform="matrix(1,0,0,-1,0,792)"/></clipPath><g id="g291" clip-path="url(#cp6604)"><text id="text289" font-family="Arial" font-size="10.08" font-weight="bold" transform="translate(0,792)" xml:space="preserve"><tspan id="tspan287" x="293.28 298.804" y="-314.88">18</tspan></text></g><clipPath id="cp6605"><path id="path293" d="m 253.44,278.4 h 96.24 v 45.841 h -96.24 z" transform="matrix(1,0,0,-1,0,792)"/></clipPath><g id="g300" clip-path="url(#cp6605)"><text id="text298" font-family="Arial" font-size="10.08" font-weight="bold" transform="translate(0,792)" xml:space="preserve"><tspan id="tspan296" x="304.32" y="-314.88">-</tspan></text></g><clipPath id="cp6606"><path id="path302" d="m 253.44,278.4 h 96.24 v 45.841 h -96.24 z" transform="matrix(1,0,0,-1,0,792)"/></clipPath><g id="g309" clip-path="url(#cp6606)"><text id="text307" font-family="Arial" font-size="10.08" font-weight="bold" transform="translate(0,792)" xml:space="preserve"><tspan id="tspan305" x="307.68 313.204 318.728 321.611 327.134 332.658 338.182 342.023 347.546" y="-314.88">59 years</tspan></text></g><clipPath id="cp6607"><path id="path311" d="m 253.44,278.4 h 96.24 v 45.841 h -96.24 z" transform="matrix(1,0,0,-1,0,792)"/></clipPath><g id="g318" clip-path="url(#cp6607)"><text id="text316" font-family="Arial" font-size="10.08" font-weight="bold" transform="translate(0,792)" xml:space="preserve"><tspan id="tspan314" x="309.12 315.84 318.72 324.244 329.768 335.292 341.532 347.532" y="-303.36">Placebo</tspan></text></g><clipPath id="cp6608"><path id="path320" d="m 253.44,278.4 h 96.24 v 45.841 h -96.24 z" transform="matrix(1,0,0,-1,0,792)"/></clipPath><text id="text333" font-family="Arial" font-size="10.08" font-weight="bold" transform="translate(0,792)" xml:space="preserve"><tspan id="tspan331" x="312.24 319.437 325.437 330.961 336.484 342.008" y="-291.84">N=2049</tspan></text><clipPath id="cp6609"><path id="path335" d="m 253.44,278.4 h 96.24 v 45.841 h -96.24 z" transform="matrix(1,0,0,-1,0,792)"/></clipPath><clipPath id="cp6610"><path id="path346" d="m 253.44,278.4 h 96.24 v 45.841 h -96.24 z" transform="matrix(1,0,0,-1,0,792)"/></clipPath><g id="g353" clip-path="url(#cp6610)"><text id="text351" font-family="Arial" font-size="10.08" font-weight="bold" transform="translate(0,792)" xml:space="preserve"><tspan id="tspan349" x="323.04 329.28 332.162 335.522 343.919" y="-280.56">n (%)</tspan></text></g><clipPath id="cp6611"><path id="path355" d="m 253.44,278.4 h 96.24 v 45.841 h -96.24 z" transform="matrix(1,0,0,-1,0,792)"/></clipPath><clipPath id="cp6612"><path id="path366" d="m 349.68,278.4 h 96.241 v 45.841 H 349.68 Z" transform="matrix(1,0,0,-1,0,792)"/></clipPath><g id="g373" clip-path="url(#cp6612)"><text id="text371" font-family="Arial" font-size="10.08" font-weight="bold" transform="translate(0,792)" xml:space="preserve"><tspan id="tspan369" x="397.2" y="-314.88">≥</tspan></text></g><clipPath id="cp6613"><path id="path375" d="m 349.68,278.4 h 96.241 v 45.841 H 349.68 Z" transform="matrix(1,0,0,-1,0,792)"/></clipPath><g id="g382" clip-path="url(#cp6613)"><text id="text380" font-family="Arial" font-size="10.08" font-weight="bold" transform="translate(0,792)" xml:space="preserve"><tspan id="tspan378" x="402.72 408.244 413.768" y="-314.88">60</tspan></text></g><clipPath id="cp6614"><path id="path384" d="m 349.68,278.4 h 96.241 v 45.841 H 349.68 Z" transform="matrix(1,0,0,-1,0,792)"/></clipPath><g id="g391" clip-path="url(#cp6614)"><text id="text389" font-family="Arial" font-size="10.08" font-weight="bold" transform="translate(0,792)" xml:space="preserve"><tspan id="tspan387" x="416.64" y="-314.88">Y</tspan></text></g><clipPath id="cp6615"><path id="path393" d="m 349.68,278.4 h 96.241 v 45.841 H 349.68 Z" transform="matrix(1,0,0,-1,0,792)"/></clipPath><g id="g400" clip-path="url(#cp6615)"><text id="text398" font-family="Arial" font-size="10.08" font-weight="bold" transform="translate(0,792)" xml:space="preserve"><tspan id="tspan396" x="423.36 428.884 434.408 438.248 443.772" y="-314.88">ears</tspan></text></g><text id="text404" font-family="Arial" font-size="10.08" font-weight="bold" transform="translate(0,792)" xml:space="preserve"><tspan id="tspan402" x="379.92 386.88 393.12 398.644 404.167 407.048 414.245 422.165 428.886 434.409 437.289" y="-303.36">Ad26.COV2.S</tspan></text><clipPath id="cp6616"><path id="path406" d="m 349.68,278.4 h 96.241 v 45.841 H 349.68 Z" transform="matrix(1,0,0,-1,0,792)"/></clipPath><text id="text419" font-family="Arial" font-size="10.08" font-weight="bold" transform="translate(0,792)" xml:space="preserve"><tspan id="tspan417" x="408.48 415.677 421.677 427.201 432.724 438.248" y="-291.84">N=1320</tspan></text><clipPath id="cp6617"><path id="path421" d="m 349.68,278.4 h 96.241 v 45.841 H 349.68 Z" transform="matrix(1,0,0,-1,0,792)"/></clipPath><clipPath id="cp6618"><path id="path432" d="m 349.68,278.4 h 96.241 v 45.841 H 349.68 Z" transform="matrix(1,0,0,-1,0,792)"/></clipPath><g id="g439" clip-path="url(#cp6618)"><text id="text437" font-family="Arial" font-size="10.08" font-weight="bold" transform="translate(0,792)" xml:space="preserve"><tspan id="tspan435" x="419.28 425.519 428.402 431.762 440.159" y="-280.56">n (%)</tspan></text></g><clipPath id="cp6619"><path id="path441" d="m 349.68,278.4 h 96.241 v 45.841 H 349.68 Z" transform="matrix(1,0,0,-1,0,792)"/></clipPath><clipPath id="cp6620"><path id="path452" d="m 445.92,278.4 h 96.24006 v 45.841 H 445.92 Z" transform="matrix(1,0,0,-1,0,792)"/></clipPath><g id="g459" clip-path="url(#cp6620)"><text id="text457" font-family="Arial" font-size="10.08" font-weight="bold" transform="translate(0,792)" xml:space="preserve"><tspan id="tspan455" x="493.44" y="-314.88">≥</tspan></text></g><clipPath id="cp6621"><path id="path461" d="m 445.92,278.4 h 96.24006 v 45.841 H 445.92 Z" transform="matrix(1,0,0,-1,0,792)"/></clipPath><g id="g468" clip-path="url(#cp6621)"><text id="text466" font-family="Arial" font-size="10.08" font-weight="bold" transform="translate(0,792)" xml:space="preserve"><tspan id="tspan464" x="498.96 504.484 510.008" y="-314.88">60</tspan></text></g><clipPath id="cp6622"><path id="path470" d="m 445.92,278.4 h 96.24006 v 45.841 H 445.92 Z" transform="matrix(1,0,0,-1,0,792)"/></clipPath><g id="g477" clip-path="url(#cp6622)"><text id="text475" font-family="Arial" font-size="10.08" font-weight="bold" transform="translate(0,792)" xml:space="preserve"><tspan id="tspan473" x="512.88" y="-314.88">Y</tspan></text></g><clipPath id="cp6623"><path id="path479" d="m 445.92,278.4 h 96.24006 v 45.841 H 445.92 Z" transform="matrix(1,0,0,-1,0,792)"/></clipPath><g id="g486" clip-path="url(#cp6623)"><text id="text484" font-family="Arial" font-size="10.08" font-weight="bold" transform="translate(0,792)" xml:space="preserve"><tspan id="tspan482" x="519.6 525.124 530.648 534.488" y="-314.88">ears</tspan></text></g><clipPath id="cp6624"><path id="path488" d="m 445.92,278.4 h 96.24006 v 45.841 H 445.92 Z" transform="matrix(1,0,0,-1,0,792)"/></clipPath><clipPath id="cp6625"><path id="path499" d="m 445.92,278.4 h 96.24006 v 45.841 H 445.92 Z" transform="matrix(1,0,0,-1,0,792)"/></clipPath><g id="g506" clip-path="url(#cp6625)"><text id="text504" font-family="Arial" font-size="10.08" font-weight="bold" transform="translate(0,792)" xml:space="preserve"><tspan id="tspan502" x="501.6 508.32 511.2 516.724 522.248 527.772 534.012 540.012" y="-303.36">Placebo</tspan></text></g><clipPath id="cp6626"><path id="path508" d="m 445.92,278.4 h 96.24006 v 45.841 H 445.92 Z" transform="matrix(1,0,0,-1,0,792)"/></clipPath><text id="text521" font-family="Arial" font-size="10.08" font-weight="bold" transform="translate(0,792)" xml:space="preserve"><tspan id="tspan519" x="504.72 511.917 517.917 523.441 528.964 534.488" y="-291.84">N=1331</tspan></text><clipPath id="cp6627"><path id="path523" d="m 445.92,278.4 h 96.24006 v 45.841 H 445.92 Z" transform="matrix(1,0,0,-1,0,792)"/></clipPath><clipPath id="cp6628"><path id="path534" d="m 445.92,278.4 h 96.24006 v 45.841 H 445.92 Z" transform="matrix(1,0,0,-1,0,792)"/></clipPath><g id="g541" clip-path="url(#cp6628)"><text id="text539" font-family="Arial" font-size="10.08" font-weight="bold" transform="translate(0,792)" xml:space="preserve"><tspan id="tspan537" x="515.52 521.76 524.642 528.002 536.399" y="-280.56">n (%)</tspan></text></g><clipPath id="cp6629"><path id="path543" d="m 445.92,278.4 h 96.24006 v 45.841 H 445.92 Z" transform="matrix(1,0,0,-1,0,792)"/></clipPath><path id="path554" d="m 69.84,324.24 h 87.36 v 0.48 H 69.84 Z" transform="matrix(1,0,0,-1,0,792)"/><path id="path556" d="m 157.2,324.24 h 0.48 v 0.48 h -0.48 z" transform="matrix(1,0,0,-1,0,792)"/><path id="path558" d="m 157.68,324.24 h 95.76 v 0.48 h -95.76 z" transform="matrix(1,0,0,-1,0,792)"/><path id="path560" d="m 253.44,324.24 h 0.48 v 0.48 h -0.48 z" transform="matrix(1,0,0,-1,0,792)"/><path id="path562" d="m 253.92,324.24 h 95.76 v 0.48 h -95.76 z" transform="matrix(1,0,0,-1,0,792)"/><path id="path564" d="m 349.68,324.24 h 0.48099 v 0.48 H 349.68 Z" transform="matrix(1,0,0,-1,0,792)"/><path id="path566" d="m 350.16,324.24 h 95.76 v 0.48 h -95.76 z" transform="matrix(1,0,0,-1,0,792)"/><path id="path568" d="m 445.92,324.24 h 0.48003 v 0.48 H 445.92 Z" transform="matrix(1,0,0,-1,0,792)"/><path id="path570" d="m 446.4,324.24 h 95.76 v 0.48 H 446.4 Z" transform="matrix(1,0,0,-1,0,792)"/></g><g id="g701" data-name="P" transform="translate(-69.12,-446.29585)"><clipPath id="cp6630"><path id="path574" d="m 69.84,266.4 h 87.36 v 11.28 H 69.84 Z" transform="matrix(1,0,0,-1,0,792)"/></clipPath><g id="g581" clip-path="url(#cp6630)"><text id="text579" font-family="ArialMT" font-size="10.08" transform="translate(0,792)" xml:space="preserve"><tspan id="tspan577" x="72 78.72 84.244 89.284 92.167 97.691 103.215 108.255 113.779" y="-268.56">Any Local</tspan></text></g><clipPath id="cp6631"><path id="path583" d="m 69.84,266.4 h 87.36 v 11.28 H 69.84 Z" transform="matrix(1,0,0,-1,0,792)"/></clipPath><clipPath id="cp6632"><path id="path594" d="m 157.2,266.4 h 96.24 v 11.28 H 157.2 Z" transform="matrix(1,0,0,-1,0,792)"/></clipPath><g id="g601" clip-path="url(#cp6632)"><text id="text599" font-family="ArialMT" font-size="10.08" transform="translate(0,792)" xml:space="preserve"><tspan id="tspan597" x="191.28 196.804 202.328 207.851 213.375 216.258 219.618 225.142 230.666 233.545 239.069 247.95" y="-268.56">1218 (59.8%)</tspan></text></g><clipPath id="cp6633"><path id="path603" d="m 157.2,266.4 h 96.24 v 11.28 H 157.2 Z" transform="matrix(1,0,0,-1,0,792)"/></clipPath><clipPath id="cp6634"><path id="path614" d="m 253.44,266.4 h 96.24 v 11.28 h -96.24 z" transform="matrix(1,0,0,-1,0,792)"/></clipPath><g id="g621" clip-path="url(#cp6634)"><text id="text619" font-family="ArialMT" font-size="10.08" transform="translate(0,792)" xml:space="preserve"><tspan id="tspan617" x="293.04 298.564 304.088 309.612 312.494 315.855 321.379 326.903 329.783 335.306 344.187" y="-268.56">413 (20.2%)</tspan></text></g><clipPath id="cp6635"><path id="path623" d="m 253.44,266.4 h 96.24 v 11.28 h -96.24 z" transform="matrix(1,0,0,-1,0,792)"/></clipPath><clipPath id="cp6636"><path id="path634" d="m 349.68,266.4 h 96.241 v 11.28 H 349.68 Z" transform="matrix(1,0,0,-1,0,792)"/></clipPath><g id="g641" clip-path="url(#cp6636)"><text id="text639" font-family="ArialMT" font-size="10.08" transform="translate(0,792)" xml:space="preserve"><tspan id="tspan637" x="389.28 394.804 400.328 405.851" y="-268.56">467</tspan></text></g><clipPath id="cp6637"><path id="path643" d="m 349.68,266.4 h 96.241 v 11.28 H 349.68 Z" transform="matrix(1,0,0,-1,0,792)"/></clipPath><g id="g650" clip-path="url(#cp6637)"><text id="text648" font-family="ArialMT" font-size="10.08" transform="translate(0,792)" xml:space="preserve"><tspan id="tspan646" x="408.72 412.08 417.604 423.127 426.007 431.531 440.412" y="-268.56">(35.4%)</tspan></text></g><clipPath id="cp6638"><path id="path652" d="m 349.68,266.4 h 96.241 v 11.28 H 349.68 Z" transform="matrix(1,0,0,-1,0,792)"/></clipPath><clipPath id="cp6639"><path id="path663" d="m 445.92,266.4 h 96.24006 v 11.28 H 445.92 Z" transform="matrix(1,0,0,-1,0,792)"/></clipPath><g id="g670" clip-path="url(#cp6639)"><text id="text668" font-family="ArialMT" font-size="10.08" transform="translate(0,792)" xml:space="preserve"><tspan id="tspan666" x="485.52 491.044 496.568 502.091 504.974 508.335 513.859 519.383 522.263 527.787 536.667" y="-268.56">244 (18.3%)</tspan></text></g><clipPath id="cp6640"><path id="path672" d="m 445.92,266.4 h 96.24006 v 11.28 H 445.92 Z" transform="matrix(1,0,0,-1,0,792)"/></clipPath><path id="path683" d="m 69.84,277.92 h 87.36 v 0.48003 H 69.84 Z" transform="matrix(1,0,0,-1,0,792)"/><path id="path685" d="m 157.2,277.92 h 0.48 v 0.48003 h -0.48 z" transform="matrix(1,0,0,-1,0,792)"/><path id="path687" d="m 157.68,277.92 h 95.76 v 0.48003 h -95.76 z" transform="matrix(1,0,0,-1,0,792)"/><path id="path689" d="m 253.44,277.92 h 0.48 v 0.48003 h -0.48 z" transform="matrix(1,0,0,-1,0,792)"/><path id="path691" d="m 253.92,277.92 h 95.76 v 0.48003 h -95.76 z" transform="matrix(1,0,0,-1,0,792)"/><path id="path693" d="m 349.68,277.92 h 0.48099 v 0.48003 H 349.68 Z" transform="matrix(1,0,0,-1,0,792)"/><path id="path695" d="m 350.16,277.92 h 95.76 v 0.48003 h -95.76 z" transform="matrix(1,0,0,-1,0,792)"/><path id="path697" d="m 445.92,277.92 h 0.48003 v 0.48003 H 445.92 Z" transform="matrix(1,0,0,-1,0,792)"/><path id="path699" d="m 446.4,277.92 h 95.76 v 0.48003 H 446.4 Z" transform="matrix(1,0,0,-1,0,792)"/></g><g id="g930" data-name="P" transform="translate(-69.12,-446.29585)"><clipPath id="cp6641"><path id="path703" d="M 69.84,254.88 H 157.2 V 266.4 H 69.84 Z" transform="matrix(1,0,0,-1,0,792)"/></clipPath><g id="g710" clip-path="url(#cp6641)"><text id="text708" font-family="ArialMT" font-size="10.08" transform="translate(0,792)" xml:space="preserve"><tspan id="tspan706" x="82.8 90.72 94.08 99.603 105.127 110.651 113.534" y="-257.04">Grade 3</tspan></text></g><clipPath id="cp6642"><path id="path712" d="M 69.84,254.88 H 157.2 V 266.4 H 69.84 Z" transform="matrix(1,0,0,-1,0,792)"/></clipPath><clipPath id="cp6643"><path id="path723" d="m 157.2,254.88 h 96.24 V 266.4 H 157.2 Z" transform="matrix(1,0,0,-1,0,792)"/></clipPath><g id="g730" clip-path="url(#cp6643)"><text id="text728" font-family="ArialMT" font-size="10.08" transform="translate(0,792)" xml:space="preserve"><tspan id="tspan726" x="207.84 213.364 218.888 221.771 225.131 230.655 233.535 239.059 247.939" y="-257.04">18 (0.9%)</tspan></text></g><clipPath id="cp6644"><path id="path732" d="m 157.2,254.88 h 96.24 V 266.4 H 157.2 Z" transform="matrix(1,0,0,-1,0,792)"/></clipPath><clipPath id="cp6645"><path id="path743" d="m 253.44,254.88 h 96.24 v 11.52 h -96.24 z" transform="matrix(1,0,0,-1,0,792)"/></clipPath><g id="g750" clip-path="url(#cp6645)"><text id="text748" font-family="ArialMT" font-size="10.08" transform="translate(0,792)" xml:space="preserve"><tspan id="tspan746" x="309.84 315.364 318.247 321.607 327.131 330.011 335.535 344.415" y="-257.04">4 (0.2%)</tspan></text></g><clipPath id="cp6646"><path id="path752" d="m 253.44,254.88 h 96.24 v 11.52 h -96.24 z" transform="matrix(1,0,0,-1,0,792)"/></clipPath><clipPath id="cp6647"><path id="path763" d="m 349.68,254.88 h 96.241 V 266.4 H 349.68 Z" transform="matrix(1,0,0,-1,0,792)"/></clipPath><g id="g770" clip-path="url(#cp6647)"><text id="text768" font-family="ArialMT" font-size="10.08" transform="translate(0,792)" xml:space="preserve"><tspan id="tspan766" x="406.08 411.604 414.487 417.847 423.371 426.251 431.775 440.655" y="-257.04">5 (0.4%)</tspan></text></g><clipPath id="cp6648"><path id="path772" d="m 349.68,254.88 h 96.241 V 266.4 H 349.68 Z" transform="matrix(1,0,0,-1,0,792)"/></clipPath><clipPath id="cp6649"><path id="path783" d="m 445.92,254.88 h 96.24006 V 266.4 H 445.92 Z" transform="matrix(1,0,0,-1,0,792)"/></clipPath><g id="g790" clip-path="url(#cp6649)"><text id="text788" font-family="ArialMT" font-size="10.08" transform="translate(0,792)" xml:space="preserve"><tspan id="tspan786" x="502.32 507.844 510.727 514.086 519.61 522.49 528.014 536.894" y="-257.04">2 (0.2%)</tspan></text></g><clipPath id="cp6650"><path id="path792" d="m 445.92,254.88 h 96.24006 V 266.4 H 445.92 Z" transform="matrix(1,0,0,-1,0,792)"/></clipPath><clipPath id="cp6651"><path id="path803" d="m 69.84,242.88 h 87.36 v 11.52001 H 69.84 Z" transform="matrix(1,0,0,-1,0,792)"/></clipPath><g id="g810" clip-path="url(#cp6651)"><text id="text808" font-family="ArialMT" font-size="10.08" transform="translate(0,792)" xml:space="preserve"><tspan id="tspan806" x="72 78.72 84.244 86.644" y="-245.04">Pain</tspan></text></g><clipPath id="cp6652"><path id="path812" d="m 69.84,242.88 h 87.36 v 11.52001 H 69.84 Z" transform="matrix(1,0,0,-1,0,792)"/></clipPath><g id="g819" clip-path="url(#cp6652)"><text id="text817" font-family="ArialMT" font-size="6.48" transform="translate(0,792)" xml:space="preserve"><tspan id="tspan815" x="92.16" y="-248.64">b</tspan></text></g><clipPath id="cp6653"><path id="path821" d="m 69.84,242.88 h 87.36 v 11.52001 H 69.84 Z" transform="matrix(1,0,0,-1,0,792)"/></clipPath><clipPath id="cp6654"><path id="path832" d="m 157.2,242.88 h 96.24 v 11.52001 H 157.2 Z" transform="matrix(1,0,0,-1,0,792)"/></clipPath><g id="g839" clip-path="url(#cp6654)"><text id="text837" font-family="ArialMT" font-size="10.08" transform="translate(0,792)" xml:space="preserve"><tspan id="tspan835" x="191.28 196.804 202.328 207.851 213.375 216.258 219.618 225.142 230.666 233.545 239.069 247.95" y="-245.04">1193 (58.6%)</tspan></text></g><clipPath id="cp6655"><path id="path841" d="m 157.2,242.88 h 96.24 v 11.52001 H 157.2 Z" transform="matrix(1,0,0,-1,0,792)"/></clipPath><clipPath id="cp6656"><path id="path852" d="m 253.44,242.88 h 96.24 v 11.52001 h -96.24 z" transform="matrix(1,0,0,-1,0,792)"/></clipPath><g id="g859" clip-path="url(#cp6656)"><text id="text857" font-family="ArialMT" font-size="10.08" transform="translate(0,792)" xml:space="preserve"><tspan id="tspan855" x="293.04 298.564 304.088 309.612 312.494 315.855 321.379 326.903 329.783 335.306 344.187" y="-245.04">357 (17.4%)</tspan></text></g><clipPath id="cp6657"><path id="path861" d="m 253.44,242.88 h 96.24 v 11.52001 h -96.24 z" transform="matrix(1,0,0,-1,0,792)"/></clipPath><clipPath id="cp6658"><path id="path872" d="m 349.68,242.88 h 96.241 v 11.52001 H 349.68 Z" transform="matrix(1,0,0,-1,0,792)"/></clipPath><g id="g879" clip-path="url(#cp6658)"><text id="text877" font-family="ArialMT" font-size="10.08" transform="translate(0,792)" xml:space="preserve"><tspan id="tspan875" x="389.28 394.804 400.328 405.851 408.734 412.095 417.619 423.143 426.023 431.546 440.427" y="-245.04">439 (33.3%)</tspan></text></g><clipPath id="cp6659"><path id="path881" d="m 349.68,242.88 h 96.241 v 11.52001 H 349.68 Z" transform="matrix(1,0,0,-1,0,792)"/></clipPath><clipPath id="cp6660"><path id="path892" d="m 445.92,242.88 h 96.24006 v 11.52001 H 445.92 Z" transform="matrix(1,0,0,-1,0,792)"/></clipPath><g id="g899" clip-path="url(#cp6660)"><text id="text897" font-family="ArialMT" font-size="10.08" transform="translate(0,792)" xml:space="preserve"><tspan id="tspan895" x="485.52 491.044 496.568 502.091 504.974 508.335 513.859 519.383 522.263 527.787 536.667" y="-245.04">207 (15.6%)</tspan></text></g><clipPath id="cp6661"><path id="path901" d="m 445.92,242.88 h 96.24006 v 11.52001 H 445.92 Z" transform="matrix(1,0,0,-1,0,792)"/></clipPath><path id="path912" d="m 69.84,254.4 h 87.36 v 0.47999 H 69.84 Z" transform="matrix(1,0,0,-1,0,792)"/><path id="path914" d="m 157.2,254.4 h 0.48 v 0.47999 h -0.48 z" transform="matrix(1,0,0,-1,0,792)"/><path id="path916" d="m 157.68,254.4 h 95.76 v 0.47999 h -95.76 z" transform="matrix(1,0,0,-1,0,792)"/><path id="path918" d="m 253.44,254.4 h 0.48 v 0.47999 h -0.48 z" transform="matrix(1,0,0,-1,0,792)"/><path id="path920" d="m 253.92,254.4 h 95.76 v 0.47999 h -95.76 z" transform="matrix(1,0,0,-1,0,792)"/><path id="path922" d="m 349.68,254.4 h 0.48099 v 0.47999 H 349.68 Z" transform="matrix(1,0,0,-1,0,792)"/><path id="path924" d="m 350.16,254.4 h 95.76 v 0.47999 h -95.76 z" transform="matrix(1,0,0,-1,0,792)"/><path id="path926" d="m 445.92,254.4 h 0.48003 v 0.47999 H 445.92 Z" transform="matrix(1,0,0,-1,0,792)"/><path id="path928" d="m 446.4,254.4 h 95.76 v 0.47999 H 446.4 Z" transform="matrix(1,0,0,-1,0,792)"/></g><g id="g1159" data-name="P" transform="translate(-69.12,-446.29585)"><clipPath id="cp6662"><path id="path932" d="m 69.84,231.36 h 87.36 v 11.52 H 69.84 Z" transform="matrix(1,0,0,-1,0,792)"/></clipPath><g id="g939" clip-path="url(#cp6662)"><text id="text937" font-family="ArialMT" font-size="10.08" transform="translate(0,792)" xml:space="preserve"><tspan id="tspan935" x="82.8 90.72 94.08 99.603 105.127 110.651 113.534" y="-233.52">Grade 3</tspan></text></g><clipPath id="cp6663"><path id="path941" d="m 69.84,231.36 h 87.36 v 11.52 H 69.84 Z" transform="matrix(1,0,0,-1,0,792)"/></clipPath><clipPath id="cp6664"><path id="path952" d="m 157.2,231.36 h 96.24 v 11.52 H 157.2 Z" transform="matrix(1,0,0,-1,0,792)"/></clipPath><g id="g959" clip-path="url(#cp6664)"><text id="text957" font-family="ArialMT" font-size="10.08" transform="translate(0,792)" xml:space="preserve"><tspan id="tspan955" x="213.6 219.124 222.007 225.367 230.891 233.771 239.295 248.175" y="-233.52">8 (0.4%)</tspan></text></g><clipPath id="cp6665"><path id="path961" d="m 157.2,231.36 h 96.24 v 11.52 H 157.2 Z" transform="matrix(1,0,0,-1,0,792)"/></clipPath><clipPath id="cp6666"><path id="path972" d="m 253.44,231.36 h 96.24 v 11.52 h -96.24 z" transform="matrix(1,0,0,-1,0,792)"/></clipPath><g id="g979" clip-path="url(#cp6666)"><text id="text977" font-family="ArialMT" font-size="10.08" transform="translate(0,792)" xml:space="preserve"><tspan id="tspan975" x="342" y="-233.52">0</tspan></text></g><clipPath id="cp6667"><path id="path981" d="m 253.44,231.36 h 96.24 v 11.52 h -96.24 z" transform="matrix(1,0,0,-1,0,792)"/></clipPath><clipPath id="cp6668"><path id="path992" d="m 349.68,231.36 h 96.241 v 11.52 H 349.68 Z" transform="matrix(1,0,0,-1,0,792)"/></clipPath><g id="g999" clip-path="url(#cp6668)"><text id="text997" font-family="ArialMT" font-size="10.08" transform="translate(0,792)" xml:space="preserve"><tspan id="tspan995" x="406.08 411.604 414.487 417.847 423.371 426.251 431.775 440.655" y="-233.52">3 (0.2%)</tspan></text></g><clipPath id="cp6669"><path id="path1001" d="m 349.68,231.36 h 96.241 v 11.52 H 349.68 Z" transform="matrix(1,0,0,-1,0,792)"/></clipPath><clipPath id="cp6670"><path id="path1012" d="m 445.92,231.36 h 96.24006 v 11.52 H 445.92 Z" transform="matrix(1,0,0,-1,0,792)"/></clipPath><g id="g1019" clip-path="url(#cp6670)"><text id="text1017" font-family="ArialMT" font-size="10.08" transform="translate(0,792)" xml:space="preserve"><tspan id="tspan1015" x="502.32 507.844 510.727 514.086 519.61 522.49 528.014 536.894" y="-233.52">2 (0.2%)</tspan></text></g><clipPath id="cp6671"><path id="path1021" d="m 445.92,231.36 h 96.24006 v 11.52 H 445.92 Z" transform="matrix(1,0,0,-1,0,792)"/></clipPath><clipPath id="cp6672"><path id="path1032" d="m 69.84,219.36 h 87.36 v 11.52 H 69.84 Z" transform="matrix(1,0,0,-1,0,792)"/></clipPath><g id="g1039" clip-path="url(#cp6672)"><text id="text1037" font-family="ArialMT" font-size="10.08" transform="translate(0,792)" xml:space="preserve"><tspan id="tspan1035" x="72 78.723 82.08 87.12 90 95.52 100.8 109.44" y="-221.52">Erythema</tspan></text></g><clipPath id="cp6673"><path id="path1041" d="m 69.84,219.36 h 87.36 v 11.52 H 69.84 Z" transform="matrix(1,0,0,-1,0,792)"/></clipPath><g id="g1048" clip-path="url(#cp6673)"><text id="text1046" font-family="ArialMT" font-size="6.48" transform="translate(0,792)" xml:space="preserve"><tspan id="tspan1044" x="114.96" y="-225.12">c</tspan></text></g><clipPath id="cp6674"><path id="path1050" d="m 69.84,219.36 h 87.36 v 11.52 H 69.84 Z" transform="matrix(1,0,0,-1,0,792)"/></clipPath><clipPath id="cp6675"><path id="path1061" d="m 157.2,219.36 h 96.24 v 11.52 H 157.2 Z" transform="matrix(1,0,0,-1,0,792)"/></clipPath><g id="g1068" clip-path="url(#cp6675)"><text id="text1066" font-family="ArialMT" font-size="10.08" transform="translate(0,792)" xml:space="preserve"><tspan id="tspan1064" x="202.32 207.844 213.368 218.892 221.774 225.135 230.659 233.539 239.063 247.943" y="-221.52">184 (9.0%)</tspan></text></g><clipPath id="cp6676"><path id="path1070" d="m 157.2,219.36 h 96.24 v 11.52 H 157.2 Z" transform="matrix(1,0,0,-1,0,792)"/></clipPath><clipPath id="cp6677"><path id="path1081" d="m 253.44,219.36 h 96.24 v 11.52 h -96.24 z" transform="matrix(1,0,0,-1,0,792)"/></clipPath><g id="g1088" clip-path="url(#cp6677)"><text id="text1086" font-family="ArialMT" font-size="10.08" transform="translate(0,792)" xml:space="preserve"><tspan id="tspan1084" x="304.08 309.604 315.128 318.011 321.371 326.895 329.775 335.299 344.179" y="-221.52">89 (4.3%)</tspan></text></g><clipPath id="cp6678"><path id="path1090" d="m 253.44,219.36 h 96.24 v 11.52 h -96.24 z" transform="matrix(1,0,0,-1,0,792)"/></clipPath><clipPath id="cp6679"><path id="path1101" d="m 349.68,219.36 h 96.241 v 11.52 H 349.68 Z" transform="matrix(1,0,0,-1,0,792)"/></clipPath><g id="g1108" clip-path="url(#cp6679)"><text id="text1106" font-family="ArialMT" font-size="10.08" transform="translate(0,792)" xml:space="preserve"><tspan id="tspan1104" x="400.32 405.844 411.368 414.251 417.611 423.135 426.015 431.539 440.419" y="-221.52">61 (4.6%)</tspan></text></g><clipPath id="cp6680"><path id="path1110" d="m 349.68,219.36 h 96.241 v 11.52 H 349.68 Z" transform="matrix(1,0,0,-1,0,792)"/></clipPath><clipPath id="cp6681"><path id="path1121" d="m 445.92,219.36 h 96.24006 v 11.52 H 445.92 Z" transform="matrix(1,0,0,-1,0,792)"/></clipPath><g id="g1128" clip-path="url(#cp6681)"><text id="text1126" font-family="ArialMT" font-size="10.08" transform="translate(0,792)" xml:space="preserve"><tspan id="tspan1124" x="496.56 502.084 507.608 510.491 513.851 519.375 522.255 527.779 536.659" y="-221.52">42 (3.2%)</tspan></text></g><clipPath id="cp6682"><path id="path1130" d="m 445.92,219.36 h 96.24006 v 11.52 H 445.92 Z" transform="matrix(1,0,0,-1,0,792)"/></clipPath><path id="path1141" d="m 69.84,230.88 h 87.36 v 0.48101 H 69.84 Z" transform="matrix(1,0,0,-1,0,792)"/><path id="path1143" d="m 157.2,230.88 h 0.48 v 0.48101 h -0.48 z" transform="matrix(1,0,0,-1,0,792)"/><path id="path1145" d="m 157.68,230.88 h 95.76 v 0.48101 h -95.76 z" transform="matrix(1,0,0,-1,0,792)"/><path id="path1147" d="m 253.44,230.88 h 0.48 v 0.48101 h -0.48 z" transform="matrix(1,0,0,-1,0,792)"/><path id="path1149" d="m 253.92,230.88 h 95.76 v 0.48101 h -95.76 z" transform="matrix(1,0,0,-1,0,792)"/><path id="path1151" d="m 349.68,230.88 h 0.48099 v 0.48101 H 349.68 Z" transform="matrix(1,0,0,-1,0,792)"/><path id="path1153" d="m 350.16,230.88 h 95.76 v 0.48101 h -95.76 z" transform="matrix(1,0,0,-1,0,792)"/><path id="path1155" d="m 445.92,230.88 h 0.48003 v 0.48101 H 445.92 Z" transform="matrix(1,0,0,-1,0,792)"/><path id="path1157" d="m 446.4,230.88 h 95.76 v 0.48101 H 446.4 Z" transform="matrix(1,0,0,-1,0,792)"/></g><g id="g1388" data-name="P" transform="translate(-69.12,-446.29585)"><clipPath id="cp6683"><path id="path1161" d="m 69.84,207.84 h 87.36 v 11.52 H 69.84 Z" transform="matrix(1,0,0,-1,0,792)"/></clipPath><g id="g1168" clip-path="url(#cp6683)"><text id="text1166" font-family="ArialMT" font-size="10.08" transform="translate(0,792)" xml:space="preserve"><tspan id="tspan1164" x="82.8 90.72 94.08 99.603 105.127 110.651 113.534" y="-210">Grade 3</tspan></text></g><clipPath id="cp6684"><path id="path1170" d="m 69.84,207.84 h 87.36 v 11.52 H 69.84 Z" transform="matrix(1,0,0,-1,0,792)"/></clipPath><clipPath id="cp6685"><path id="path1181" d="m 157.2,207.84 h 96.24 v 11.52 H 157.2 Z" transform="matrix(1,0,0,-1,0,792)"/></clipPath><g id="g1188" clip-path="url(#cp6685)"><text id="text1186" font-family="ArialMT" font-size="10.08" transform="translate(0,792)" xml:space="preserve"><tspan id="tspan1184" x="213.6 219.124 222.007 225.367 230.891 233.771 239.295 248.175" y="-210">6 (0.3%)</tspan></text></g><clipPath id="cp6686"><path id="path1190" d="m 157.2,207.84 h 96.24 v 11.52 H 157.2 Z" transform="matrix(1,0,0,-1,0,792)"/></clipPath><clipPath id="cp6687"><path id="path1201" d="m 253.44,207.84 h 96.24 v 11.52 h -96.24 z" transform="matrix(1,0,0,-1,0,792)"/></clipPath><g id="g1208" clip-path="url(#cp6687)"><text id="text1206" font-family="ArialMT" font-size="10.08" transform="translate(0,792)" xml:space="preserve"><tspan id="tspan1204" x="309.84 315.364 318.247 321.607 327.131 330.011 335.535 344.415" y="-210">2 (0.1%)</tspan></text></g><clipPath id="cp6688"><path id="path1210" d="m 253.44,207.84 h 96.24 v 11.52 h -96.24 z" transform="matrix(1,0,0,-1,0,792)"/></clipPath><clipPath id="cp6689"><path id="path1221" d="m 349.68,207.84 h 96.241 v 11.52 H 349.68 Z" transform="matrix(1,0,0,-1,0,792)"/></clipPath><g id="g1228" clip-path="url(#cp6689)"><text id="text1226" font-family="ArialMT" font-size="10.08" transform="translate(0,792)" xml:space="preserve"><tspan id="tspan1224" x="406.08 411.604 414.487 417.847 423.371 426.251 431.775 440.655" y="-210">1 (0.1%)</tspan></text></g><clipPath id="cp6690"><path id="path1230" d="m 349.68,207.84 h 96.241 v 11.52 H 349.68 Z" transform="matrix(1,0,0,-1,0,792)"/></clipPath><clipPath id="cp6691"><path id="path1241" d="m 445.92,207.84 h 96.24006 v 11.52 H 445.92 Z" transform="matrix(1,0,0,-1,0,792)"/></clipPath><g id="g1248" clip-path="url(#cp6691)"><text id="text1246" font-family="ArialMT" font-size="10.08" transform="translate(0,792)" xml:space="preserve"><tspan id="tspan1244" x="534.48" y="-210">0</tspan></text></g><clipPath id="cp6692"><path id="path1250" d="m 445.92,207.84 h 96.24006 v 11.52 H 445.92 Z" transform="matrix(1,0,0,-1,0,792)"/></clipPath><clipPath id="cp6693"><path id="path1261" d="m 69.84,195.84 h 87.36 v 11.52 H 69.84 Z" transform="matrix(1,0,0,-1,0,792)"/></clipPath><g id="g1268" clip-path="url(#cp6693)"><text id="text1266" font-family="ArialMT" font-size="10.08" transform="translate(0,792)" xml:space="preserve"><tspan id="tspan1264" x="72 78.72 85.68 91.199 93.598 95.997 98.397 103.916" y="-198">Swelling</tspan></text></g><clipPath id="cp6694"><path id="path1270" d="m 69.84,195.84 h 87.36 v 11.52 H 69.84 Z" transform="matrix(1,0,0,-1,0,792)"/></clipPath><g id="g1277" clip-path="url(#cp6694)"><text id="text1275" font-family="ArialMT" font-size="6.48" transform="translate(0,792)" xml:space="preserve"><tspan id="tspan1273" x="109.44" y="-201.6">b</tspan></text></g><clipPath id="cp6695"><path id="path1279" d="m 69.84,195.84 h 87.36 v 11.52 H 69.84 Z" transform="matrix(1,0,0,-1,0,792)"/></clipPath><clipPath id="cp6696"><path id="path1290" d="m 157.2,195.84 h 96.24 v 11.52 H 157.2 Z" transform="matrix(1,0,0,-1,0,792)"/></clipPath><g id="g1297" clip-path="url(#cp6696)"><text id="text1295" font-family="ArialMT" font-size="10.08" transform="translate(0,792)" xml:space="preserve"><tspan id="tspan1293" x="202.32 207.844 213.368 218.892 221.774 225.135 230.659 233.539 239.063 247.943" y="-198">142 (7.0%)</tspan></text></g><clipPath id="cp6697"><path id="path1299" d="m 157.2,195.84 h 96.24 v 11.52 H 157.2 Z" transform="matrix(1,0,0,-1,0,792)"/></clipPath><clipPath id="cp6698"><path id="path1310" d="m 253.44,195.84 h 96.24 v 11.52 h -96.24 z" transform="matrix(1,0,0,-1,0,792)"/></clipPath><g id="g1317" clip-path="url(#cp6698)"><text id="text1315" font-family="ArialMT" font-size="10.08" transform="translate(0,792)" xml:space="preserve"><tspan id="tspan1313" x="304.08 309.604 315.128 318.011 321.371 326.895 329.775 335.299 344.179" y="-198">32 (1.6%)</tspan></text></g><clipPath id="cp6699"><path id="path1319" d="m 253.44,195.84 h 96.24 v 11.52 h -96.24 z" transform="matrix(1,0,0,-1,0,792)"/></clipPath><clipPath id="cp6700"><path id="path1330" d="m 349.68,195.84 h 96.241 v 11.52 H 349.68 Z" transform="matrix(1,0,0,-1,0,792)"/></clipPath><g id="g1337" clip-path="url(#cp6700)"><text id="text1335" font-family="ArialMT" font-size="10.08" transform="translate(0,792)" xml:space="preserve"><tspan id="tspan1333" x="400.32 405.844 411.368 414.251 417.611 423.135 426.015 431.539 440.419" y="-198">36 (2.7%)</tspan></text></g><clipPath id="cp6701"><path id="path1339" d="m 349.68,195.84 h 96.241 v 11.52 H 349.68 Z" transform="matrix(1,0,0,-1,0,792)"/></clipPath><clipPath id="cp6702"><path id="path1350" d="m 445.92,195.84 h 96.24006 v 11.52 H 445.92 Z" transform="matrix(1,0,0,-1,0,792)"/></clipPath><g id="g1357" clip-path="url(#cp6702)"><text id="text1355" font-family="ArialMT" font-size="10.08" transform="translate(0,792)" xml:space="preserve"><tspan id="tspan1353" x="496.56 502.084 507.608 510.491 513.851 519.375 522.255 527.779 536.659" y="-198">21 (1.6%)</tspan></text></g><clipPath id="cp6703"><path id="path1359" d="m 445.92,195.84 h 96.24006 v 11.52 H 445.92 Z" transform="matrix(1,0,0,-1,0,792)"/></clipPath><path id="path1370" d="m 69.84,207.36 h 87.36 v 0.48 H 69.84 Z" transform="matrix(1,0,0,-1,0,792)"/><path id="path1372" d="m 157.2,207.36 h 0.48 v 0.48 h -0.48 z" transform="matrix(1,0,0,-1,0,792)"/><path id="path1374" d="m 157.68,207.36 h 95.76 v 0.48 h -95.76 z" transform="matrix(1,0,0,-1,0,792)"/><path id="path1376" d="m 253.44,207.36 h 0.48 v 0.48 h -0.48 z" transform="matrix(1,0,0,-1,0,792)"/><path id="path1378" d="m 253.92,207.36 h 95.76 v 0.48 h -95.76 z" transform="matrix(1,0,0,-1,0,792)"/><path id="path1380" d="m 349.68,207.36 h 0.48099 v 0.48 H 349.68 Z" transform="matrix(1,0,0,-1,0,792)"/><path id="path1382" d="m 350.16,207.36 h 95.76 v 0.48 h -95.76 z" transform="matrix(1,0,0,-1,0,792)"/><path id="path1384" d="m 445.92,207.36 h 0.48003 v 0.48 H 445.92 Z" transform="matrix(1,0,0,-1,0,792)"/><path id="path1386" d="m 446.4,207.36 h 95.76 v 0.48 H 446.4 Z" transform="matrix(1,0,0,-1,0,792)"/></g><g id="g1508" data-name="P" transform="translate(-69.12,-446.29585)"><clipPath id="cp6704"><path id="path1390" d="m 69.84,184.32 h 87.36 v 11.52001 H 69.84 Z" transform="matrix(1,0,0,-1,0,792)"/></clipPath><g id="g1397" clip-path="url(#cp6704)"><text id="text1395" font-family="ArialMT" font-size="10.08" transform="translate(0,792)" xml:space="preserve"><tspan id="tspan1393" x="82.8 90.72 94.08 99.603 105.127 110.651 113.534" y="-186.48">Grade 3</tspan></text></g><clipPath id="cp6705"><path id="path1399" d="m 69.84,184.32 h 87.36 v 11.52001 H 69.84 Z" transform="matrix(1,0,0,-1,0,792)"/></clipPath><clipPath id="cp6706"><path id="path1410" d="m 157.2,184.32 h 96.24 v 11.52001 H 157.2 Z" transform="matrix(1,0,0,-1,0,792)"/></clipPath><g id="g1417" clip-path="url(#cp6706)"><text id="text1415" font-family="ArialMT" font-size="10.08" transform="translate(0,792)" xml:space="preserve"><tspan id="tspan1413" x="213.6 219.124 222.007 225.367 230.891 233.771 239.295 248.175" y="-186.48">5 (0.2%)</tspan></text></g><clipPath id="cp6707"><path id="path1419" d="m 157.2,184.32 h 96.24 v 11.52001 H 157.2 Z" transform="matrix(1,0,0,-1,0,792)"/></clipPath><clipPath id="cp6708"><path id="path1430" d="m 253.44,184.32 h 96.24 v 11.52001 h -96.24 z" transform="matrix(1,0,0,-1,0,792)"/></clipPath><g id="g1437" clip-path="url(#cp6708)"><text id="text1435" font-family="ArialMT" font-size="10.08" transform="translate(0,792)" xml:space="preserve"><tspan id="tspan1433" x="309.84 315.364 318.247 321.607 327.131 330.011 335.535 344.415" y="-186.48">2 (0.1%)</tspan></text></g><clipPath id="cp6709"><path id="path1439" d="m 253.44,184.32 h 96.24 v 11.52001 h -96.24 z" transform="matrix(1,0,0,-1,0,792)"/></clipPath><clipPath id="cp6710"><path id="path1450" d="m 349.68,184.32 h 96.241 v 11.52001 H 349.68 Z" transform="matrix(1,0,0,-1,0,792)"/></clipPath><g id="g1457" clip-path="url(#cp6710)"><text id="text1455" font-family="ArialMT" font-size="10.08" transform="translate(0,792)" xml:space="preserve"><tspan id="tspan1453" x="406.08 411.604 414.487 417.847 423.371 426.251 431.775 440.655" y="-186.48">2 (0.2%)</tspan></text></g><clipPath id="cp6711"><path id="path1459" d="m 349.68,184.32 h 96.241 v 11.52001 H 349.68 Z" transform="matrix(1,0,0,-1,0,792)"/></clipPath><clipPath id="cp6712"><path id="path1470" d="m 445.92,184.32 h 96.24006 v 11.52001 H 445.92 Z" transform="matrix(1,0,0,-1,0,792)"/></clipPath><g id="g1477" clip-path="url(#cp6712)"><text id="text1475" font-family="ArialMT" font-size="10.08" transform="translate(0,792)" xml:space="preserve"><tspan id="tspan1473" x="534.48" y="-186.48">0</tspan></text></g><clipPath id="cp6713"><path id="path1479" d="m 445.92,184.32 h 96.24006 v 11.52001 H 445.92 Z" transform="matrix(1,0,0,-1,0,792)"/></clipPath><path id="path1490" d="m 69.12,183.84 h 88.08001 v 0.47999 H 69.12 Z" transform="matrix(1,0,0,-1,0,792)"/><path id="path1492" d="m 156.48,183.84 h 0.47999 v 0.47999 H 156.48 Z" transform="matrix(1,0,0,-1,0,792)"/><path id="path1494" d="m 156.96,183.84 h 96.48 v 0.47999 h -96.48 z" transform="matrix(1,0,0,-1,0,792)"/><path id="path1496" d="m 252.72,183.84 h 0.48 v 0.47999 h -0.48 z" transform="matrix(1,0,0,-1,0,792)"/><path id="path1498" d="m 253.2,183.84 h 96.48 v 0.47999 H 253.2 Z" transform="matrix(1,0,0,-1,0,792)"/><path id="path1500" d="m 348.96,183.84 h 0.48099 v 0.47999 H 348.96 Z" transform="matrix(1,0,0,-1,0,792)"/><path id="path1502" d="m 349.44,183.84 h 96.48 v 0.47999 h -96.48 z" transform="matrix(1,0,0,-1,0,792)"/><path id="path1504" d="m 445.2,183.84 h 0.48003 v 0.47999 H 445.2 Z" transform="matrix(1,0,0,-1,0,792)"/><path id="path1506" d="m 445.68,183.84 h 96.48 v 0.47999 h -96.48 z" transform="matrix(1,0,0,-1,0,792)"/></g><text id="text1528" x="-69.12" y="345.704" font-family="ArialMT" font-size="7.92" xml:space="preserve"><tspan id="tspan1526" x="2.88 8.4 12.48 16.796 19.436 23.756 28.073 30.233 32.398 37.918 42.478 46.794 51.11 55.43 59.51 62.39 64.552 69.593 73.909 78.225 80.145 84.462 86.624 91.664 96.947 101.747 107.267 112.55 117.832 124.073 128.633 132.953 139.193 144.953 149.512 154.081" y="169.304">Source: Sponsor Table TSFAESOLLOC27</tspan></text><text id="text1532" x="-69.12" y="345.704" font-family="ArialMT" font-size="5.04" xml:space="preserve"><tspan id="tspan1530" x="2.88" y="175.544">a</tspan></text><text id="text1540" x="-69.12" y="345.704" font-family="ArialMT" font-size="7.92" xml:space="preserve"><tspan id="tspan1534" x="5.76 7.922 13.442 17.522 19.922 24.238 26.638 30.478 32.64 36.721 41.037 45.354 49.673 53.99 56.163 58.325 60.725 66.005 70.565 74.885 79.205 83.283 85.443 87.843 91.922 94.321 96.721 101.521 106.081 107.761 109.449 112.086 117.606 122.167 126.483 128.403 132.003 136.324 138.003 142.083 144.245 149.765 154.081 156.241 158.403 161.044 165.123 167.764 170.163 174.48 179.039 183.356 185.276 188.875 193.196 194.875 198.956 201.356 205.436 207.836 209.998 214.318 218.398 220.318 221.998 226.077 227.756 230.156 234.476 238.806 241.206 245.766 250.082 254.399 256.799 261.115 265.431 269.752 274.068 275.749 277.429 281.508 283.429 285.829 290.145 294.461 296.624 302.144 307.424 311.504 313.666" y="178.664">Safety subset: Subset of Full-Analysis Set for analysis of solicited and unsolicited AEs </tspan><tspan id="tspan1536" x="2.885 7.201 9.364 14.163 16.325 20.886 25.202 31.922 36.482 40.799 43.443 45.606 49.684 52.084 54.001 58.561 62.877 65.517 67.678 69.358 73.438 75.358 79.917 84.234 88.55 90.71 94.805 96.967 102.727 104.406 106.566 110.89 112.807 116.887 121.447 125.763 129.843 131.522 133.923 135.843 140.159 144.476 146.403 149.283 153.599 157.916 161.996 164.156 166.076 170.392 174.963" y="187.788">n = number of participants with specified reaction </tspan><tspan id="tspan1538" x="2.885 8.643 10.805 15.367 17.767 22.083 26.645 33.124 37.686 42.006 44.639 46.801 50.88 53.28 55.442 60.004 63.844 68.406 72.485 76.805 81.125 85.687 87.605 92.167 96.487 99.127 101.527 103.207 107.286 108.966 113.528 117.849 122.411 124.568 128.647 130.809 136.329 140.889 145.207 147.124 151.204 155.521 160.081 166.801 168.481 170.641 173.041 177.357 181.925 184.087 188.403 192.963 196.806 198.723 203.282 207.599 209.999 214.08 215.996 218.636 222.715 225.595 227.512 229.674 234.235 238.552 240.715 245.031 248.871 253.188 257.747 259.908 262.075 264.237 268.797 272.877 275.517 279.837 284.154 288.47 290.87 295.187 299.747 304.064 308.153 310.316 314.632 317.513 321.594 323.756 328.315 332.394 336.715 341.034 345.354 347.516 351.832 356.394 358.311 362.627 364.787 370.787 373.193" y="196.912">N = number of exposed participants who submitted any data for the event, percentages are based on n/N.</tspan></text><text id="text1544" x="-69.12" y="345.704" font-family="ArialMT" font-size="5.04" xml:space="preserve"><tspan id="tspan1542" x="2.88" y="203.144">b</tspan></text><text id="text1548" x="-69.12" y="345.704" font-family="ArialMT" font-size="7.92" xml:space="preserve"><tspan id="tspan1546" x="5.52 7.437 12.957 17.273 18.953 23.27 26.16 28.076 34.316 37.196 41.512 46.072 50.157 52.319 56.636 58.798 60.96 65.276 69.836 73.68 75.842 80.158 84.478 88.561 90.723 94.802 97.202 99.119 105.119 108.955 111.117 115.678 119.994 121.674 125.99 127.916 130.795 135.112 137.032 138.951 143.268 147.348 151.665 154.304 156.465 161.024 163.905 168.221 172.062 176.378 180.939 183.098 187.197 189.359 193.921 198.241 199.92 201.837 205.682 207.844 212.165 216.244 218.404 220.321 224.161 226.078 228.478 232.078 234.242" y="206.264">Pain- Grade 3: any use of Rx pain reliever/prevents daily activity;</tspan></text><text id="text1556" x="-69.12" y="345.704" font-family="ArialMT" font-size="5.04" xml:space="preserve"><tspan id="tspan1554" x="2.88" y="212.264">c</tspan></text><text id="text1562" x="-69.12" y="345.704" font-family="ArialMT" font-size="7.92" xml:space="preserve"><tspan id="tspan1558" x="5.52 7.199 12.479 15.359 18.959 21.119 25.679 29.999 36.719 41.041 42.958 47.274 51.834 56.15 58.077 63.597 69.357 73.677 75.594 77.274 79.19 83.511 88.073 90.233 92.393 96.955 101.275 105.837 108.718 112.797 115.197 117.114 121.433 125.754 128.636 130.315 136.556 139.435 143.752 148.311 152.628 154.313 158.875 161.029 162.708 167.509 171.828 176.39 180.952 187.672 194.152 196.305 198.221" y="215.384">Erythema and Swelling/Induration- Grade 3: &gt;100mm; </tspan><tspan id="tspan1560" x="2.859 8.859 12.938 15.338 19.658 21.818 23.981 29.985 34.301 36.463 40.78 43.66 47.976 52.536 56.853 59.252 63.569 65.731 70.051 74.367 76.047 77.727 81.807 83.487 85.887 90.203 94.763 96.926 98.845 102.926 107.245 111.562 113.481 115.881 120.198 124.758 128.598 132.914 135.554 139.874 143.954 146.116 148.996 153.556 157.636 161.716 164.116 166.036 170.353 174.669 178.75 181.149 186.909 191.226 194.106 198.186 200.348 203.229 207.545 212.105 216.421 219.061 221.46 225.777 230.385 232.784" y="224.746">Note: No grade 4 solicited local adverse reactions were reported.</tspan></text></svg>