<svg xmlns="http://www.w3.org/2000/svg" xmlns:svg="http://www.w3.org/2000/svg" id="svg2099" width="630.72" height="413.185" version="1.1" viewBox="0 0 473.04 309.889"><metadata id="metadata2105"/><text id="text83" x="-69.12" y="545.76" font-family="Arial" font-size="10.08" font-weight="bold" xml:space="preserve"><tspan id="tspan79" x="2.88 9.36 14.642 20.882 23.762 29.044 31.92 37.444 42.968 45.841 48.482 54.722 58.563 64.087 70.326 76.567 81.847 88.086 93.61 99.134 102.007 108.004 111.365 114.248 120.728 126.968 129.609 132.49 138.009 140.889 144.249 149.77 155.767 158.65 165.371 170.894 176.418 179.779 185.303 194.183 197.063 202.587 205.448 212.408 218.647 224.171 229.695 233.536 239.059 244.583 247.466 254.663 260.187 265.711 271.235 274.595 277.475 283.715 289.955 295.479 298.362 307.721 310.362 313.722 319.722 322.601 328.602 331.485 337.009 339.892 347.089 352.613 358.137 363.66 366.543 372.541 378.78 381.421 384.301 390.299 398.219 400.86 407.1 413.098" y="12">Table 26. Frequency of Solicited Systemic Adverse Reactions Within 7 Days Following </tspan><tspan id="tspan81" x="2.89 9.61 15.134 20.658 26.182 29.062 35.302 40.826 44.186 46.826 53.065 59.046 61.926 64.805 71.526 77.05 80.409 85.933 89.294 94.818 97.459 104.178 110.179 116.418 121.942 127.466" y="23.521">Vaccination, Safety Subset</tspan></text><text id="text87" x="-69.12" y="545.76" font-family="Arial" font-size="6.48" font-weight="bold" xml:space="preserve"><tspan id="tspan85" x="130.8" y="19.92">a</tspan></text><text id="text91" x="-69.12" y="545.76" font-family="Arial" font-size="10.08" font-weight="bold" xml:space="preserve"><tspan id="tspan89" x="134.4 137.28 139.921 146.641 150.001 156 162.241 167.765 170.645 176.168 181.692 187.216 192.74" y="23.52">, Study 3001</tspan></text><g id="g439" data-name="P" transform="translate(-69.12,-246.23999)"><clipPath id="cp6845"><path id="path93" d="M 69.84,473.52 H 191.76 V 519.6 H 69.84 Z" transform="matrix(1,0,0,-1,0,792)"/></clipPath><g id="g100" clip-path="url(#cp6845)"><text id="text98" font-family="Arial" font-size="10.08" font-weight="bold" transform="translate(0,792)" xml:space="preserve"><tspan id="tspan96" x="72 78.96 85.2 90.724 96.247 100.088 105.612 111.136 114.018 121.216 126.739 132.5 138.024 141.384 144.264 150.503" y="-475.68">Adverse Reaction</tspan></text></g><clipPath id="cp6846"><path id="path102" d="M 69.84,473.52 H 191.76 V 519.6 H 69.84 Z" transform="matrix(1,0,0,-1,0,792)"/></clipPath><clipPath id="cp6847"><path id="path113" d="m 191.76,473.52 h 87.6 v 46.08 h -87.6 z" transform="matrix(1,0,0,-1,0,792)"/></clipPath><g id="g120" clip-path="url(#cp6847)"><text id="text118" font-family="Arial" font-size="10.08" font-weight="bold" transform="translate(0,792)" xml:space="preserve"><tspan id="tspan116" x="213.36 220.32 226.56 232.084 237.607 240.488 247.685 255.605 262.326 267.849 270.729" y="-510.24">Ad26.COV2.S</tspan></text></g><clipPath id="cp6848"><path id="path122" d="m 191.76,473.52 h 87.6 v 46.08 h -87.6 z" transform="matrix(1,0,0,-1,0,792)"/></clipPath><text id="text135" font-family="Arial" font-size="10.08" font-weight="bold" transform="translate(0,792)" xml:space="preserve"><tspan id="tspan133" x="221.76 227.284 232.808 236.164 241.688 247.212 250.085 256.808 262.332 267.856 271.696" y="-498.72">18-59 Years</tspan></text><clipPath id="cp6849"><path id="path137" d="m 191.76,473.52 h 87.6 v 46.08 h -87.6 z" transform="matrix(1,0,0,-1,0,792)"/></clipPath><clipPath id="cp6850"><path id="path146" d="m 191.76,473.52 h 87.6 v 46.08 h -87.6 z" transform="matrix(1,0,0,-1,0,792)"/></clipPath><text id="text159" font-family="Arial" font-size="10.08" font-weight="bold" transform="translate(0,792)" xml:space="preserve"><tspan id="tspan157" x="241.92 249.117 255.117 260.641 266.164 271.688" y="-487.2">N=2036</tspan></text><clipPath id="cp6851"><path id="path161" d="m 191.76,473.52 h 87.6 v 46.08 h -87.6 z" transform="matrix(1,0,0,-1,0,792)"/></clipPath><clipPath id="cp6852"><path id="path172" d="m 191.76,473.52 h 87.6 v 46.08 h -87.6 z" transform="matrix(1,0,0,-1,0,792)"/></clipPath><g id="g179" clip-path="url(#cp6852)"><text id="text177" font-family="Arial" font-size="10.08" font-weight="bold" transform="translate(0,792)" xml:space="preserve"><tspan id="tspan175" x="242.88 249.121 252 259.201 262.083 265.44 273.84 277.196" y="-475.68">n/N (%)</tspan></text></g><clipPath id="cp6853"><path id="path181" d="m 191.76,473.52 h 87.6 v 46.08 h -87.6 z" transform="matrix(1,0,0,-1,0,792)"/></clipPath><clipPath id="cp6854"><path id="path192" d="m 279.36,473.52 h 87.6 v 46.08 h -87.6 z" transform="matrix(1,0,0,-1,0,792)"/></clipPath><g id="g199" clip-path="url(#cp6854)"><text id="text197" font-family="Arial" font-size="10.08" font-weight="bold" transform="translate(0,792)" xml:space="preserve"><tspan id="tspan195" x="326.4 333.12 336 341.524 347.048 352.572 358.812" y="-510.24">Placebo</tspan></text></g><clipPath id="cp6855"><path id="path201" d="m 279.36,473.52 h 87.6 v 46.08 h -87.6 z" transform="matrix(1,0,0,-1,0,792)"/></clipPath><text id="text214" font-family="Arial" font-size="10.08" font-weight="bold" transform="translate(0,792)" xml:space="preserve"><tspan id="tspan212" x="306.48 309.363 314.887 320.411 323.767 329.291 334.815 337.688 344.411 349.935 355.459 359.299" y="-498.72">18-59 Years</tspan></text><clipPath id="cp6856"><path id="path216" d="m 279.36,473.52 h 87.6 v 46.08 h -87.6 z" transform="matrix(1,0,0,-1,0,792)"/></clipPath><text id="text229" font-family="Arial" font-size="10.08" font-weight="bold" transform="translate(0,792)" xml:space="preserve"><tspan id="tspan227" x="329.52 336.717 342.717 348.241 353.764 359.288" y="-487.2">N=2049</tspan></text><clipPath id="cp6857"><path id="path231" d="m 279.36,473.52 h 87.6 v 46.08 h -87.6 z" transform="matrix(1,0,0,-1,0,792)"/></clipPath><clipPath id="cp6858"><path id="path242" d="m 279.36,473.52 h 87.6 v 46.08 h -87.6 z" transform="matrix(1,0,0,-1,0,792)"/></clipPath><g id="g249" clip-path="url(#cp6858)"><text id="text247" font-family="Arial" font-size="10.08" font-weight="bold" transform="translate(0,792)" xml:space="preserve"><tspan id="tspan245" x="330.48 336.721 339.6 346.801 349.683 353.04 361.44 364.796" y="-475.68">n/N (%)</tspan></text></g><clipPath id="cp6859"><path id="path251" d="m 279.36,473.52 h 87.6 v 46.08 h -87.6 z" transform="matrix(1,0,0,-1,0,792)"/></clipPath><clipPath id="cp6860"><path id="path262" d="m 366.96,473.52 h 87.60098 V 519.6 H 366.96 Z" transform="matrix(1,0,0,-1,0,792)"/></clipPath><g id="g269" clip-path="url(#cp6860)"><text id="text267" font-family="Arial" font-size="10.08" font-weight="bold" transform="translate(0,792)" xml:space="preserve"><tspan id="tspan265" x="388.32 395.28 401.52 407.044 412.567 415.448 422.645 430.565 437.286 442.809 445.689" y="-510.24">Ad26.COV2.S</tspan></text></g><clipPath id="cp6861"><path id="path271" d="m 366.96,473.52 h 87.60098 V 519.6 H 366.96 Z" transform="matrix(1,0,0,-1,0,792)"/></clipPath><text id="text282" font-family="Arial" font-size="10.08" font-weight="bold" transform="translate(0,792)" xml:space="preserve"><tspan id="tspan280" x="405.84" y="-498.72">≥</tspan></text><text id="text286" font-family="Arial" font-size="10.08" font-weight="bold" transform="translate(0,792)" xml:space="preserve"><tspan id="tspan284" x="411.364 416.888 422.411 425.284 432.008 437.531 443.055 446.896" y="-498.72">60 Years</tspan></text><clipPath id="cp6862"><path id="path288" d="m 366.96,473.52 h 87.60098 V 519.6 H 366.96 Z" transform="matrix(1,0,0,-1,0,792)"/></clipPath><clipPath id="cp6863"><path id="path297" d="m 366.96,473.52 h 87.60098 V 519.6 H 366.96 Z" transform="matrix(1,0,0,-1,0,792)"/></clipPath><text id="text310" font-family="Arial" font-size="10.08" font-weight="bold" transform="translate(0,792)" xml:space="preserve"><tspan id="tspan308" x="417.12 424.317 430.317 435.841 441.364 446.888" y="-487.2">N=1320</tspan></text><clipPath id="cp6864"><path id="path312" d="m 366.96,473.52 h 87.60098 V 519.6 H 366.96 Z" transform="matrix(1,0,0,-1,0,792)"/></clipPath><clipPath id="cp6865"><path id="path323" d="m 366.96,473.52 h 87.60098 V 519.6 H 366.96 Z" transform="matrix(1,0,0,-1,0,792)"/></clipPath><g id="g330" clip-path="url(#cp6865)"><text id="text328" font-family="Arial" font-size="10.08" font-weight="bold" transform="translate(0,792)" xml:space="preserve"><tspan id="tspan326" x="418.08 424.32 427.202 434.403 437.285 440.645 449.046" y="-475.68">n/N (%)</tspan></text></g><clipPath id="cp6866"><path id="path332" d="m 366.96,473.52 h 87.60098 V 519.6 H 366.96 Z" transform="matrix(1,0,0,-1,0,792)"/></clipPath><clipPath id="cp6867"><path id="path343" d="m 454.56,473.52 h 87.6 v 46.08 h -87.6 z" transform="matrix(1,0,0,-1,0,792)"/></clipPath><g id="g350" clip-path="url(#cp6867)"><text id="text348" font-family="Arial" font-size="10.08" font-weight="bold" transform="translate(0,792)" xml:space="preserve"><tspan id="tspan346" x="501.6 508.32 511.2 516.724 522.248 527.772 534.012" y="-510.24">Placebo</tspan></text></g><clipPath id="cp6868"><path id="path352" d="m 454.56,473.52 h 87.6 v 46.08 h -87.6 z" transform="matrix(1,0,0,-1,0,792)"/></clipPath><text id="text369" font-family="Arial" font-size="10.08" font-weight="bold" transform="translate(0,792)" xml:space="preserve"><tspan id="tspan367" x="493.443" y="-498.72">≥</tspan></text><text id="text373" font-family="Arial" font-size="10.08" font-weight="bold" transform="translate(0,792)" xml:space="preserve"><tspan id="tspan371" x="498.967 504.491 510.014 512.887 519.611 525.134 530.658 534.499" y="-498.72">60 Years</tspan></text><clipPath id="cp6869"><path id="path375" d="m 454.56,473.52 h 87.6 v 46.08 h -87.6 z" transform="matrix(1,0,0,-1,0,792)"/></clipPath><text id="text388" font-family="Arial" font-size="10.08" font-weight="bold" transform="translate(0,792)" xml:space="preserve"><tspan id="tspan386" x="501.84 504.723 511.92 517.92 523.443 528.967 534.491" y="-487.2">N=1331</tspan></text><clipPath id="cp6870"><path id="path390" d="m 454.56,473.52 h 87.6 v 46.08 h -87.6 z" transform="matrix(1,0,0,-1,0,792)"/></clipPath><clipPath id="cp6871"><path id="path401" d="m 454.56,473.52 h 87.6 v 46.08 h -87.6 z" transform="matrix(1,0,0,-1,0,792)"/></clipPath><g id="g408" clip-path="url(#cp6871)"><text id="text406" font-family="Arial" font-size="10.08" font-weight="bold" transform="translate(0,792)" xml:space="preserve"><tspan id="tspan404" x="505.68 511.921 514.8 522 524.883 528.24 536.64 539.996" y="-475.68">n/N (%)</tspan></text></g><clipPath id="cp6872"><path id="path410" d="m 454.56,473.52 h 87.6 v 46.08 h -87.6 z" transform="matrix(1,0,0,-1,0,792)"/></clipPath><path id="path421" d="m 69.84,519.6 h 121.92 v 0.481 H 69.84 Z" transform="matrix(1,0,0,-1,0,792)"/><path id="path423" d="m 191.76,519.6 h 0.47999 v 0.481 H 191.76 Z" transform="matrix(1,0,0,-1,0,792)"/><path id="path425" d="m 192.24,519.6 h 87.12003 v 0.481 H 192.24 Z" transform="matrix(1,0,0,-1,0,792)"/><path id="path427" d="m 279.36,519.6 h 0.48 v 0.481 h -0.48 z" transform="matrix(1,0,0,-1,0,792)"/><path id="path429" d="m 279.84,519.6 h 87.12 v 0.481 h -87.12 z" transform="matrix(1,0,0,-1,0,792)"/><path id="path431" d="m 366.96,519.6 h 0.48099 v 0.481 H 366.96 Z" transform="matrix(1,0,0,-1,0,792)"/><path id="path433" d="m 367.44,519.6 h 87.12 v 0.481 h -87.12 z" transform="matrix(1,0,0,-1,0,792)"/><path id="path435" d="m 454.56,519.6 h 0.48 v 0.481 h -0.48 z" transform="matrix(1,0,0,-1,0,792)"/><path id="path437" d="m 455.04,519.6 h 87.12006 v 0.481 H 455.04 Z" transform="matrix(1,0,0,-1,0,792)"/></g><g id="g559" data-name="P" transform="translate(-69.12,-246.23999)"><clipPath id="cp6873"><path id="path441" d="m 69.84,461.52 h 121.92 v 11.51999 H 69.84 Z" transform="matrix(1,0,0,-1,0,792)"/></clipPath><g id="g448" clip-path="url(#cp6873)"><text id="text446" font-family="ArialMT" font-size="10.08" transform="translate(0,792)" xml:space="preserve"><tspan id="tspan444" x="72 78.723 84.243 89.283 92.166 98.889 103.929 108.73 111.609 116.889 125.529 127.689" y="-463.68">Any Systemic</tspan></text></g><clipPath id="cp6874"><path id="path450" d="m 69.84,461.52 h 121.92 v 11.51999 H 69.84 Z" transform="matrix(1,0,0,-1,0,792)"/></clipPath><clipPath id="cp6875"><path id="path461" d="m 191.76,461.52 h 87.6 v 11.51999 h -87.6 z" transform="matrix(1,0,0,-1,0,792)"/></clipPath><g id="g468" clip-path="url(#cp6875)"><text id="text466" font-family="ArialMT" font-size="10.08" transform="translate(0,792)" xml:space="preserve"><tspan id="tspan464" x="217.2 222.724 228.248 233.772 239.295 242.178 245.538 251.062 256.586 259.465 264.989 273.87" y="-463.68">1252 (61.5%)</tspan></text></g><clipPath id="cp6876"><path id="path470" d="m 191.76,461.52 h 87.6 v 11.51999 h -87.6 z" transform="matrix(1,0,0,-1,0,792)"/></clipPath><clipPath id="cp6877"><path id="path481" d="m 279.36,461.52 h 87.6 v 11.51999 h -87.6 z" transform="matrix(1,0,0,-1,0,792)"/></clipPath><g id="g488" clip-path="url(#cp6877)"><text id="text486" font-family="ArialMT" font-size="10.08" transform="translate(0,792)" xml:space="preserve"><tspan id="tspan484" x="310.32 315.844 321.368 326.892 329.774 333.135 338.659 344.183 347.063 352.586 361.467" y="-463.68">745 (36.4%)</tspan></text></g><clipPath id="cp6878"><path id="path490" d="m 279.36,461.52 h 87.6 v 11.51999 h -87.6 z" transform="matrix(1,0,0,-1,0,792)"/></clipPath><clipPath id="cp6879"><path id="path501" d="m 366.96,461.52 h 87.60098 v 11.51999 H 366.96 Z" transform="matrix(1,0,0,-1,0,792)"/></clipPath><g id="g508" clip-path="url(#cp6879)"><text id="text506" font-family="ArialMT" font-size="10.08" transform="translate(0,792)" xml:space="preserve"><tspan id="tspan504" x="397.92 403.444 408.968 414.492 417.374 420.735 426.259 431.783 434.663 440.186 449.067" y="-463.68">598 (45.3%)</tspan></text></g><clipPath id="cp6880"><path id="path510" d="m 366.96,461.52 h 87.60098 v 11.51999 H 366.96 Z" transform="matrix(1,0,0,-1,0,792)"/></clipPath><clipPath id="cp6881"><path id="path521" d="m 454.56,461.52 h 87.6 v 11.51999 h -87.6 z" transform="matrix(1,0,0,-1,0,792)"/></clipPath><g id="g528" clip-path="url(#cp6881)"><text id="text526" font-family="ArialMT" font-size="10.08" transform="translate(0,792)" xml:space="preserve"><tspan id="tspan524" x="485.52 491.044 496.568 502.091 504.974 508.335 513.859 519.383 522.263 527.787 536.667" y="-463.68">440 (33.1%)</tspan></text></g><clipPath id="cp6882"><path id="path530" d="m 454.56,461.52 h 87.6 v 11.51999 h -87.6 z" transform="matrix(1,0,0,-1,0,792)"/></clipPath><path id="path541" d="m 69.84,473.04 h 121.92 v 0.48003 H 69.84 Z" transform="matrix(1,0,0,-1,0,792)"/><path id="path543" d="m 191.76,473.04 h 0.47999 v 0.48003 H 191.76 Z" transform="matrix(1,0,0,-1,0,792)"/><path id="path545" d="m 192.24,473.04 h 87.12003 v 0.48003 H 192.24 Z" transform="matrix(1,0,0,-1,0,792)"/><path id="path547" d="m 279.36,473.04 h 0.48 v 0.48003 h -0.48 z" transform="matrix(1,0,0,-1,0,792)"/><path id="path549" d="m 279.84,473.04 h 87.12 v 0.48003 h -87.12 z" transform="matrix(1,0,0,-1,0,792)"/><path id="path551" d="m 366.96,473.04 h 0.48099 v 0.48003 H 366.96 Z" transform="matrix(1,0,0,-1,0,792)"/><path id="path553" d="m 367.44,473.04 h 87.12 v 0.48003 h -87.12 z" transform="matrix(1,0,0,-1,0,792)"/><path id="path555" d="m 454.56,473.04 h 0.48 v 0.48003 h -0.48 z" transform="matrix(1,0,0,-1,0,792)"/><path id="path557" d="m 455.04,473.04 h 87.12006 v 0.48003 H 455.04 Z" transform="matrix(1,0,0,-1,0,792)"/></g><g id="g797" data-name="P" transform="translate(-69.12,-246.23999)"><clipPath id="cp6883"><path id="path561" d="m 69.84,450 h 121.92 v 11.52 H 69.84 Z" transform="matrix(1,0,0,-1,0,792)"/></clipPath><g id="g568" clip-path="url(#cp6883)"><text id="text566" font-family="ArialMT" font-size="10.08" transform="translate(0,792)" xml:space="preserve"><tspan id="tspan564" x="82.8 90.72 94.08 99.603 105.127 110.651 113.534" y="-452.16">Grade 3</tspan></text></g><clipPath id="cp6884"><path id="path570" d="m 69.84,450 h 121.92 v 11.52 H 69.84 Z" transform="matrix(1,0,0,-1,0,792)"/></clipPath><clipPath id="cp6885"><path id="path581" d="m 191.76,450 h 87.6 v 11.52 h -87.6 z" transform="matrix(1,0,0,-1,0,792)"/></clipPath><g id="g588" clip-path="url(#cp6885)"><text id="text586" font-family="ArialMT" font-size="10.08" transform="translate(0,792)" xml:space="preserve"><tspan id="tspan584" x="233.76 239.284 244.808 247.691 251.051 256.575 259.455 264.979 273.859" y="-452.16">47 (2.3%)</tspan></text></g><clipPath id="cp6886"><path id="path590" d="m 191.76,450 h 87.6 v 11.52 h -87.6 z" transform="matrix(1,0,0,-1,0,792)"/></clipPath><clipPath id="cp6887"><path id="path601" d="m 279.36,450 h 87.6 v 11.52 h -87.6 z" transform="matrix(1,0,0,-1,0,792)"/></clipPath><g id="g608" clip-path="url(#cp6887)"><text id="text606" font-family="ArialMT" font-size="10.08" transform="translate(0,792)" xml:space="preserve"><tspan id="tspan604" x="321.36 326.884 332.408 335.291 338.651 344.175 347.055 352.579 361.459" y="-452.16">12 (0.6%)</tspan></text></g><clipPath id="cp6888"><path id="path610" d="m 279.36,450 h 87.6 v 11.52 h -87.6 z" transform="matrix(1,0,0,-1,0,792)"/></clipPath><clipPath id="cp6889"><path id="path621" d="m 366.96,450 h 87.60098 v 11.52 H 366.96 Z" transform="matrix(1,0,0,-1,0,792)"/></clipPath><g id="g628" clip-path="url(#cp6889)"><text id="text626" font-family="ArialMT" font-size="10.08" transform="translate(0,792)" xml:space="preserve"><tspan id="tspan624" x="408.96 414.484 420.008 422.891 426.251 431.775 434.655 440.179 449.059" y="-452.16">14 (1.1%)</tspan></text></g><clipPath id="cp6890"><path id="path630" d="m 366.96,450 h 87.60098 v 11.52 H 366.96 Z" transform="matrix(1,0,0,-1,0,792)"/></clipPath><clipPath id="cp6891"><path id="path641" d="m 454.56,450 h 87.6 v 11.52 h -87.6 z" transform="matrix(1,0,0,-1,0,792)"/></clipPath><g id="g648" clip-path="url(#cp6891)"><text id="text646" font-family="ArialMT" font-size="10.08" transform="translate(0,792)" xml:space="preserve"><tspan id="tspan644" x="502.32 507.844 510.727 514.086 519.61 522.49 528.014 536.894" y="-452.16">9 (0.7%)</tspan></text></g><clipPath id="cp6892"><path id="path650" d="m 454.56,450 h 87.6 v 11.52 h -87.6 z" transform="matrix(1,0,0,-1,0,792)"/></clipPath><clipPath id="cp6893"><path id="path661" d="m 69.84,438 h 121.92 v 11.52 H 69.84 Z" transform="matrix(1,0,0,-1,0,792)"/></clipPath><g id="g668" clip-path="url(#cp6893)"><text id="text666" font-family="ArialMT" font-size="10.08" transform="translate(0,792)" xml:space="preserve"><tspan id="tspan664" x="72 78.241 83.764 86.404 88.804 94.328 99.852" y="-440.16">Fatigue</tspan></text></g><clipPath id="cp6894"><path id="path670" d="m 69.84,438 h 121.92 v 11.52 H 69.84 Z" transform="matrix(1,0,0,-1,0,792)"/></clipPath><g id="g677" clip-path="url(#cp6894)"><text id="text675" font-family="ArialMT" font-size="6.48" transform="translate(0,792)" xml:space="preserve"><tspan id="tspan673" x="105.36" y="-443.76">b</tspan></text></g><clipPath id="cp6895"><path id="path679" d="m 69.84,438 h 121.92 v 11.52 H 69.84 Z" transform="matrix(1,0,0,-1,0,792)"/></clipPath><clipPath id="cp6896"><path id="path690" d="m 191.76,438 h 87.6 v 11.52 h -87.6 z" transform="matrix(1,0,0,-1,0,792)"/></clipPath><g id="g697" clip-path="url(#cp6896)"><text id="text695" font-family="ArialMT" font-size="10.08" transform="translate(0,792)" xml:space="preserve"><tspan id="tspan693" x="222.72 228.244 233.768 239.292 242.174 245.535 251.059 256.583 259.463 264.986 273.867" y="-440.16">891 (43.8%)</tspan></text></g><clipPath id="cp6897"><path id="path699" d="m 191.76,438 h 87.6 v 11.52 h -87.6 z" transform="matrix(1,0,0,-1,0,792)"/></clipPath><clipPath id="cp6898"><path id="path710" d="m 279.36,438 h 87.6 v 11.52 h -87.6 z" transform="matrix(1,0,0,-1,0,792)"/></clipPath><g id="g717" clip-path="url(#cp6898)"><text id="text715" font-family="ArialMT" font-size="10.08" transform="translate(0,792)" xml:space="preserve"><tspan id="tspan713" x="310.32 315.844 321.368 326.892 329.774 333.135 338.659 344.183 347.063 352.586 361.467" y="-440.16">451 (22.0%)</tspan></text></g><clipPath id="cp6899"><path id="path719" d="m 279.36,438 h 87.6 v 11.52 h -87.6 z" transform="matrix(1,0,0,-1,0,792)"/></clipPath><clipPath id="cp6900"><path id="path730" d="m 366.96,438 h 87.60098 v 11.52 H 366.96 Z" transform="matrix(1,0,0,-1,0,792)"/></clipPath><g id="g737" clip-path="url(#cp6900)"><text id="text735" font-family="ArialMT" font-size="10.08" transform="translate(0,792)" xml:space="preserve"><tspan id="tspan733" x="397.92 403.444 408.968 414.492" y="-440.16">392</tspan></text></g><clipPath id="cp6901"><path id="path739" d="m 366.96,438 h 87.60098 v 11.52 H 366.96 Z" transform="matrix(1,0,0,-1,0,792)"/></clipPath><g id="g746" clip-path="url(#cp6901)"><text id="text744" font-family="ArialMT" font-size="10.08" transform="translate(0,792)" xml:space="preserve"><tspan id="tspan742" x="417.36 420.72 426.243 431.767 434.647 440.171 449.052" y="-440.16">(29.7%)</tspan></text></g><clipPath id="cp6902"><path id="path748" d="m 366.96,438 h 87.60098 v 11.52 H 366.96 Z" transform="matrix(1,0,0,-1,0,792)"/></clipPath><clipPath id="cp6903"><path id="path759" d="m 454.56,438 h 87.6 v 11.52 h -87.6 z" transform="matrix(1,0,0,-1,0,792)"/></clipPath><g id="g766" clip-path="url(#cp6903)"><text id="text764" font-family="ArialMT" font-size="10.08" transform="translate(0,792)" xml:space="preserve"><tspan id="tspan762" x="485.52 491.044 496.568 502.091 504.974 508.335 513.859 519.383 522.263 527.787 536.667" y="-440.16">277 (20.8%)</tspan></text></g><clipPath id="cp6904"><path id="path768" d="m 454.56,438 h 87.6 v 11.52 h -87.6 z" transform="matrix(1,0,0,-1,0,792)"/></clipPath><path id="path779" d="M 69.84,449.52 H 191.76 V 450 H 69.84 Z" transform="matrix(1,0,0,-1,0,792)"/><path id="path781" d="m 191.76,449.52 h 0.47999 V 450 H 191.76 Z" transform="matrix(1,0,0,-1,0,792)"/><path id="path783" d="m 192.24,449.52 h 87.12003 V 450 H 192.24 Z" transform="matrix(1,0,0,-1,0,792)"/><path id="path785" d="m 279.36,449.52 h 0.48 V 450 h -0.48 z" transform="matrix(1,0,0,-1,0,792)"/><path id="path787" d="m 279.84,449.52 h 87.12 V 450 h -87.12 z" transform="matrix(1,0,0,-1,0,792)"/><path id="path789" d="m 366.96,449.52 h 0.48099 V 450 H 366.96 Z" transform="matrix(1,0,0,-1,0,792)"/><path id="path791" d="m 367.44,449.52 h 87.12 V 450 h -87.12 z" transform="matrix(1,0,0,-1,0,792)"/><path id="path793" d="m 454.56,449.52 h 0.48 V 450 h -0.48 z" transform="matrix(1,0,0,-1,0,792)"/><path id="path795" d="m 455.04,449.52 h 87.12006 V 450 H 455.04 Z" transform="matrix(1,0,0,-1,0,792)"/></g><g id="g1026" data-name="P" transform="translate(-69.12,-246.23999)"><clipPath id="cp6905"><path id="path799" d="M 69.84,426.48 H 191.76 V 438 H 69.84 Z" transform="matrix(1,0,0,-1,0,792)"/></clipPath><g id="g806" clip-path="url(#cp6905)"><text id="text804" font-family="ArialMT" font-size="10.08" transform="translate(0,792)" xml:space="preserve"><tspan id="tspan802" x="82.8 90.72 94.08 99.603 105.127 110.651 113.534" y="-428.64">Grade 3</tspan></text></g><clipPath id="cp6906"><path id="path808" d="M 69.84,426.48 H 191.76 V 438 H 69.84 Z" transform="matrix(1,0,0,-1,0,792)"/></clipPath><clipPath id="cp6907"><path id="path819" d="m 191.76,426.48 h 87.6 V 438 h -87.6 z" transform="matrix(1,0,0,-1,0,792)"/></clipPath><g id="g826" clip-path="url(#cp6907)"><text id="text824" font-family="ArialMT" font-size="10.08" transform="translate(0,792)" xml:space="preserve"><tspan id="tspan822" x="233.76 239.284 244.808 247.691 251.051 256.575 259.455 264.979 273.859" y="-428.64">25 (1.2%)</tspan></text></g><clipPath id="cp6908"><path id="path828" d="m 191.76,426.48 h 87.6 V 438 h -87.6 z" transform="matrix(1,0,0,-1,0,792)"/></clipPath><clipPath id="cp6909"><path id="path839" d="m 279.36,426.48 h 87.6 V 438 h -87.6 z" transform="matrix(1,0,0,-1,0,792)"/></clipPath><g id="g846" clip-path="url(#cp6909)"><text id="text844" font-family="ArialMT" font-size="10.08" transform="translate(0,792)" xml:space="preserve"><tspan id="tspan842" x="327.12 332.644 335.527 338.887 344.411 347.291 352.815 361.695" y="-428.64">4 (0.2%)</tspan></text></g><clipPath id="cp6910"><path id="path848" d="m 279.36,426.48 h 87.6 V 438 h -87.6 z" transform="matrix(1,0,0,-1,0,792)"/></clipPath><clipPath id="cp6911"><path id="path859" d="m 366.96,426.48 h 87.60098 V 438 H 366.96 Z" transform="matrix(1,0,0,-1,0,792)"/></clipPath><g id="g866" clip-path="url(#cp6911)"><text id="text864" font-family="ArialMT" font-size="10.08" transform="translate(0,792)" xml:space="preserve"><tspan id="tspan862" x="408.96 414.484 420.008 422.891 426.251 431.775 434.655 440.179 449.059" y="-428.64">10 (0.8%)</tspan></text></g><clipPath id="cp6912"><path id="path868" d="m 366.96,426.48 h 87.60098 V 438 H 366.96 Z" transform="matrix(1,0,0,-1,0,792)"/></clipPath><clipPath id="cp6913"><path id="path879" d="m 454.56,426.48 h 87.6 V 438 h -87.6 z" transform="matrix(1,0,0,-1,0,792)"/></clipPath><g id="g886" clip-path="url(#cp6913)"><text id="text884" font-family="ArialMT" font-size="10.08" transform="translate(0,792)" xml:space="preserve"><tspan id="tspan882" x="502.32 507.844 510.727 514.086 519.61 522.49 528.014 536.894" y="-428.64">5 (0.4%)</tspan></text></g><clipPath id="cp6914"><path id="path888" d="m 454.56,426.48 h 87.6 V 438 h -87.6 z" transform="matrix(1,0,0,-1,0,792)"/></clipPath><clipPath id="cp6915"><path id="path899" d="M 69.84,414.48 H 191.76 V 426 H 69.84 Z" transform="matrix(1,0,0,-1,0,792)"/></clipPath><g id="g906" clip-path="url(#cp6915)"><text id="text904" font-family="ArialMT" font-size="10.08" transform="translate(0,792)" xml:space="preserve"><tspan id="tspan902" x="72 79.197 84.721 90.245 95.769 101.292 106.332 111.856" y="-416.64">Headache</tspan></text></g><clipPath id="cp6916"><path id="path908" d="M 69.84,414.48 H 191.76 V 426 H 69.84 Z" transform="matrix(1,0,0,-1,0,792)"/></clipPath><g id="g915" clip-path="url(#cp6916)"><text id="text913" font-family="ArialMT" font-size="6.48" transform="translate(0,792)" xml:space="preserve"><tspan id="tspan911" x="117.36" y="-420.24">b</tspan></text></g><clipPath id="cp6917"><path id="path917" d="M 69.84,414.48 H 191.76 V 426 H 69.84 Z" transform="matrix(1,0,0,-1,0,792)"/></clipPath><clipPath id="cp6918"><path id="path928" d="m 191.76,414.48 h 87.6 V 426 h -87.6 z" transform="matrix(1,0,0,-1,0,792)"/></clipPath><g id="g935" clip-path="url(#cp6918)"><text id="text933" font-family="ArialMT" font-size="10.08" transform="translate(0,792)" xml:space="preserve"><tspan id="tspan931" x="222.72 228.244 233.768 239.292 242.174 245.535 251.059 256.583 259.463 264.986 273.867" y="-416.64">905 (44.4%)</tspan></text></g><clipPath id="cp6919"><path id="path937" d="m 191.76,414.48 h 87.6 V 426 h -87.6 z" transform="matrix(1,0,0,-1,0,792)"/></clipPath><clipPath id="cp6920"><path id="path948" d="m 279.36,414.48 h 87.6 V 426 h -87.6 z" transform="matrix(1,0,0,-1,0,792)"/></clipPath><g id="g955" clip-path="url(#cp6920)"><text id="text953" font-family="ArialMT" font-size="10.08" transform="translate(0,792)" xml:space="preserve"><tspan id="tspan951" x="310.32 315.844 321.368 326.892 329.774 333.135 338.659 344.183 347.063 352.586 361.467" y="-416.64">508 (24.8%)</tspan></text></g><clipPath id="cp6921"><path id="path957" d="m 279.36,414.48 h 87.6 V 426 h -87.6 z" transform="matrix(1,0,0,-1,0,792)"/></clipPath><clipPath id="cp6922"><path id="path968" d="m 366.96,414.48 h 87.60098 V 426 H 366.96 Z" transform="matrix(1,0,0,-1,0,792)"/></clipPath><g id="g975" clip-path="url(#cp6922)"><text id="text973" font-family="ArialMT" font-size="10.08" transform="translate(0,792)" xml:space="preserve"><tspan id="tspan971" x="397.92 403.444 408.968 414.492 417.374 420.735 426.259 431.783 434.663 440.186 449.067" y="-416.64">401 (30.4%)</tspan></text></g><clipPath id="cp6923"><path id="path977" d="m 366.96,414.48 h 87.60098 V 426 H 366.96 Z" transform="matrix(1,0,0,-1,0,792)"/></clipPath><clipPath id="cp6924"><path id="path988" d="m 454.56,414.48 h 87.6 V 426 h -87.6 z" transform="matrix(1,0,0,-1,0,792)"/></clipPath><g id="g995" clip-path="url(#cp6924)"><text id="text993" font-family="ArialMT" font-size="10.08" transform="translate(0,792)" xml:space="preserve"><tspan id="tspan991" x="485.52 491.044 496.568 502.091 504.974 508.335 513.859 519.383 522.263 527.787 536.667" y="-416.64">294 (22.1%)</tspan></text></g><clipPath id="cp6925"><path id="path997" d="m 454.56,414.48 h 87.6 V 426 h -87.6 z" transform="matrix(1,0,0,-1,0,792)"/></clipPath><path id="path1008" d="m 69.84,426 h 121.92 v 0.481 H 69.84 Z" transform="matrix(1,0,0,-1,0,792)"/><path id="path1010" d="m 191.76,426 h 0.47999 v 0.481 H 191.76 Z" transform="matrix(1,0,0,-1,0,792)"/><path id="path1012" d="m 192.24,426 h 87.12003 v 0.481 H 192.24 Z" transform="matrix(1,0,0,-1,0,792)"/><path id="path1014" d="m 279.36,426 h 0.48 v 0.481 h -0.48 z" transform="matrix(1,0,0,-1,0,792)"/><path id="path1016" d="m 279.84,426 h 87.12 v 0.481 h -87.12 z" transform="matrix(1,0,0,-1,0,792)"/><path id="path1018" d="m 366.96,426 h 0.48099 v 0.481 H 366.96 Z" transform="matrix(1,0,0,-1,0,792)"/><path id="path1020" d="m 367.44,426 h 87.12 v 0.481 h -87.12 z" transform="matrix(1,0,0,-1,0,792)"/><path id="path1022" d="m 454.56,426 h 0.48 v 0.481 h -0.48 z" transform="matrix(1,0,0,-1,0,792)"/><path id="path1024" d="m 455.04,426 h 87.12006 v 0.481 H 455.04 Z" transform="matrix(1,0,0,-1,0,792)"/></g><g id="g1255" data-name="P" transform="translate(-69.12,-246.23999)"><clipPath id="cp6926"><path id="path1028" d="m 69.84,402.96 h 121.92 v 11.51999 H 69.84 Z" transform="matrix(1,0,0,-1,0,792)"/></clipPath><g id="g1035" clip-path="url(#cp6926)"><text id="text1033" font-family="ArialMT" font-size="10.08" transform="translate(0,792)" xml:space="preserve"><tspan id="tspan1031" x="82.8 90.72 94.08 99.603 105.127 110.651 113.534" y="-405.12">Grade 3</tspan></text></g><clipPath id="cp6927"><path id="path1037" d="m 69.84,402.96 h 121.92 v 11.51999 H 69.84 Z" transform="matrix(1,0,0,-1,0,792)"/></clipPath><clipPath id="cp6928"><path id="path1048" d="m 191.76,402.96 h 87.6 v 11.51999 h -87.6 z" transform="matrix(1,0,0,-1,0,792)"/></clipPath><g id="g1055" clip-path="url(#cp6928)"><text id="text1053" font-family="ArialMT" font-size="10.08" transform="translate(0,792)" xml:space="preserve"><tspan id="tspan1051" x="233.76 239.284 244.808 247.691 251.051 256.575 259.455 264.979 273.859" y="-405.12">18 (0.9%)</tspan></text></g><clipPath id="cp6929"><path id="path1057" d="m 191.76,402.96 h 87.6 v 11.51999 h -87.6 z" transform="matrix(1,0,0,-1,0,792)"/></clipPath><clipPath id="cp6930"><path id="path1068" d="m 279.36,402.96 h 87.6 v 11.51999 h -87.6 z" transform="matrix(1,0,0,-1,0,792)"/></clipPath><g id="g1075" clip-path="url(#cp6930)"><text id="text1073" font-family="ArialMT" font-size="10.08" transform="translate(0,792)" xml:space="preserve"><tspan id="tspan1071" x="327.12 332.644 335.527 338.887 344.411 347.291 352.815 361.695" y="-405.12">5 (0.2%)</tspan></text></g><clipPath id="cp6931"><path id="path1077" d="m 279.36,402.96 h 87.6 v 11.51999 h -87.6 z" transform="matrix(1,0,0,-1,0,792)"/></clipPath><clipPath id="cp6932"><path id="path1088" d="m 366.96,402.96 h 87.60098 v 11.51999 H 366.96 Z" transform="matrix(1,0,0,-1,0,792)"/></clipPath><g id="g1095" clip-path="url(#cp6932)"><text id="text1093" font-family="ArialMT" font-size="10.08" transform="translate(0,792)" xml:space="preserve"><tspan id="tspan1091" x="414.72 420.244 423.127 426.487 432.011 434.891 440.415 449.295" y="-405.12">5 (0.4%)</tspan></text></g><clipPath id="cp6933"><path id="path1097" d="m 366.96,402.96 h 87.60098 v 11.51999 H 366.96 Z" transform="matrix(1,0,0,-1,0,792)"/></clipPath><clipPath id="cp6934"><path id="path1108" d="m 454.56,402.96 h 87.6 v 11.51999 h -87.6 z" transform="matrix(1,0,0,-1,0,792)"/></clipPath><g id="g1115" clip-path="url(#cp6934)"><text id="text1113" font-family="ArialMT" font-size="10.08" transform="translate(0,792)" xml:space="preserve"><tspan id="tspan1111" x="502.32 507.844 510.727 514.086 519.61 522.49 528.014 536.894" y="-405.12">4 (0.3%)</tspan></text></g><clipPath id="cp6935"><path id="path1117" d="m 454.56,402.96 h 87.6 v 11.51999 h -87.6 z" transform="matrix(1,0,0,-1,0,792)"/></clipPath><clipPath id="cp6936"><path id="path1128" d="m 69.84,390.96 h 121.92 v 11.51999 H 69.84 Z" transform="matrix(1,0,0,-1,0,792)"/></clipPath><g id="g1135" clip-path="url(#cp6936)"><text id="text1133" font-family="ArialMT" font-size="10.08" transform="translate(0,792)" xml:space="preserve"><tspan id="tspan1131" x="72 80.397 85.437 90.956 93.358 98.637 101.036" y="-393.12">Myalgia</tspan></text></g><clipPath id="cp6937"><path id="path1137" d="m 69.84,390.96 h 121.92 v 11.51999 H 69.84 Z" transform="matrix(1,0,0,-1,0,792)"/></clipPath><g id="g1144" clip-path="url(#cp6937)"><text id="text1142" font-family="ArialMT" font-size="6.48" transform="translate(0,792)" xml:space="preserve"><tspan id="tspan1140" x="106.56" y="-396.72">b</tspan></text></g><clipPath id="cp6938"><path id="path1146" d="m 69.84,390.96 h 121.92 v 11.51999 H 69.84 Z" transform="matrix(1,0,0,-1,0,792)"/></clipPath><clipPath id="cp6939"><path id="path1157" d="m 191.76,390.96 h 87.6 v 11.51999 h -87.6 z" transform="matrix(1,0,0,-1,0,792)"/></clipPath><g id="g1164" clip-path="url(#cp6939)"><text id="text1162" font-family="ArialMT" font-size="10.08" transform="translate(0,792)" xml:space="preserve"><tspan id="tspan1160" x="222.72 228.244 233.768 239.292 242.174 245.535 251.059 256.583 259.463 264.986 273.867" y="-393.12">796 (39.1%)</tspan></text></g><clipPath id="cp6940"><path id="path1166" d="m 191.76,390.96 h 87.6 v 11.51999 h -87.6 z" transform="matrix(1,0,0,-1,0,792)"/></clipPath><clipPath id="cp6941"><path id="path1177" d="m 279.36,390.96 h 87.6 v 11.51999 h -87.6 z" transform="matrix(1,0,0,-1,0,792)"/></clipPath><g id="g1184" clip-path="url(#cp6941)"><text id="text1182" font-family="ArialMT" font-size="10.08" transform="translate(0,792)" xml:space="preserve"><tspan id="tspan1180" x="310.32 315.844 321.368 326.892 329.774 333.135 338.659 344.183 347.063 352.586 361.467" y="-393.12">248 (12.1%)</tspan></text></g><clipPath id="cp6942"><path id="path1186" d="m 279.36,390.96 h 87.6 v 11.51999 h -87.6 z" transform="matrix(1,0,0,-1,0,792)"/></clipPath><clipPath id="cp6943"><path id="path1197" d="m 366.96,390.96 h 87.60098 v 11.51999 H 366.96 Z" transform="matrix(1,0,0,-1,0,792)"/></clipPath><g id="g1204" clip-path="url(#cp6943)"><text id="text1202" font-family="ArialMT" font-size="10.08" transform="translate(0,792)" xml:space="preserve"><tspan id="tspan1200" x="397.92 403.444 408.968 414.492 417.374 420.735 426.259 431.783 434.663 440.186 449.067" y="-393.12">317 (24.0%)</tspan></text></g><clipPath id="cp6944"><path id="path1206" d="m 366.96,390.96 h 87.60098 v 11.51999 H 366.96 Z" transform="matrix(1,0,0,-1,0,792)"/></clipPath><clipPath id="cp6945"><path id="path1217" d="m 454.56,390.96 h 87.6 v 11.51999 h -87.6 z" transform="matrix(1,0,0,-1,0,792)"/></clipPath><g id="g1224" clip-path="url(#cp6945)"><text id="text1222" font-family="ArialMT" font-size="10.08" transform="translate(0,792)" xml:space="preserve"><tspan id="tspan1220" x="485.52 491.044 496.568 502.091 504.974 508.335 513.859 519.383 522.263 527.787 536.667" y="-393.12">182 (13.7%)</tspan></text></g><clipPath id="cp6946"><path id="path1226" d="m 454.56,390.96 h 87.6 v 11.51999 h -87.6 z" transform="matrix(1,0,0,-1,0,792)"/></clipPath><path id="path1237" d="m 69.84,402.48 h 121.92 v 0.48003 H 69.84 Z" transform="matrix(1,0,0,-1,0,792)"/><path id="path1239" d="m 191.76,402.48 h 0.47999 v 0.48003 H 191.76 Z" transform="matrix(1,0,0,-1,0,792)"/><path id="path1241" d="m 192.24,402.48 h 87.12003 v 0.48003 H 192.24 Z" transform="matrix(1,0,0,-1,0,792)"/><path id="path1243" d="m 279.36,402.48 h 0.48 v 0.48003 h -0.48 z" transform="matrix(1,0,0,-1,0,792)"/><path id="path1245" d="m 279.84,402.48 h 87.12 v 0.48003 h -87.12 z" transform="matrix(1,0,0,-1,0,792)"/><path id="path1247" d="m 366.96,402.48 h 0.48099 v 0.48003 H 366.96 Z" transform="matrix(1,0,0,-1,0,792)"/><path id="path1249" d="m 367.44,402.48 h 87.12 v 0.48003 h -87.12 z" transform="matrix(1,0,0,-1,0,792)"/><path id="path1251" d="m 454.56,402.48 h 0.48 v 0.48003 h -0.48 z" transform="matrix(1,0,0,-1,0,792)"/><path id="path1253" d="m 455.04,402.48 h 87.12006 v 0.48003 H 455.04 Z" transform="matrix(1,0,0,-1,0,792)"/></g><g id="g1493" data-name="P" transform="translate(-69.12,-246.23999)"><clipPath id="cp6947"><path id="path1257" d="m 69.84,379.68 h 121.92 v 11.28 H 69.84 Z" transform="matrix(1,0,0,-1,0,792)"/></clipPath><g id="g1264" clip-path="url(#cp6947)"><text id="text1262" font-family="ArialMT" font-size="10.08" transform="translate(0,792)" xml:space="preserve"><tspan id="tspan1260" x="82.8 90.72 94.08 99.603 105.127 110.651 113.534" y="-381.84">Grade 3</tspan></text></g><clipPath id="cp6948"><path id="path1266" d="m 69.84,379.68 h 121.92 v 11.28 H 69.84 Z" transform="matrix(1,0,0,-1,0,792)"/></clipPath><clipPath id="cp6949"><path id="path1277" d="m 191.76,379.68 h 87.6 v 11.28 h -87.6 z" transform="matrix(1,0,0,-1,0,792)"/></clipPath><g id="g1284" clip-path="url(#cp6949)"><text id="text1282" font-family="ArialMT" font-size="10.08" transform="translate(0,792)" xml:space="preserve"><tspan id="tspan1280" x="233.76 239.284 244.808 247.691 251.051 256.575 259.455 264.979 273.859" y="-381.84">29 (1.4%)</tspan></text></g><clipPath id="cp6950"><path id="path1286" d="m 191.76,379.68 h 87.6 v 11.28 h -87.6 z" transform="matrix(1,0,0,-1,0,792)"/></clipPath><clipPath id="cp6951"><path id="path1297" d="m 279.36,379.68 h 87.6 v 11.28 h -87.6 z" transform="matrix(1,0,0,-1,0,792)"/></clipPath><g id="g1304" clip-path="url(#cp6951)"><text id="text1302" font-family="ArialMT" font-size="10.08" transform="translate(0,792)" xml:space="preserve"><tspan id="tspan1300" x="321.12 326.644" y="-381.84">1</tspan></text></g><clipPath id="cp6952"><path id="path1306" d="m 279.36,379.68 h 87.6 v 11.28 h -87.6 z" transform="matrix(1,0,0,-1,0,792)"/></clipPath><g id="g1313" clip-path="url(#cp6952)"><text id="text1311" font-family="ArialMT" font-size="10.08" transform="translate(0,792)" xml:space="preserve"><tspan id="tspan1309" x="329.52 332.88 338.88 344.404 347.284 352.808 361.688" y="-381.84">(&lt;0.1%)</tspan></text></g><clipPath id="cp6953"><path id="path1315" d="m 279.36,379.68 h 87.6 v 11.28 h -87.6 z" transform="matrix(1,0,0,-1,0,792)"/></clipPath><clipPath id="cp6954"><path id="path1326" d="m 366.96,379.68 h 87.60098 v 11.28 H 366.96 Z" transform="matrix(1,0,0,-1,0,792)"/></clipPath><g id="g1333" clip-path="url(#cp6954)"><text id="text1331" font-family="ArialMT" font-size="10.08" transform="translate(0,792)" xml:space="preserve"><tspan id="tspan1329" x="414.72 420.244 423.127 426.487 432.011 434.891 440.415 449.295" y="-381.84">3 (0.2%)</tspan></text></g><clipPath id="cp6955"><path id="path1335" d="m 366.96,379.68 h 87.60098 v 11.28 H 366.96 Z" transform="matrix(1,0,0,-1,0,792)"/></clipPath><clipPath id="cp6956"><path id="path1346" d="m 454.56,379.68 h 87.6 v 11.28 h -87.6 z" transform="matrix(1,0,0,-1,0,792)"/></clipPath><g id="g1353" clip-path="url(#cp6956)"><text id="text1351" font-family="ArialMT" font-size="10.08" transform="translate(0,792)" xml:space="preserve"><tspan id="tspan1349" x="502.32 507.844 510.727 514.086 519.61 522.49 528.014 536.894" y="-381.84">5 (0.4%)</tspan></text></g><clipPath id="cp6957"><path id="path1355" d="m 454.56,379.68 h 87.6 v 11.28 h -87.6 z" transform="matrix(1,0,0,-1,0,792)"/></clipPath><clipPath id="cp6958"><path id="path1366" d="m 69.84,367.68 h 121.92 v 11.281 H 69.84 Z" transform="matrix(1,0,0,-1,0,792)"/></clipPath><g id="g1373" clip-path="url(#cp6958)"><text id="text1371" font-family="ArialMT" font-size="10.08" transform="translate(0,792)" xml:space="preserve"><tspan id="tspan1369" x="72 79.197 84.721 90.245 95.045 100.805" y="-369.84">Nausea</tspan></text></g><clipPath id="cp6959"><path id="path1375" d="m 69.84,367.68 h 121.92 v 11.281 H 69.84 Z" transform="matrix(1,0,0,-1,0,792)"/></clipPath><g id="g1382" clip-path="url(#cp6959)"><text id="text1380" font-family="ArialMT" font-size="6.48" transform="translate(0,792)" xml:space="preserve"><tspan id="tspan1378" x="106.32" y="-373.44">c</tspan></text></g><clipPath id="cp6960"><path id="path1384" d="m 69.84,367.68 h 121.92 v 11.281 H 69.84 Z" transform="matrix(1,0,0,-1,0,792)"/></clipPath><clipPath id="cp6961"><path id="path1395" d="m 191.76,367.68 h 87.6 v 11.281 h -87.6 z" transform="matrix(1,0,0,-1,0,792)"/></clipPath><g id="g1402" clip-path="url(#cp6961)"><text id="text1400" font-family="ArialMT" font-size="10.08" transform="translate(0,792)" xml:space="preserve"><tspan id="tspan1398" x="222.72 228.244 233.768 239.292 242.174 245.535 251.059 256.583 259.463 264.986 273.867" y="-369.84">315 (15.5%)</tspan></text></g><clipPath id="cp6962"><path id="path1404" d="m 191.76,367.68 h 87.6 v 11.281 h -87.6 z" transform="matrix(1,0,0,-1,0,792)"/></clipPath><clipPath id="cp6963"><path id="path1415" d="m 279.36,367.68 h 87.6 v 11.281 h -87.6 z" transform="matrix(1,0,0,-1,0,792)"/></clipPath><g id="g1422" clip-path="url(#cp6963)"><text id="text1420" font-family="ArialMT" font-size="10.08" transform="translate(0,792)" xml:space="preserve"><tspan id="tspan1418" x="315.84 321.364 326.888 332.411 335.294 338.655 344.179 347.059 352.583 361.463" y="-369.84">183 (8.9%)</tspan></text></g><clipPath id="cp6964"><path id="path1424" d="m 279.36,367.68 h 87.6 v 11.281 h -87.6 z" transform="matrix(1,0,0,-1,0,792)"/></clipPath><clipPath id="cp6965"><path id="path1435" d="m 366.96,367.68 h 87.60098 v 11.281 H 366.96 Z" transform="matrix(1,0,0,-1,0,792)"/></clipPath><g id="g1442" clip-path="url(#cp6965)"><text id="text1440" font-family="ArialMT" font-size="10.08" transform="translate(0,792)" xml:space="preserve"><tspan id="tspan1438" x="397.92 403.444 408.968 414.492 417.374 420.735 426.259 431.783 434.663 440.186 449.067" y="-369.84">162 (12.3%)</tspan></text></g><clipPath id="cp6966"><path id="path1444" d="m 366.96,367.68 h 87.60098 v 11.281 H 366.96 Z" transform="matrix(1,0,0,-1,0,792)"/></clipPath><clipPath id="cp6967"><path id="path1455" d="m 454.56,367.68 h 87.6 v 11.281 h -87.6 z" transform="matrix(1,0,0,-1,0,792)"/></clipPath><g id="g1462" clip-path="url(#cp6967)"><text id="text1460" font-family="ArialMT" font-size="10.08" transform="translate(0,792)" xml:space="preserve"><tspan id="tspan1458" x="485.52 491.044 496.568 502.091 504.974 508.335 513.859 519.383 522.263 527.787 536.667" y="-369.84">144 (10.8%)</tspan></text></g><clipPath id="cp6968"><path id="path1464" d="m 454.56,367.68 h 87.6 v 11.281 h -87.6 z" transform="matrix(1,0,0,-1,0,792)"/></clipPath><path id="path1475" d="m 69.84,379.2 h 121.92 v 0.481 H 69.84 Z" transform="matrix(1,0,0,-1,0,792)"/><path id="path1477" d="m 191.76,379.2 h 0.47999 v 0.481 H 191.76 Z" transform="matrix(1,0,0,-1,0,792)"/><path id="path1479" d="m 192.24,379.2 h 87.12003 v 0.481 H 192.24 Z" transform="matrix(1,0,0,-1,0,792)"/><path id="path1481" d="m 279.36,379.2 h 0.48 v 0.481 h -0.48 z" transform="matrix(1,0,0,-1,0,792)"/><path id="path1483" d="m 279.84,379.2 h 87.12 v 0.481 h -87.12 z" transform="matrix(1,0,0,-1,0,792)"/><path id="path1485" d="m 366.96,379.2 h 0.48099 v 0.481 H 366.96 Z" transform="matrix(1,0,0,-1,0,792)"/><path id="path1487" d="m 367.44,379.2 h 87.12 v 0.481 h -87.12 z" transform="matrix(1,0,0,-1,0,792)"/><path id="path1489" d="m 454.56,379.2 h 0.48 v 0.481 h -0.48 z" transform="matrix(1,0,0,-1,0,792)"/><path id="path1491" d="m 455.04,379.2 h 87.12006 v 0.481 H 455.04 Z" transform="matrix(1,0,0,-1,0,792)"/></g><g id="g1722" data-name="P" transform="translate(-69.12,-246.23999)"><clipPath id="cp6969"><path id="path1495" d="m 69.84,356.16 h 121.92 v 11.52 H 69.84 Z" transform="matrix(1,0,0,-1,0,792)"/></clipPath><g id="g1502" clip-path="url(#cp6969)"><text id="text1500" font-family="ArialMT" font-size="10.08" transform="translate(0,792)" xml:space="preserve"><tspan id="tspan1498" x="82.8 90.72 94.08 99.603 105.127 110.651 113.534" y="-358.32">Grade 3</tspan></text></g><clipPath id="cp6970"><path id="path1504" d="m 69.84,356.16 h 121.92 v 11.52 H 69.84 Z" transform="matrix(1,0,0,-1,0,792)"/></clipPath><clipPath id="cp6971"><path id="path1515" d="m 191.76,356.16 h 87.6 v 11.52 h -87.6 z" transform="matrix(1,0,0,-1,0,792)"/></clipPath><g id="g1522" clip-path="url(#cp6971)"><text id="text1520" font-family="ArialMT" font-size="10.08" transform="translate(0,792)" xml:space="preserve"><tspan id="tspan1518" x="239.52 245.044 247.927 251.287 256.811 259.691 265.215 274.095" y="-358.32">3 (0.1%)</tspan></text></g><clipPath id="cp6972"><path id="path1524" d="m 191.76,356.16 h 87.6 v 11.52 h -87.6 z" transform="matrix(1,0,0,-1,0,792)"/></clipPath><clipPath id="cp6973"><path id="path1535" d="m 279.36,356.16 h 87.6 v 11.52 h -87.6 z" transform="matrix(1,0,0,-1,0,792)"/></clipPath><g id="g1542" clip-path="url(#cp6973)"><text id="text1540" font-family="ArialMT" font-size="10.08" transform="translate(0,792)" xml:space="preserve"><tspan id="tspan1538" x="327.12 332.644 335.527 338.887 344.411 347.291 352.815 361.695" y="-358.32">3 (0.1%)</tspan></text></g><clipPath id="cp6974"><path id="path1544" d="m 279.36,356.16 h 87.6 v 11.52 h -87.6 z" transform="matrix(1,0,0,-1,0,792)"/></clipPath><clipPath id="cp6975"><path id="path1555" d="m 366.96,356.16 h 87.60098 v 11.52 H 366.96 Z" transform="matrix(1,0,0,-1,0,792)"/></clipPath><g id="g1562" clip-path="url(#cp6975)"><text id="text1560" font-family="ArialMT" font-size="10.08" transform="translate(0,792)" xml:space="preserve"><tspan id="tspan1558" x="414.72 420.244 423.127 426.487 432.011 434.891 440.415 449.295" y="-358.32">3 (0.2%)</tspan></text></g><clipPath id="cp6976"><path id="path1564" d="m 366.96,356.16 h 87.60098 v 11.52 H 366.96 Z" transform="matrix(1,0,0,-1,0,792)"/></clipPath><clipPath id="cp6977"><path id="path1575" d="m 454.56,356.16 h 87.6 v 11.52 h -87.6 z" transform="matrix(1,0,0,-1,0,792)"/></clipPath><g id="g1582" clip-path="url(#cp6977)"><text id="text1580" font-family="ArialMT" font-size="10.08" transform="translate(0,792)" xml:space="preserve"><tspan id="tspan1578" x="502.32 507.844 510.727 514.086 519.61 522.49 528.014 536.894" y="-358.32">3 (0.2%)</tspan></text></g><clipPath id="cp6978"><path id="path1584" d="m 454.56,356.16 h 87.6 v 11.52 h -87.6 z" transform="matrix(1,0,0,-1,0,792)"/></clipPath><clipPath id="cp6979"><path id="path1595" d="m 69.84,344.16 h 121.92 v 11.52 H 69.84 Z" transform="matrix(1,0,0,-1,0,792)"/></clipPath><g id="g1602" clip-path="url(#cp6979)"><text id="text1600" font-family="ArialMT" font-size="10.08" transform="translate(0,792)" xml:space="preserve"><tspan id="tspan1598" x="72 78.241 83.522 89.042 94.324" y="-346.32">Fever</tspan></text></g><clipPath id="cp6980"><path id="path1604" d="m 69.84,344.16 h 121.92 v 11.52 H 69.84 Z" transform="matrix(1,0,0,-1,0,792)"/></clipPath><g id="g1611" clip-path="url(#cp6980)"><text id="text1609" font-family="ArialMT" font-size="6.48" transform="translate(0,792)" xml:space="preserve"><tspan id="tspan1607" x="97.68" y="-349.92">d</tspan></text></g><clipPath id="cp6981"><path id="path1613" d="m 69.84,344.16 h 121.92 v 11.52 H 69.84 Z" transform="matrix(1,0,0,-1,0,792)"/></clipPath><clipPath id="cp6982"><path id="path1624" d="m 191.76,344.16 h 87.6 v 11.52 h -87.6 z" transform="matrix(1,0,0,-1,0,792)"/></clipPath><g id="g1631" clip-path="url(#cp6982)"><text id="text1629" font-family="ArialMT" font-size="10.08" transform="translate(0,792)" xml:space="preserve"><tspan id="tspan1627" x="222.72 228.244 233.768 239.292 242.174 245.535 251.059 256.583 259.463 264.986 273.867" y="-346.32">261 (12.8%)</tspan></text></g><clipPath id="cp6983"><path id="path1633" d="m 191.76,344.16 h 87.6 v 11.52 h -87.6 z" transform="matrix(1,0,0,-1,0,792)"/></clipPath><clipPath id="cp6984"><path id="path1644" d="m 279.36,344.16 h 87.6 v 11.52 h -87.6 z" transform="matrix(1,0,0,-1,0,792)"/></clipPath><g id="g1651" clip-path="url(#cp6984)"><text id="text1649" font-family="ArialMT" font-size="10.08" transform="translate(0,792)" xml:space="preserve"><tspan id="tspan1647" x="321.36 326.884 332.408 335.291 338.651 344.175 347.055 352.579 361.459" y="-346.32">14 (0.7%)</tspan></text></g><clipPath id="cp6985"><path id="path1653" d="m 279.36,344.16 h 87.6 v 11.52 h -87.6 z" transform="matrix(1,0,0,-1,0,792)"/></clipPath><clipPath id="cp6986"><path id="path1664" d="m 366.96,344.16 h 87.60098 v 11.52 H 366.96 Z" transform="matrix(1,0,0,-1,0,792)"/></clipPath><g id="g1671" clip-path="url(#cp6986)"><text id="text1669" font-family="ArialMT" font-size="10.08" transform="translate(0,792)" xml:space="preserve"><tspan id="tspan1667" x="408.96 414.484 420.008 422.891 426.251 431.775 434.655 440.179 449.059" y="-346.32">41 (3.1%)</tspan></text></g><clipPath id="cp6987"><path id="path1673" d="m 366.96,344.16 h 87.60098 v 11.52 H 366.96 Z" transform="matrix(1,0,0,-1,0,792)"/></clipPath><clipPath id="cp6988"><path id="path1684" d="m 454.56,344.16 h 87.6 v 11.52 h -87.6 z" transform="matrix(1,0,0,-1,0,792)"/></clipPath><g id="g1691" clip-path="url(#cp6988)"><text id="text1689" font-family="ArialMT" font-size="10.08" transform="translate(0,792)" xml:space="preserve"><tspan id="tspan1687" x="502.32 507.844 510.727 514.086 519.61 522.49 528.014 536.894" y="-346.32">6 (0.5%)</tspan></text></g><clipPath id="cp6989"><path id="path1693" d="m 454.56,344.16 h 87.6 v 11.52 h -87.6 z" transform="matrix(1,0,0,-1,0,792)"/></clipPath><path id="path1704" d="m 69.84,355.68 h 121.92 v 0.48 H 69.84 Z" transform="matrix(1,0,0,-1,0,792)"/><path id="path1706" d="m 191.76,355.68 h 0.47999 v 0.48 H 191.76 Z" transform="matrix(1,0,0,-1,0,792)"/><path id="path1708" d="m 192.24,355.68 h 87.12003 v 0.48 H 192.24 Z" transform="matrix(1,0,0,-1,0,792)"/><path id="path1710" d="m 279.36,355.68 h 0.48 v 0.48 h -0.48 z" transform="matrix(1,0,0,-1,0,792)"/><path id="path1712" d="m 279.84,355.68 h 87.12 v 0.48 h -87.12 z" transform="matrix(1,0,0,-1,0,792)"/><path id="path1714" d="m 366.96,355.68 h 0.48099 v 0.48 H 366.96 Z" transform="matrix(1,0,0,-1,0,792)"/><path id="path1716" d="m 367.44,355.68 h 87.12 v 0.48 h -87.12 z" transform="matrix(1,0,0,-1,0,792)"/><path id="path1718" d="m 454.56,355.68 h 0.48 v 0.48 h -0.48 z" transform="matrix(1,0,0,-1,0,792)"/><path id="path1720" d="m 455.04,355.68 h 87.12006 v 0.48 H 455.04 Z" transform="matrix(1,0,0,-1,0,792)"/></g><g id="g1969" data-name="P" transform="translate(-69.12,-246.23999)"><clipPath id="cp6990"><path id="path1724" d="m 69.84,332.64 h 121.92 v 11.52 H 69.84 Z" transform="matrix(1,0,0,-1,0,792)"/></clipPath><g id="g1731" clip-path="url(#cp6990)"><text id="text1729" font-family="ArialMT" font-size="10.08" transform="translate(0,792)" xml:space="preserve"><tspan id="tspan1727" x="82.8 90.72 94.08 99.603 105.127 110.651 113.534" y="-334.8">Grade 3</tspan></text></g><clipPath id="cp6991"><path id="path1733" d="m 69.84,332.64 h 121.92 v 11.52 H 69.84 Z" transform="matrix(1,0,0,-1,0,792)"/></clipPath><clipPath id="cp6992"><path id="path1744" d="m 191.76,332.64 h 87.6 v 11.52 h -87.6 z" transform="matrix(1,0,0,-1,0,792)"/></clipPath><g id="g1751" clip-path="url(#cp6992)"><text id="text1749" font-family="ArialMT" font-size="10.08" transform="translate(0,792)" xml:space="preserve"><tspan id="tspan1747" x="239.52 245.044 247.927 251.287 256.811 259.691 265.215 274.095" y="-334.8">7 (0.3%)</tspan></text></g><clipPath id="cp6993"><path id="path1753" d="m 191.76,332.64 h 87.6 v 11.52 h -87.6 z" transform="matrix(1,0,0,-1,0,792)"/></clipPath><clipPath id="cp6994"><path id="path1764" d="m 279.36,332.64 h 87.6 v 11.52 h -87.6 z" transform="matrix(1,0,0,-1,0,792)"/></clipPath><g id="g1771" clip-path="url(#cp6994)"><text id="text1769" font-family="ArialMT" font-size="10.08" transform="translate(0,792)" xml:space="preserve"><tspan id="tspan1767" x="359.28" y="-334.8">0</tspan></text></g><clipPath id="cp6995"><path id="path1773" d="m 279.36,332.64 h 87.6 v 11.52 h -87.6 z" transform="matrix(1,0,0,-1,0,792)"/></clipPath><clipPath id="cp6996"><path id="path1784" d="m 366.96,332.64 h 87.60098 v 11.52 H 366.96 Z" transform="matrix(1,0,0,-1,0,792)"/></clipPath><g id="g1791" clip-path="url(#cp6996)"><text id="text1789" font-family="ArialMT" font-size="10.08" transform="translate(0,792)" xml:space="preserve"><tspan id="tspan1787" x="414.72 420.244 423.127 426.487 432.011 434.891 440.415 449.295" y="-334.8">1 (0.1%)</tspan></text></g><clipPath id="cp6997"><path id="path1793" d="m 366.96,332.64 h 87.60098 v 11.52 H 366.96 Z" transform="matrix(1,0,0,-1,0,792)"/></clipPath><clipPath id="cp6998"><path id="path1804" d="m 454.56,332.64 h 87.6 v 11.52 h -87.6 z" transform="matrix(1,0,0,-1,0,792)"/></clipPath><g id="g1811" clip-path="url(#cp6998)"><text id="text1809" font-family="ArialMT" font-size="10.08" transform="translate(0,792)" xml:space="preserve"><tspan id="tspan1807" x="534.48" y="-334.8">0</tspan></text></g><clipPath id="cp6999"><path id="path1813" d="m 454.56,332.64 h 87.6 v 11.52 h -87.6 z" transform="matrix(1,0,0,-1,0,792)"/></clipPath><clipPath id="cp7000"><path id="path1824" d="m 69.84,320.64 h 121.92 v 11.52 H 69.84 Z" transform="matrix(1,0,0,-1,0,792)"/></clipPath><g id="g1831" clip-path="url(#cp7000)"><text id="text1829" font-family="ArialMT" font-size="10.08" transform="translate(0,792)" xml:space="preserve"><tspan id="tspan1827" x="72 78.72 84.244 87.124 89.524 95.048 100.088 103.448 108.728 111.607 113.764 118.804 121.684 128.405 133.929 139.208 141.608 147.132 152.656 157.456 159.856 164.896 167.779 174.976 179.776" y="-322.8">Antipyretic/Analgesic Use</tspan></text></g><clipPath id="cp7001"><path id="path1833" d="m 69.84,320.64 h 121.92 v 11.52 H 69.84 Z" transform="matrix(1,0,0,-1,0,792)"/></clipPath><clipPath id="cp7002"><path id="path1844" d="m 191.76,320.64 h 87.6 v 11.52 h -87.6 z" transform="matrix(1,0,0,-1,0,792)"/></clipPath><g id="g1851" clip-path="url(#cp7002)"><text id="text1849" font-family="ArialMT" font-size="10.08" transform="translate(0,792)" xml:space="preserve"><tspan id="tspan1847" x="222.72 228.244 233.768 239.292 242.174 245.535 251.059 256.583 259.463 264.986 273.867" y="-322.8">538 (26.4%)</tspan></text></g><clipPath id="cp7003"><path id="path1853" d="m 191.76,320.64 h 87.6 v 11.52 h -87.6 z" transform="matrix(1,0,0,-1,0,792)"/></clipPath><clipPath id="cp7004"><path id="path1864" d="m 279.36,320.64 h 87.6 v 11.52 h -87.6 z" transform="matrix(1,0,0,-1,0,792)"/></clipPath><g id="g1871" clip-path="url(#cp7004)"><text id="text1869" font-family="ArialMT" font-size="10.08" transform="translate(0,792)" xml:space="preserve"><tspan id="tspan1867" x="315.84 321.364 326.888 332.411" y="-322.8">123</tspan></text></g><clipPath id="cp7005"><path id="path1873" d="m 279.36,320.64 h 87.6 v 11.52 h -87.6 z" transform="matrix(1,0,0,-1,0,792)"/></clipPath><g id="g1880" clip-path="url(#cp7005)"><text id="text1878" font-family="ArialMT" font-size="10.08" transform="translate(0,792)" xml:space="preserve"><tspan id="tspan1876" x="335.28 338.64 344.164 347.044 352.568 361.449" y="-322.8">(6.0%)</tspan></text></g><clipPath id="cp7006"><path id="path1882" d="m 279.36,320.64 h 87.6 v 11.52 h -87.6 z" transform="matrix(1,0,0,-1,0,792)"/></clipPath><clipPath id="cp7007"><path id="path1893" d="m 366.96,320.64 h 87.60098 v 11.52 H 366.96 Z" transform="matrix(1,0,0,-1,0,792)"/></clipPath><g id="g1900" clip-path="url(#cp7007)"><text id="text1898" font-family="ArialMT" font-size="10.08" transform="translate(0,792)" xml:space="preserve"><tspan id="tspan1896" x="403.44 408.964 414.488 420.012 422.894 426.255 431.779 434.659 440.183 449.063" y="-322.8">130 (9.8%)</tspan></text></g><clipPath id="cp7008"><path id="path1902" d="m 366.96,320.64 h 87.60098 v 11.52 H 366.96 Z" transform="matrix(1,0,0,-1,0,792)"/></clipPath><clipPath id="cp7009"><path id="path1913" d="m 454.56,320.64 h 87.6 v 11.52 h -87.6 z" transform="matrix(1,0,0,-1,0,792)"/></clipPath><g id="g1920" clip-path="url(#cp7009)"><text id="text1918" font-family="ArialMT" font-size="10.08" transform="translate(0,792)" xml:space="preserve"><tspan id="tspan1916" x="496.56 502.084 507.608 510.491 513.851 519.375 522.255 527.779 536.659" y="-322.8">68 (5.1%)</tspan></text></g><clipPath id="cp7010"><path id="path1922" d="m 454.56,320.64 h 87.6 v 11.52 h -87.6 z" transform="matrix(1,0,0,-1,0,792)"/></clipPath><path id="path1933" d="m 69.84,332.16 h 121.92 v 0.48 H 69.84 Z" transform="matrix(1,0,0,-1,0,792)"/><path id="path1935" d="m 191.76,332.16 h 0.47999 v 0.48 H 191.76 Z" transform="matrix(1,0,0,-1,0,792)"/><path id="path1937" d="m 192.24,332.16 h 87.12003 v 0.48 H 192.24 Z" transform="matrix(1,0,0,-1,0,792)"/><path id="path1939" d="m 279.36,332.16 h 0.48 v 0.48 h -0.48 z" transform="matrix(1,0,0,-1,0,792)"/><path id="path1941" d="m 279.84,332.16 h 87.12 v 0.48 h -87.12 z" transform="matrix(1,0,0,-1,0,792)"/><path id="path1943" d="m 366.96,332.16 h 0.48099 v 0.48 H 366.96 Z" transform="matrix(1,0,0,-1,0,792)"/><path id="path1945" d="m 367.44,332.16 h 87.12 v 0.48 h -87.12 z" transform="matrix(1,0,0,-1,0,792)"/><path id="path1947" d="m 454.56,332.16 h 0.48 v 0.48 h -0.48 z" transform="matrix(1,0,0,-1,0,792)"/><path id="path1949" d="m 455.04,332.16 h 87.12006 v 0.48 H 455.04 Z" transform="matrix(1,0,0,-1,0,792)"/><path id="path1951" d="m 69.12,320.16 h 122.64001 v 0.481 H 69.12 Z" transform="matrix(1,0,0,-1,0,792)"/><path id="path1953" d="m 191.04,320.16 h 0.47999 v 0.481 H 191.04 Z" transform="matrix(1,0,0,-1,0,792)"/><path id="path1955" d="m 191.52,320.16 h 87.84 v 0.481 h -87.84 z" transform="matrix(1,0,0,-1,0,792)"/><path id="path1957" d="m 278.64,320.16 h 0.48004 v 0.481 H 278.64 Z" transform="matrix(1,0,0,-1,0,792)"/><path id="path1959" d="m 279.12,320.16 h 87.84 v 0.481 h -87.84 z" transform="matrix(1,0,0,-1,0,792)"/><path id="path1961" d="m 366.24,320.16 h 0.48099 v 0.481 H 366.24 Z" transform="matrix(1,0,0,-1,0,792)"/><path id="path1963" d="m 366.72,320.16 h 87.84 v 0.481 h -87.84 z" transform="matrix(1,0,0,-1,0,792)"/><path id="path1965" d="m 453.84,320.16 h 0.48 v 0.481 h -0.48 z" transform="matrix(1,0,0,-1,0,792)"/><path id="path1967" d="m 454.32,320.16 h 87.84006 v 0.481 H 454.32 Z" transform="matrix(1,0,0,-1,0,792)"/></g><text id="text1999" x="-69.12" y="545.76" font-family="ArialMT" font-size="7.92" xml:space="preserve"><tspan id="tspan1993" x="2.88 8.16 12.477 16.793 19.433 23.513 27.593 29.753 32.16 37.441 42 46.316 50.633 54.953 59.27 61.909 64.071 66.472 70.788 75.349 77.269 81.348 83.51 88.55 93.833 98.873 104.155 109.438 114.721 120.961 125.52 131.041 136.08 141.6 145.921 150.477" y="233.04">Source: Sponsor table TSFAESOLSYS27 </tspan><tspan id="tspan1995" x="2.88 7.196 9.359 13.92 15.837 20.397 24.714 31.434 35.994 40.311 42.955 45.117 49.196 51.596 53.513 58.074 62.154 64.794 66.954 68.634 72.714 74.394 78.956 83.035 87.597 89.757 93.833 95.75 101.51 103.189 105.349 109.673 111.59 115.67 120.23 124.546 128.626 130.306 132.706 134.626 138.942 143.259 145.187 148.066 152.383 156.699 160.78 162.939 164.859 169.176 173.746" y="242.401">n = number of participants with specified reaction </tspan><tspan id="tspan1997" x="2.864 8.622 10.784 15.346 17.508 22.07 26.39 33.11 37.672 41.752 44.389 46.551 50.63 53.029 55.192 59.512 63.352 67.912 71.991 76.311 80.39 84.955 86.872 91.434 95.753 98.393 100.793 102.473 106.553 108.233 112.795 117.114 121.676 123.834 127.913 129.83 135.588 140.147 144.228 146.145 150.225 154.542 159.102 165.582 167.262 169.422 171.822 176.138 180.454 182.624 186.941 191.501 195.106 197.269 201.829 206.145 208.545 212.625 214.542 217.182 221.261 223.903 225.82 228.22 232.782 236.861 239.023 243.339 247.419 251.735 256.052 258.452 260.621 262.537 267.098 271.414 274.054 278.374 282.69 287.007 289.407 293.724 298.284 302.364 306.454 308.616 312.695 315.575 319.894 321.81 326.37 330.449 334.769 339.089 343.408 345.57 349.649 354.211 356.128 360.444 362.604 368.364 370.764" y="251.525">N = number of exposed participants who submitted any data for the event, percentages are based on n/N.</tspan></text><text id="text2003" x="-69.12" y="545.76" font-family="ArialMT" font-size="5.04" xml:space="preserve"><tspan id="tspan2001" x="2.88" y="257.52">a</tspan></text><text id="text2007" x="-69.12" y="545.76" font-family="ArialMT" font-size="7.92" xml:space="preserve"><tspan id="tspan2005" x="5.76 7.922 13.202 17.281 19.681 23.76 26.16 30 32.162 36.243 40.562 44.882 49.202 53.281 55.442 57.604 59.766 65.047 69.366 73.687 78.006 82.085 84.245 86.645 90.723 93.123 95.288 100.088 104.404 106.324 108.007 110.645 115.925 120.485 124.564 126.484 130.084 134.164 135.844 139.924 142.086 147.606 151.685 153.845 156.007 158.648 162.726 165.366 167.767 171.846 176.406 180.725 182.646 186.246 190.326 192.006 196.086 198.486 202.565 204.965 207.127 211.206 215.285 216.965 218.645 222.728 224.407 226.807 231.124 235.44 237.841 241.92 246.481 250.797 252.959 257.276 261.592 265.911 269.992 271.672 273.351 277.432 279.112 281.511 285.828 290.144 292.306 297.587 302.866 306.947 309.109" y="260.64">Safety subset: Subset of Full-Analysis Set for analysis of solicited and unsolicited AEs</tspan></text><text id="text2011" x="-69.12" y="545.76" font-family="ArialMT" font-size="5.04" xml:space="preserve"><tspan id="tspan2009" x="2.88" y="266.88">b</tspan></text><text id="text2017" x="-69.12" y="545.76" font-family="ArialMT" font-size="7.92" xml:space="preserve"><tspan id="tspan2013" x="5.52 7.682 12.722 17.039 19.199 21.119 25.436 29.996 34.312 36.713 38.875 44.875 49.192 53.508 58.068 62.148 66.468 71.028 75.344 77.504 79.904 86.624 90.464 94.781 96.701 101.018 102.938 107.255 109.684 114 116.162 122.403 125.282 129.599 134.158 138.475 140.634 145.195 147.355 149.514 151.435 155.751 160.072 164.388 168.948 173.029 177.108 178.788 181.189 185.505 187.905 189.586 194.145 198.462 200.621 203.021 207.338 210.217 214.534 218.613 222.93 227.246 229.406 233.486 235.885 240.445 244.761 246.441 248.361 252.201 254.601 258.681 262.761 265.162 267.081 270.921 272.602 275.001 278.841 281.002 283.401 287.718 292.037 296.16 298.322 302.401 304.801 306.718 312.718 316.554 318.716 323.276 327.355 329.035 333.353 335.269 338.149 342.465 344.145 346.065 350.381 354.222 358.538 361.178 363.346 365.508 371.748 374.628 378.944 383.504 387.82 390.22 394.536 396.696 398.858 404.858 409.175 413.734 418.051 419.731 422.611 426.927 431.008 433.17 438.45 440.61 446.61 448.77 451.17 455.01 456.69 460.77 462.45 464.85" y="270">Fatigue, Headache, Myalgia – Grade 3: incapacitating; prevents daily activity; use of Rx pain reliever. Grade 4: Requires E.R. visit </tspan><tspan id="tspan2015" x="2.867 7.183 9.824 11.986 16.546 20.863 24.943 29.503 31.183 33.583 37.899 39.579 41.499 45.579 49.896 52.056 53.976 58.293 62.869" y="279.124">or hospitalization</tspan></text><text id="text2021" x="-69.12" y="545.76" font-family="ArialMT" font-size="5.04" xml:space="preserve"><tspan id="tspan2019" x="2.88" y="285.12">c</tspan></text><text id="text2025" x="-69.12" y="545.76" font-family="ArialMT" font-size="7.92" xml:space="preserve"><tspan id="tspan2023" x="5.52 7.682 13.442 17.759 22.075 26.395 30.711 35.028 37.2 41.516 47.757 50.636 54.953 59.512 63.829 66.228 70.545 72.705 75.104 76.785 81.101 85.422 89.738 94.299 98.379 102.698 104.378 106.779 111.095 113.256 115.176 119.492 123.808 126.208 128.368 132.684 135.565 139.881 143.962 148.278 152.838 154.998 159.079 161.238 165.798 170.114 172.034 173.955 177.794 180.194 184.274 188.353 190.514 192.434 196.273 198.194 200.594 204.478 206.641 208.803 215.036 217.915 222.232 226.792 231.109 233.271 237.831 239.991 242.153 248.152 252.469 257.028 261.345 263.025 265.905 269.985 274.305 276.467 281.748 283.907 289.668 292.067 294.468 298.308 299.987 304.068 305.748 307.907 310.308 314.624 317.265 319.665 324.224 328.305 332.384 336.944 338.624 341.025 345.341 347.021 348.942 353.021 357.338 359.497 361.417 365.734 370.315" y="288.24">Nausea –Grade 3: incapacitating; prevents daily activity. Grade 4: Requires E.R. visit or hospitalization</tspan></text><text id="text2029" x="-69.12" y="545.76" font-family="ArialMT" font-size="5.04" xml:space="preserve"><tspan id="tspan2027" x="2.88" y="294.96">d</tspan></text><text id="text2033" x="-69.12" y="545.76" font-family="ArialMT" font-size="7.92" xml:space="preserve"><tspan id="tspan2031" x="5.52 7.682 12.722 17.039 21.119 25.436 28.076 30.238 33.121 35.283 41.524 44.403 48.72 53.279 57.596 59.758 64.074 66.474" y="298.08">Fever - Grade 3:</tspan></text><text id="text2037" x="-69.12" y="545.76" font-family="MS" font-size="7.92" xml:space="preserve"><tspan id="tspan2035" x="68.636" y="298.08">≥</tspan></text><text id="text2041" x="-69.12" y="545.76" font-family="ArialMT" font-size="7.92" xml:space="preserve"><tspan id="tspan2039" x="72.721 77.038 81.598 83.758 88.074 90.478 92.878 96.956" y="298.08">39.0 to</tspan></text><text id="text2045" x="-69.12" y="545.76" font-family="ArialMT" font-size="7.92" xml:space="preserve"><tspan id="tspan2043" x="99.356" y="298.08">≤</tspan></text><text id="text2049" x="-69.12" y="545.76" font-family="ArialMT" font-size="7.92" xml:space="preserve"><tspan id="tspan2047" x="103.673 108.233 112.549 114.949 119.266 122.386 128.145 130.545 134.862 137.502" y="298.08">40.0°C or</tspan></text><text id="text2053" x="-69.12" y="545.76" font-family="MS" font-size="7.92" xml:space="preserve"><tspan id="tspan2051" x="139.669" y="298.08">≥</tspan></text><text id="text2057" x="-69.12" y="545.76" font-family="ArialMT" font-size="7.92" xml:space="preserve"><tspan id="tspan2055" x="143.748 148.308 152.625 157.185 159.345 163.661 166.066 168.466 172.782" y="298.08">102.1 to</tspan></text><text id="text2061" x="-69.12" y="545.76" font-family="ArialMT" font-size="7.92" xml:space="preserve"><tspan id="tspan2059" x="174.945" y="298.08">≤</tspan></text><text id="text2065" x="-69.12" y="545.76" font-family="ArialMT" font-size="7.92" xml:space="preserve"><tspan id="tspan2063" x="179.261 183.823 188.143 192.704 194.864" y="298.08">104.0</tspan></text><text id="text2069" x="-69.12" y="545.76" font-family="MS" font-size="7.92" xml:space="preserve"><tspan id="tspan2067" x="199.426" y="298.08">°</tspan></text><text id="text2075" x="-69.12" y="545.76" font-family="ArialMT" font-size="7.92" xml:space="preserve"><tspan id="tspan2071" x="207.346 212.147 214.306 216.468 222.708 225.588 229.905 234.465 238.781 241.182 245.498 247.899 250.061 254.622 259.181 263.498 265.897 270.214 273.333 279.094 281.5 285.817 288.456 290.862 295.422 299.982 304.298 308.614 311.015 315.331 318.692 323.746" y="298.08">F; Grade 4: &gt;40.0°C or &gt;104.0°F </tspan><tspan id="tspan2073" x="2.867 8.627 12.706 15.106 19.426 21.586 23.748 29.748 33.827 35.989 40.309 43.188 47.507 52.067 56.146 58.308 62.869 65.031 69.111 73.431 75.111 76.791 80.871 82.551 84.95 89.029 93.349 95.511 97.431 101.51 105.83 110.15 111.83 114.23 118.309 122.868 126.709 131.028 133.669 137.988 142.067 144.229 147.109 151.429 155.508 159.589 161.748 163.669 167.989 172.309 176.388 178.551 184.311 188.39 191.269 195.59 197.752 200.632 204.71 209.27 213.349 216.228 218.629 222.708 227.028 229.426" y="308.162">Note: No grade 4 solicited local adverse reactions were reported.</tspan></text></svg>